G04 DesignSpark PCB Gerber Version 11.0 Build 5877*
%FSLAX35Y35*%
%MOMM*%
%ADD11C,0.12700*%
%ADD81C,2.54000*%
X0Y0D02*
D02*
D11*
X965240Y1416050D02*
Y1511300D01*
Y1463680D02*
X989050D01*
X1044620Y1511300D01*
X989050Y1463680D02*
X1044620Y1416050D01*
X1048620Y1881930D02*
X1040680Y1873990D01*
X1024800Y1866050D01*
X1000990D01*
X985120Y1873990D01*
X977180Y1881930D01*
X969240Y1897800D01*
Y1929550D01*
X977180Y1945430D01*
X985120Y1953370D01*
X1000990Y1961300D01*
X1024800D01*
X1040680Y1953370D01*
X1048620Y1945430D01*
Y2181930D02*
X1040680Y2173990D01*
X1024800Y2166050D01*
X1000990D01*
X985120Y2173990D01*
X977180Y2181930D01*
X969240Y2197800D01*
Y2229550D01*
X977180Y2245430D01*
X985120Y2253370D01*
X1000990Y2261300D01*
X1024800D01*
X1040680Y2253370D01*
X1048620Y2245430D01*
Y2781930D02*
X1040680Y2773990D01*
X1024800Y2766050D01*
X1000990D01*
X985120Y2773990D01*
X977180Y2781930D01*
X969240Y2797800D01*
Y2829550D01*
X977180Y2845430D01*
X985120Y2853370D01*
X1000990Y2861300D01*
X1024800D01*
X1040680Y2853370D01*
X1048620Y2845430D01*
X1094240Y741050D02*
Y836300D01*
X1173620D01*
X1157740Y788680D02*
X1094240D01*
Y741050D02*
X1173620D01*
X1248620Y2781930D02*
X1240680Y2773990D01*
X1224800Y2766050D01*
X1200990D01*
X1185120Y2773990D01*
X1177180Y2781930D01*
X1169240Y2797800D01*
Y2829550D01*
X1177180Y2845430D01*
X1185120Y2853370D01*
X1200990Y2861300D01*
X1224800D01*
X1240680Y2853370D01*
X1248620Y2845430D01*
X1219240Y1416050D02*
Y1511300D01*
Y1463680D02*
X1243050D01*
X1298620Y1511300D01*
X1243050Y1463680D02*
X1298620Y1416050D01*
X1302620Y1881930D02*
X1294680Y1873990D01*
X1278800Y1866050D01*
X1254990D01*
X1239120Y1873990D01*
X1231180Y1881930D01*
X1223240Y1897800D01*
Y1929550D01*
X1231180Y1945430D01*
X1239120Y1953370D01*
X1254990Y1961300D01*
X1278800D01*
X1294680Y1953370D01*
X1302620Y1945430D01*
Y2181930D02*
X1294680Y2173990D01*
X1278800Y2166050D01*
X1254990D01*
X1239120Y2173990D01*
X1231180Y2181930D01*
X1223240Y2197800D01*
Y2229550D01*
X1231180Y2245430D01*
X1239120Y2253370D01*
X1254990Y2261300D01*
X1278800D01*
X1294680Y2253370D01*
X1302620Y2245430D01*
X1448620Y2781930D02*
X1440680Y2773990D01*
X1424800Y2766050D01*
X1400990D01*
X1385120Y2773990D01*
X1377180Y2781930D01*
X1369240Y2797800D01*
Y2829550D01*
X1377180Y2845430D01*
X1385120Y2853370D01*
X1400990Y2861300D01*
X1424800D01*
X1440680Y2853370D01*
X1448620Y2845430D01*
X1556620Y1881930D02*
X1548680Y1873990D01*
X1532800Y1866050D01*
X1508990D01*
X1493120Y1873990D01*
X1485180Y1881930D01*
X1477240Y1897800D01*
Y1929550D01*
X1485180Y1945430D01*
X1493120Y1953370D01*
X1508990Y1961300D01*
X1532800D01*
X1548680Y1953370D01*
X1556620Y1945430D01*
Y2181930D02*
X1548680Y2173990D01*
X1532800Y2166050D01*
X1508990D01*
X1493120Y2173990D01*
X1485180Y2181930D01*
X1477240Y2197800D01*
Y2229550D01*
X1485180Y2245430D01*
X1493120Y2253370D01*
X1508990Y2261300D01*
X1532800D01*
X1548680Y2253370D01*
X1556620Y2245430D01*
X1648620Y2781930D02*
X1640680Y2773990D01*
X1624800Y2766050D01*
X1600990D01*
X1585120Y2773990D01*
X1577180Y2781930D01*
X1569240Y2797800D01*
Y2829550D01*
X1577180Y2845430D01*
X1585120Y2853370D01*
X1600990Y2861300D01*
X1624800D01*
X1640680Y2853370D01*
X1648620Y2845430D01*
X1640240Y791050D02*
Y886300D01*
Y838680D02*
X1664050D01*
X1719620Y886300D01*
X1664050Y838680D02*
X1719620Y791050D01*
X1894240D02*
Y886300D01*
Y838680D02*
X1918050D01*
X1973620Y886300D01*
X1918050Y838680D02*
X1973620Y791050D01*
X1994240Y1406930D02*
X2002180Y1398990D01*
X2018050Y1391050D01*
X2033930Y1398990D01*
X2041870Y1406930D01*
Y1486300D01*
X2057740D01*
X2041870D02*
X2010120D01*
X1994240Y1656930D02*
X2002180Y1648990D01*
X2018050Y1641050D01*
X2033930Y1648990D01*
X2041870Y1656930D01*
Y1736300D01*
X2057740D01*
X2041870D02*
X2010120D01*
X1994240Y1906930D02*
X2002180Y1898990D01*
X2018050Y1891050D01*
X2033930Y1898990D01*
X2041870Y1906930D01*
Y1986300D01*
X2057740D01*
X2041870D02*
X2010120D01*
X2498620Y1431930D02*
X2490680Y1423990D01*
X2474800Y1416050D01*
X2450990D01*
X2435120Y1423990D01*
X2427180Y1431930D01*
X2419240Y1447800D01*
Y1479550D01*
X2427180Y1495430D01*
X2435120Y1503370D01*
X2450990Y1511300D01*
X2474800D01*
X2490680Y1503370D01*
X2498620Y1495430D01*
X2698620Y1431930D02*
X2690680Y1423990D01*
X2674800Y1416050D01*
X2650990D01*
X2635120Y1423990D01*
X2627180Y1431930D01*
X2619240Y1447800D01*
Y1479550D01*
X2627180Y1495430D01*
X2635120Y1503370D01*
X2650990Y1511300D01*
X2674800D01*
X2690680Y1503370D01*
X2698620Y1495430D01*
X2898620Y1431930D02*
X2890680Y1423990D01*
X2874800Y1416050D01*
X2850990D01*
X2835120Y1423990D01*
X2827180Y1431930D01*
X2819240Y1447800D01*
Y1479550D01*
X2827180Y1495430D01*
X2835120Y1503370D01*
X2850990Y1511300D01*
X2874800D01*
X2890680Y1503370D01*
X2898620Y1495430D01*
X2844240Y2091050D02*
Y2186300D01*
X2923620D01*
X2907740Y2138680D02*
X2844240D01*
Y2091050D02*
X2923620D01*
X3098620Y1431930D02*
X3090680Y1423990D01*
X3074800Y1416050D01*
X3050990D01*
X3035120Y1423990D01*
X3027180Y1431930D01*
X3019240Y1447800D01*
Y1479550D01*
X3027180Y1495430D01*
X3035120Y1503370D01*
X3050990Y1511300D01*
X3074800D01*
X3090680Y1503370D01*
X3098620Y1495430D01*
D02*
D81*
X711240Y1265240D03*
X715240Y1715240D03*
Y2015240D03*
Y2615240D03*
X840240Y590240D03*
X915240Y2615240D03*
X965240Y1265240D03*
X969240Y1715240D03*
Y2015240D03*
X1115240Y2615240D03*
X1223240Y1715240D03*
Y2015240D03*
X1315240Y2615240D03*
X1386240Y640240D03*
X1640240D03*
X1740240Y1240240D03*
Y1490240D03*
Y1740240D03*
X2165240Y1265240D03*
X2365240D03*
X2565240D03*
X2590240Y1940240D03*
X2765240Y1265240D03*
X0Y0D02*
M02*
