  0
SECTION
  2
HEADER
  9
$EXTMIN
 10
455.098
 20
515.598
  9
$EXTMAX
 10
487.652
 20
547.402
  9
$LIMMIN
 10
455.098
 20
515.598
  9
$LIMMAX
 10
487.652
 20
547.402
  0
ENDSEC
  0
SECTION
  2
TABLES
  0
TABLE
  2
LAYER
 70
    18
  0
LAYER
  2
0
 70
    64
 62
     7
  6
CONTINUOUS
  0
LAYER
  2
_BOARD
 70
    64
 62
    254
  6
CONTINUOUS
  0
LAYER
  2
_DRILL
 70
    64
 62
    251
  6
CONTINUOUS
  0
ENDTAB
  0
ENDSEC
  0
SECTION
  2
BLOCKS
  0
BLOCK
  8
0
  2
_HOLE
 70
    64
 10
0.000
 20
0.000
  0
CIRCLE
  8
0
 10
0.000
 20
0.000
 40
0.500
  0
ENDBLK
  8
0
  0
ENDSEC
  0
SECTION
  2
ENTITIES
  0
POLYLINE
  8
_BOARD
 66
     1
 62
     3
 10
0.000
 20
0.000
 70
     1
 40
0.000
 41
0.000
  0
VERTEX
  8
_BOARD
 10
460.000
 20
518.000
 40
0.000
 41
0.000
  0
VERTEX
  8
_BOARD
 10
485.000
 20
518.000
  0
VERTEX
  8
_BOARD
 10
485.000
 20
518.000
 40
0.000
 41
0.000
  0
VERTEX
  8
_BOARD
 10
485.000
 20
545.000
  0
VERTEX
  8
_BOARD
 10
485.000
 20
545.000
 40
0.000
 41
0.000
  0
VERTEX
  8
_BOARD
 10
460.000
 20
545.000
  0
VERTEX
  8
_BOARD
 10
460.000
 20
545.000
 40
0.000
 41
0.000
  0
VERTEX
  8
_BOARD
 10
460.000
 20
518.000
 40
0.000
 41
0.000
  0
VERTEX
  8
_BOARD
 10
460.000
 20
518.000
  0
SEQEND
  8
_BOARD
  0
INSERT
  8
_DRILL
  2
_HOLE
 10
482.750
 20
528.250
 41
0.900
 42
0.900
  0
INSERT
  8
_DRILL
  2
_HOLE
 10
480.750
 20
528.250
 41
0.900
 42
0.900
  0
INSERT
  8
_DRILL
  2
_HOLE
 10
478.750
 20
528.250
 41
0.900
 42
0.900
  0
INSERT
  8
_DRILL
  2
_HOLE
 10
476.750
 20
528.250
 41
0.900
 42
0.900
  0
INSERT
  8
_DRILL
  2
_HOLE
 10
468.960
 20
522.000
 41
0.813
 42
0.813
  0
INSERT
  8
_DRILL
  2
_HOLE
 10
471.500
 20
522.000
 41
0.813
 42
0.813
  0
INSERT
  8
_DRILL
  2
_HOLE
 10
462.210
 20
528.250
 41
0.813
 42
0.813
  0
INSERT
  8
_DRILL
  2
_HOLE
 10
464.750
 20
528.250
 41
0.813
 42
0.813
  0
INSERT
  8
_DRILL
  2
_HOLE
 10
462.250
 20
541.750
 41
0.900
 42
0.900
  0
INSERT
  8
_DRILL
  2
_HOLE
 10
464.250
 20
541.750
 41
0.900
 42
0.900
  0
INSERT
  8
_DRILL
  2
_HOLE
 10
466.250
 20
541.750
 41
0.900
 42
0.900
  0
INSERT
  8
_DRILL
  2
_HOLE
 10
468.250
 20
541.750
 41
0.900
 42
0.900
  0
INSERT
  8
_DRILL
  2
_HOLE
 10
467.330
 20
532.750
 41
0.900
 42
0.900
  0
INSERT
  8
_DRILL
  2
_HOLE
 10
464.790
 20
532.750
 41
0.900
 42
0.900
  0
INSERT
  8
_DRILL
  2
_HOLE
 10
462.250
 20
532.750
 41
0.900
 42
0.900
  0
INSERT
  8
_DRILL
  2
_HOLE
 10
467.330
 20
535.750
 41
0.900
 42
0.900
  0
INSERT
  8
_DRILL
  2
_HOLE
 10
464.790
 20
535.750
 41
0.900
 42
0.900
  0
INSERT
  8
_DRILL
  2
_HOLE
 10
462.250
 20
535.750
 41
0.900
 42
0.900
  0
INSERT
  8
_DRILL
  2
_HOLE
 10
463.500
 20
521.500
 41
3.150
 42
3.150
  0
INSERT
  8
_DRILL
  2
_HOLE
 10
481.000
 20
535.000
 41
3.150
 42
3.150
  0
INSERT
  8
_DRILL
  2
_HOLE
 10
472.500
 20
528.000
 41
1.200
 42
1.200
  0
INSERT
  8
_DRILL
  2
_HOLE
 10
472.500
 20
530.500
 41
1.200
 42
1.200
  0
INSERT
  8
_DRILL
  2
_HOLE
 10
472.500
 20
533.000
 41
1.200
 42
1.200
  0
ENDSEC
  0
EOF
