G04 DesignSpark PCB Gerber Version 11.0 Build 5877*
%FSLAX35Y35*%
%MOMM*%
%ADD11C,0.12700*%
X0Y0D02*
D02*
D11*
X1445800Y1140240D02*
X1477550D01*
X1493430Y1148180D01*
X1501370Y1156120D01*
X1509300Y1171990D01*
Y1187870D01*
X1501370Y1203740D01*
X1493430Y1211680D01*
X1477550Y1219620D01*
X1445800D01*
X1429930Y1211680D01*
X1421990Y1203740D01*
X1414050Y1187870D01*
Y1171990D01*
X1421990Y1156120D01*
X1429930Y1148180D01*
X1445800Y1140240D01*
X1414050Y1267240D02*
X1509300D01*
X1414050Y1346620D01*
X1509300D01*
X1915240Y1915240D02*
X1565240D01*
Y1065240D01*
X1915240D01*
Y1915240D01*
X1965240Y565240D02*
Y1365240D01*
X2965240D01*
Y465240D01*
X2065240D01*
X1965240Y565240D01*
X2095800Y1101740D02*
X2119620D01*
Y1109680D01*
X2111680Y1125550D01*
X2103740Y1133490D01*
X2087870Y1141430D01*
X2071990D01*
X2056120Y1133490D01*
X2048180Y1125550D01*
X2040240Y1109680D01*
Y1077930D01*
X2048180Y1062050D01*
X2056120Y1054110D01*
X2071990Y1046180D01*
X2087870D01*
X2103740Y1054110D01*
X2111680Y1062050D01*
X2119620Y1077930D01*
X2167240Y1141430D02*
Y1077930D01*
Y1101740D02*
X2175180Y1085860D01*
X2191050Y1077930D01*
X2206930D01*
X2222800Y1085860D01*
X2294240Y1117610D02*
X2302180Y1133490D01*
X2318050Y1141430D01*
X2333930D01*
X2349800Y1133490D01*
X2357740Y1117610D01*
Y1101740D01*
X2349800Y1085860D01*
X2333930Y1077930D01*
X2318050D01*
X2302180Y1085860D01*
X2294240Y1101740D01*
Y1117610D01*
X2421240Y1077930D02*
X2452990Y1141430D01*
X2484740Y1077930D01*
X2611740Y1133490D02*
X2603800Y1141430D01*
X2587930D01*
X2572050D01*
X2556180Y1133490D01*
X2548240Y1117610D01*
Y1093800D01*
X2556180Y1085860D01*
X2572050Y1077930D01*
X2587930D01*
X2603800Y1085860D01*
X2611740Y1093800D01*
Y1101740D01*
X2603800Y1109680D01*
X2587930Y1117610D01*
X2572050D01*
X2556180Y1109680D01*
X2548240Y1101740D01*
X2675240Y1109680D02*
X2738740D01*
X2802240Y1046180D02*
Y1141430D01*
X2881620D01*
X2840240Y2484300D02*
X2800550Y2389050D01*
X2760860Y2484300D01*
X2697360Y2389050D02*
X2665610D01*
X2681490D02*
Y2484300D01*
X2697360Y2468430D01*
X2578300Y2389050D02*
X2570360Y2396990D01*
X2578300Y2404930D01*
X2586240Y2396990D01*
X2578300Y2389050D01*
X2395740D02*
X2459240D01*
X2403680Y2444620D01*
X2395740Y2460490D01*
X2403680Y2476370D01*
X2419550Y2484300D01*
X2443360D01*
X2459240Y2476370D01*
X2141740Y2444620D02*
X2157610Y2452550D01*
X2181430D01*
X2197300Y2444620D01*
X2205240Y2428740D01*
Y2412870D01*
X2197300Y2396990D01*
X2181430Y2389050D01*
X2157610D01*
X2141740Y2396990D01*
X2078240Y2412870D02*
X2070300Y2396990D01*
X2054430Y2389050D01*
X2038550D01*
X2022680Y2396990D01*
X2014740Y2412870D01*
Y2428740D01*
X2022680Y2444620D01*
X2038550Y2452550D01*
X2054430D01*
X2070300Y2444620D01*
X2078240Y2428740D01*
Y2412870D01*
X1951240Y2452550D02*
Y2365240D01*
Y2412870D02*
X1943300Y2396990D01*
X1927430Y2389050D01*
X1911550D01*
X1895680Y2396990D01*
X1887740Y2412870D01*
Y2428740D01*
X1895680Y2444620D01*
X1911550Y2452550D01*
X1927430D01*
X1943300Y2444620D01*
X1951240Y2428740D01*
Y2412870D01*
X1824240Y2452550D02*
X1816300Y2420800D01*
X1800430Y2404930D01*
X1784550D01*
X1768680Y2420800D01*
X1760740Y2452550D01*
X1768680Y2420800D02*
X1776610Y2389050D01*
X1784550Y2373180D01*
X1800430Y2365240D01*
X1816300Y2373180D01*
X2800550Y2539050D02*
Y2634300D01*
X2840240D02*
X2760860D01*
X2713240Y2594620D02*
X2697360Y2602550D01*
X2673550D01*
X2657680Y2594620D01*
X2649740Y2578740D01*
Y2554930D01*
X2657680Y2546990D01*
X2673550Y2539050D01*
X2689430D01*
X2705300Y2546990D01*
X2713240Y2554930D01*
Y2562870D01*
X2705300Y2570800D01*
X2689430Y2578740D01*
X2673550D01*
X2657680Y2570800D01*
X2649740Y2562870D01*
Y2554930D02*
Y2539050D01*
X2586240D02*
Y2634300D01*
Y2570800D02*
X2562430D01*
X2522740Y2602550D01*
X2562430Y2570800D02*
X2522740Y2539050D01*
X2395740Y2546990D02*
X2403680Y2539050D01*
X2419550D01*
X2435430D01*
X2451300Y2546990D01*
X2459240Y2562870D01*
Y2586680D01*
X2451300Y2594620D01*
X2435430Y2602550D01*
X2419550D01*
X2403680Y2594620D01*
X2395740Y2586680D01*
Y2578740D01*
X2403680Y2570800D01*
X2419550Y2562870D01*
X2435430D01*
X2451300Y2570800D01*
X2459240Y2578740D01*
X2332240Y2562870D02*
X2324300Y2546990D01*
X2308430Y2539050D01*
X2292550D01*
X2276680Y2546990D01*
X2268740Y2562870D01*
Y2578740D01*
X2276680Y2594620D01*
X2292550Y2602550D01*
X2308430D01*
X2324300Y2594620D01*
X2332240Y2578740D01*
Y2562870D01*
X2149680Y2586680D02*
X2133800Y2578740D01*
X2125860Y2562870D01*
X2133800Y2546990D01*
X2149680Y2539050D01*
X2205240D01*
Y2634300D01*
X2149680D01*
X2133800Y2626370D01*
X2125860Y2610490D01*
X2133800Y2594620D01*
X2149680Y2586680D01*
X2205240D01*
X2078240Y2594620D02*
X2062360Y2602550D01*
X2038550D01*
X2022680Y2594620D01*
X2014740Y2578740D01*
Y2554930D01*
X2022680Y2546990D01*
X2038550Y2539050D01*
X2054430D01*
X2070300Y2546990D01*
X2078240Y2554930D01*
Y2562870D01*
X2070300Y2570800D01*
X2054430Y2578740D01*
X2038550D01*
X2022680Y2570800D01*
X2014740Y2562870D01*
Y2554930D02*
Y2539050D01*
X1951240Y2546990D02*
X1935360Y2539050D01*
X1903610D01*
X1887740Y2546990D01*
Y2562870D01*
X1903610Y2570800D01*
X1935360D01*
X1951240Y2578740D01*
Y2594620D01*
X1935360Y2602550D01*
X1903610D01*
X1887740Y2594620D01*
X1760740Y2546990D02*
X1768680Y2539050D01*
X1784550D01*
X1800430D01*
X1816300Y2546990D01*
X1824240Y2562870D01*
Y2586680D01*
X1816300Y2594620D01*
X1800430Y2602550D01*
X1784550D01*
X1768680Y2594620D01*
X1760740Y2586680D01*
Y2578740D01*
X1768680Y2570800D01*
X1784550Y2562870D01*
X1800430D01*
X1816300Y2570800D01*
X1824240Y2578740D01*
X2840240Y2737870D02*
X2832300Y2721990D01*
X2816430Y2714050D01*
X2784680D01*
X2768800Y2721990D01*
X2760860Y2737870D01*
X2768800Y2753740D01*
X2784680Y2761680D01*
X2816430D01*
X2832300Y2769620D01*
X2840240Y2785490D01*
X2832300Y2801370D01*
X2816430Y2809300D01*
X2784680D01*
X2768800Y2801370D01*
X2760860Y2785490D01*
X2700010Y2777550D02*
X2662970D01*
X2681490Y2793430D02*
Y2721990D01*
X2673550Y2714050D01*
X2665610D01*
X2657680Y2721990D01*
X2586240Y2769620D02*
X2570360Y2777550D01*
X2546550D01*
X2530680Y2769620D01*
X2522740Y2753740D01*
Y2729930D01*
X2530680Y2721990D01*
X2546550Y2714050D01*
X2562430D01*
X2578300Y2721990D01*
X2586240Y2729930D01*
Y2737870D01*
X2578300Y2745800D01*
X2562430Y2753740D01*
X2546550D01*
X2530680Y2745800D01*
X2522740Y2737870D01*
Y2729930D02*
Y2714050D01*
X2395740Y2769620D02*
X2411610Y2777550D01*
X2435430D01*
X2451300Y2769620D01*
X2459240Y2753740D01*
Y2737870D01*
X2451300Y2721990D01*
X2435430Y2714050D01*
X2411610D01*
X2395740Y2721990D01*
X2332240Y2714050D02*
Y2809300D01*
Y2745800D02*
X2308430D01*
X2268740Y2777550D01*
X2308430Y2745800D02*
X2268740Y2714050D01*
X2205240Y2745800D02*
X2141740D01*
X2014740Y2769620D02*
X2030610Y2777550D01*
X2054430D01*
X2070300Y2769620D01*
X2078240Y2753740D01*
Y2737870D01*
X2070300Y2721990D01*
X2054430Y2714050D01*
X2030610D01*
X2014740Y2721990D01*
X1951240Y2714050D02*
Y2809300D01*
Y2753740D02*
X1943300Y2769620D01*
X1927430Y2777550D01*
X1911550D01*
X1895680Y2769620D01*
X1887740Y2753740D01*
Y2714050D01*
X1824240Y2769620D02*
X1808360Y2777550D01*
X1784550D01*
X1768680Y2769620D01*
X1760740Y2753740D01*
Y2729930D01*
X1768680Y2721990D01*
X1784550Y2714050D01*
X1800430D01*
X1816300Y2721990D01*
X1824240Y2729930D01*
Y2737870D01*
X1816300Y2745800D01*
X1800430Y2753740D01*
X1784550D01*
X1768680Y2745800D01*
X1760740Y2737870D01*
Y2729930D02*
Y2714050D01*
X1697240D02*
Y2777550D01*
Y2753740D02*
X1689300Y2769620D01*
X1673430Y2777550D01*
X1657550D01*
X1641680Y2769620D01*
X1633740Y2753740D01*
Y2714050D01*
X0Y0D02*
M02*
