G04 DesignSpark PCB Gerber Version 11.0 Build 5877*
%FSLAX35Y35*%
%MOMM*%
%ADD11C,0.12700*%
X0Y0D02*
D02*
D11*
X683490Y1842240D02*
X1318490D01*
Y1588240D01*
X619990D01*
Y1778740D01*
X683490Y1842240D01*
Y2142240D02*
X1318490D01*
Y1888240D01*
X619990D01*
Y2078740D01*
X683490Y2142240D01*
X690240Y895240D02*
X535240Y740240D01*
Y440240D01*
X690240Y285240D01*
X990240D01*
X1145240Y440240D01*
Y740240D01*
X990240Y895240D01*
X690240D01*
X959680Y1090240D02*
Y1153740D01*
X991430Y1121990D02*
X927930D01*
X1092240Y1265240D02*
G75*
G02*
X838240Y1011240I-254000J0D01*
G01*
G75*
G02*
X584240Y1265240I0J254000D01*
G01*
G75*
G02*
X838240Y1519240I254000J0D01*
G01*
G75*
G02*
X1092240Y1265240I0J-254000D01*
G01*
X1155740Y1019180D02*
X1092240D01*
X1123990Y1050930D02*
Y987430D01*
X1409680Y2826740D02*
X1385860D01*
Y2834680D01*
X1393800Y2850550D01*
X1401740Y2858490D01*
X1417610Y2866430D01*
X1433490D01*
X1449360Y2858490D01*
X1457300Y2850550D01*
X1465240Y2834680D01*
Y2802930D01*
X1457300Y2787050D01*
X1449360Y2779110D01*
X1433490Y2771180D01*
X1417610D01*
X1401740Y2779110D01*
X1393800Y2787050D01*
X1385860Y2802930D01*
X1338240Y2866430D02*
Y2802930D01*
Y2826740D02*
X1330300Y2810860D01*
X1314430Y2802930D01*
X1298550D01*
X1282680Y2810860D01*
X1211240Y2842610D02*
X1203300Y2858490D01*
X1187430Y2866430D01*
X1171550D01*
X1155680Y2858490D01*
X1147740Y2842610D01*
Y2826740D01*
X1155680Y2810860D01*
X1171550Y2802930D01*
X1187430D01*
X1203300Y2810860D01*
X1211240Y2826740D01*
Y2842610D01*
X1084240Y2802930D02*
X1052490Y2866430D01*
X1020740Y2802930D01*
X893740Y2858490D02*
X901680Y2866430D01*
X917550D01*
X933430D01*
X949300Y2858490D01*
X957240Y2842610D01*
Y2818800D01*
X949300Y2810860D01*
X933430Y2802930D01*
X917550D01*
X901680Y2810860D01*
X893740Y2818800D01*
Y2826740D01*
X901680Y2834680D01*
X917550Y2842610D01*
X933430D01*
X949300Y2834680D01*
X957240Y2826740D01*
X830240Y2834680D02*
X766740D01*
X703240Y2771180D02*
Y2866430D01*
X623860D01*
X1450550Y1590240D02*
X1458490Y1598180D01*
X1466430Y1614050D01*
X1458490Y1629930D01*
X1450550Y1637870D01*
X1371180D01*
Y1653740D01*
Y1637870D02*
Y1606120D01*
X1466430Y1780740D02*
Y1717240D01*
X1410860Y1772800D01*
X1394990Y1780740D01*
X1379110Y1772800D01*
X1371180Y1756930D01*
Y1733120D01*
X1379110Y1717240D01*
X1450550Y1915240D02*
X1458490Y1923180D01*
X1466430Y1939050D01*
X1458490Y1954930D01*
X1450550Y1962870D01*
X1371180D01*
Y1978740D01*
Y1962870D02*
Y1931120D01*
X1466430Y2058120D02*
Y2089870D01*
Y2073990D02*
X1371180D01*
X1387050Y2058120D01*
X1515240Y1915240D02*
Y2715240D01*
X515240D01*
Y1815240D01*
X1415240D01*
X1515240Y1915240D01*
X1634680Y465240D02*
Y528740D01*
X1666430Y496990D02*
X1602930D01*
X1767240Y640240D02*
G75*
G02*
X1513240Y386240I-254000J0D01*
G01*
G75*
G02*
X1259240Y640240I0J254000D01*
G01*
G75*
G02*
X1513240Y894240I254000J0D01*
G01*
G75*
G02*
X1767240Y640240I0J-254000D01*
G01*
X1830740Y394180D02*
X1767240D01*
X1798990Y425930D02*
Y362430D01*
X2440240Y2245240D02*
X2285240Y2090240D01*
Y1790240D01*
X2440240Y1635240D01*
X2740240D01*
X2895240Y1790240D01*
Y2090240D01*
X2740240Y2245240D01*
X2440240D01*
X0Y0D02*
M02*
