%TF.GenerationSoftware,KiCad,Pcbnew,(6.0.0-0)*%
%TF.CreationDate,2023-05-11T11:11:22+09:00*%
%TF.ProjectId,Stack-chan_Takao_Base_v12,53746163-6b2d-4636-9861-6e5f54616b61,rev?*%
%TF.SameCoordinates,Original*%
%TF.FileFunction,Copper,L1,Top*%
%TF.FilePolarity,Positive*%
%FSLAX46Y46*%
G04 Gerber Fmt 4.6, Leading zero omitted, Abs format (unit mm)*
G04 Created by KiCad (PCBNEW (6.0.0-0)) date 2023-05-11 11:11:22*
%MOMM*%
%LPD*%
G01*
G04 APERTURE LIST*
G04 Aperture macros list*
%AMRoundRect*
0 Rectangle with rounded corners*
0 $1 Rounding radius*
0 $2 $3 $4 $5 $6 $7 $8 $9 X,Y pos of 4 corners*
0 Add a 4 corners polygon primitive as box body*
4,1,4,$2,$3,$4,$5,$6,$7,$8,$9,$2,$3,0*
0 Add four circle primitives for the rounded corners*
1,1,$1+$1,$2,$3*
1,1,$1+$1,$4,$5*
1,1,$1+$1,$6,$7*
1,1,$1+$1,$8,$9*
0 Add four rect primitives between the rounded corners*
20,1,$1+$1,$2,$3,$4,$5,0*
20,1,$1+$1,$4,$5,$6,$7,0*
20,1,$1+$1,$6,$7,$8,$9,0*
20,1,$1+$1,$8,$9,$2,$3,0*%
G04 Aperture macros list end*
%TA.AperFunction,ComponentPad*%
%ADD10R,1.270000X1.270000*%
%TD*%
%TA.AperFunction,ComponentPad*%
%ADD11C,1.270000*%
%TD*%
%TA.AperFunction,SMDPad,CuDef*%
%ADD12RoundRect,0.250000X0.325000X0.650000X-0.325000X0.650000X-0.325000X-0.650000X0.325000X-0.650000X0*%
%TD*%
%TA.AperFunction,ComponentPad*%
%ADD13R,1.700000X1.700000*%
%TD*%
%TA.AperFunction,ComponentPad*%
%ADD14O,1.700000X1.700000*%
%TD*%
%TA.AperFunction,SMDPad,CuDef*%
%ADD15RoundRect,0.200000X-0.200000X-0.275000X0.200000X-0.275000X0.200000X0.275000X-0.200000X0.275000X0*%
%TD*%
%TA.AperFunction,ComponentPad*%
%ADD16R,1.600000X1.600000*%
%TD*%
%TA.AperFunction,ComponentPad*%
%ADD17C,1.600000*%
%TD*%
%TA.AperFunction,ComponentPad*%
%ADD18C,1.400000*%
%TD*%
%TA.AperFunction,ComponentPad*%
%ADD19O,1.400000X1.400000*%
%TD*%
%TA.AperFunction,ComponentPad*%
%ADD20C,1.000000*%
%TD*%
%TA.AperFunction,ComponentPad*%
%ADD21O,0.800000X1.500000*%
%TD*%
%TA.AperFunction,ViaPad*%
%ADD22C,0.600000*%
%TD*%
%TA.AperFunction,Conductor*%
%ADD23C,1.200000*%
%TD*%
%TA.AperFunction,Conductor*%
%ADD24C,0.400000*%
%TD*%
%TA.AperFunction,Conductor*%
%ADD25C,0.200000*%
%TD*%
G04 APERTURE END LIST*
D10*
%TO.P,CN2,1,1*%
%TO.N,/SV1*%
X8500000Y-3250000D03*
D11*
%TO.P,CN2,2,2*%
%TO.N,/SV2*%
X6500000Y-3250000D03*
%TO.P,CN2,3,3*%
%TO.N,+5V*%
X4500000Y-3250000D03*
%TO.P,CN2,4,4*%
%TO.N,GND*%
X2500000Y-3250000D03*
%TD*%
D12*
%TO.P,C3,1*%
%TO.N,+5V*%
X11975000Y-21000000D03*
%TO.P,C3,2*%
%TO.N,GND*%
X9025000Y-21000000D03*
%TD*%
D13*
%TO.P,J1,1,Pin_1*%
%TO.N,GND*%
X2540000Y-10160000D03*
D14*
%TO.P,J1,2,Pin_2*%
%TO.N,+5V*%
X5080000Y-10160000D03*
%TO.P,J1,3,Pin_3*%
%TO.N,/SV1*%
X7620000Y-10160000D03*
%TD*%
D15*
%TO.P,R2,1*%
%TO.N,Net-(R2-Pad1)*%
X18675000Y-26000000D03*
%TO.P,R2,2*%
%TO.N,GND*%
X20325000Y-26000000D03*
%TD*%
D16*
%TO.P,C2,1*%
%TO.N,+5V*%
X4992380Y-16510000D03*
D17*
%TO.P,C2,2*%
%TO.N,GND*%
X2492380Y-16510000D03*
%TD*%
D18*
%TO.P,R3,1*%
%TO.N,Net-(R1-Pad1)*%
X15875000Y-21590000D03*
D19*
%TO.P,R3,2*%
%TO.N,GND*%
X23495000Y-21590000D03*
%TD*%
D18*
%TO.P,R4,1*%
%TO.N,Net-(R2-Pad1)*%
X15875000Y-23812500D03*
D19*
%TO.P,R4,2*%
%TO.N,GND*%
X23495000Y-23812500D03*
%TD*%
D12*
%TO.P,C4,1*%
%TO.N,+5V*%
X5285000Y-14400000D03*
%TO.P,C4,2*%
%TO.N,GND*%
X2335000Y-14400000D03*
%TD*%
D16*
%TO.P,C1,1*%
%TO.N,+5V*%
X11682380Y-23500000D03*
D17*
%TO.P,C1,2*%
%TO.N,GND*%
X9182380Y-23500000D03*
%TD*%
D15*
%TO.P,R1,1*%
%TO.N,Net-(R1-Pad1)*%
X18675000Y-23495000D03*
%TO.P,R1,2*%
%TO.N,GND*%
X20325000Y-23495000D03*
%TD*%
D13*
%TO.P,J2,1,Pin_1*%
%TO.N,GND*%
X2540000Y-7620000D03*
D14*
%TO.P,J2,2,Pin_2*%
%TO.N,+5V*%
X5080000Y-7620000D03*
%TO.P,J2,3,Pin_3*%
%TO.N,/SV2*%
X7620000Y-7620000D03*
%TD*%
D17*
%TO.P,SW1,1,A*%
%TO.N,Net-(SW1-Pad1)*%
X12000000Y-16500000D03*
%TO.P,SW1,2,B*%
%TO.N,+5V*%
X12000000Y-14000000D03*
%TO.P,SW1,3,C*%
X12000000Y-11500000D03*
%TD*%
D20*
%TO.P,CN1,A5,CC1*%
%TO.N,Net-(R2-Pad1)*%
X20600000Y-17000000D03*
%TO.P,CN1,A9,VBUS1*%
%TO.N,Net-(SW1-Pad1)*%
X21800000Y-17000000D03*
%TO.P,CN1,A12,GND1*%
%TO.N,GND*%
X23000000Y-17000000D03*
%TO.P,CN1,B5,CC2*%
%TO.N,Net-(R1-Pad1)*%
X19400000Y-17000000D03*
%TO.P,CN1,B9,VBUS2*%
%TO.N,Net-(SW1-Pad1)*%
X18200000Y-17000000D03*
%TO.P,CN1,B12,GND2*%
%TO.N,GND*%
X17000000Y-17000000D03*
D21*
%TO.P,CN1,FG,FG*%
X24325000Y-17270000D03*
X15675000Y-17270000D03*
%TD*%
D22*
%TO.N,/SV1*%
X11826390Y-7500000D03*
%TO.N,/SV2*%
X11027464Y-6722536D03*
%TD*%
D23*
%TO.N,+5V*%
X11975000Y-23207380D02*
X11682380Y-23500000D01*
D24*
X11682380Y-21292620D02*
X11682380Y-23500000D01*
D23*
X10250000Y-19000000D02*
X10250000Y-14000000D01*
X12000000Y-14000000D02*
X8750000Y-14000000D01*
X11975000Y-21000000D02*
X11975000Y-23207380D01*
X6250000Y-16500000D02*
X5250000Y-16500000D01*
X11975000Y-21000000D02*
X11975000Y-20725000D01*
X11975000Y-21000000D02*
X11975000Y-20475000D01*
X5080000Y-10160000D02*
X5080000Y-16420000D01*
X8750000Y-14000000D02*
X6250000Y-16500000D01*
D24*
X11975000Y-21000000D02*
X11682380Y-21292620D01*
D23*
X5080000Y-16420000D02*
X5000000Y-16500000D01*
X11975000Y-20725000D02*
X10250000Y-19000000D01*
X12000000Y-11500000D02*
X12000000Y-14000000D01*
%TO.N,GND*%
X13131402Y-25250000D02*
X14250000Y-24131402D01*
X14500000Y-5000000D02*
X14500000Y-16095000D01*
X15405000Y-17000000D02*
X16900489Y-17000000D01*
X14500000Y-16095000D02*
X15405000Y-17000000D01*
D25*
X23495000Y-21590000D02*
X23495000Y-17495000D01*
X23495000Y-23812500D02*
X23495000Y-21590000D01*
D23*
X6134511Y-18109511D02*
X9025000Y-21000000D01*
X9025000Y-23342620D02*
X9182380Y-23500000D01*
D25*
X20325000Y-23495000D02*
X20642500Y-23812500D01*
D23*
X3392869Y-18109511D02*
X6134511Y-18109511D01*
D25*
X20642500Y-23812500D02*
X23495000Y-23812500D01*
D23*
X3036486Y-1815489D02*
X11315489Y-1815489D01*
X9025000Y-20975000D02*
X9025000Y-21000000D01*
X9182380Y-24432380D02*
X10000000Y-25250000D01*
X9182380Y-23500000D02*
X9182380Y-24432380D01*
X11315489Y-1815489D02*
X14500000Y-5000000D01*
D25*
X23495000Y-17495000D02*
X23000000Y-17000000D01*
D23*
X2500000Y-2351975D02*
X3036486Y-1815489D01*
X9025000Y-21000000D02*
X9025000Y-23342620D01*
X14250000Y-18695000D02*
X15675000Y-17270000D01*
X10000000Y-25250000D02*
X13131402Y-25250000D01*
D25*
X20325000Y-26000000D02*
X20325000Y-23495000D01*
D23*
X2500000Y-3250000D02*
X2500000Y-2351975D01*
X14250000Y-24131402D02*
X14250000Y-18695000D01*
X2475000Y-7750000D02*
X2475000Y-17191642D01*
X2475000Y-17191642D02*
X3392869Y-18109511D01*
D25*
%TO.N,/SV1*%
X9590000Y-10160000D02*
X7620000Y-10160000D01*
X11826390Y-7923610D02*
X9590000Y-10160000D01*
X11826390Y-7500000D02*
X11826390Y-7923610D01*
%TO.N,/SV2*%
X11027464Y-6722536D02*
X8517464Y-6722536D01*
X8517464Y-6722536D02*
X7620000Y-7620000D01*
%TO.N,Net-(R2-Pad1)*%
X18062500Y-26000000D02*
X15875000Y-23812500D01*
X18675000Y-26000000D02*
X18062500Y-26000000D01*
%TO.N,Net-(R1-Pad1)*%
X18675000Y-23495000D02*
X17780000Y-23495000D01*
X17780000Y-23495000D02*
X15875000Y-21590000D01*
%TD*%
%TA.AperFunction,Conductor*%
%TO.N,GND*%
G36*
X24434121Y-528002D02*
G01*
X24480614Y-581658D01*
X24492000Y-634000D01*
X24492000Y-20574441D01*
X24471998Y-20642562D01*
X24418342Y-20689055D01*
X24348068Y-20699159D01*
X24283488Y-20669665D01*
X24279435Y-20665891D01*
X24269942Y-20657925D01*
X24105811Y-20542998D01*
X24096323Y-20537521D01*
X23914727Y-20452842D01*
X23904423Y-20449092D01*
X23766497Y-20412134D01*
X23752401Y-20412470D01*
X23749000Y-20420412D01*
X23749000Y-24976939D01*
X23752973Y-24990470D01*
X23761522Y-24991699D01*
X23904423Y-24953408D01*
X23914727Y-24949658D01*
X24096323Y-24864979D01*
X24105811Y-24859502D01*
X24269942Y-24744575D01*
X24282553Y-24733992D01*
X24283639Y-24735287D01*
X24339217Y-24704938D01*
X24410032Y-24710003D01*
X24466868Y-24752550D01*
X24491679Y-24819070D01*
X24492000Y-24828059D01*
X24492000Y-26366000D01*
X24471998Y-26434121D01*
X24418342Y-26480614D01*
X24366000Y-26492000D01*
X21356368Y-26492000D01*
X21288247Y-26471998D01*
X21241754Y-26418342D01*
X21230897Y-26354468D01*
X21232735Y-26334474D01*
X21233000Y-26328691D01*
X21233000Y-26272115D01*
X21228525Y-26256876D01*
X21227135Y-26255671D01*
X21219452Y-26254000D01*
X20197000Y-26254000D01*
X20128879Y-26233998D01*
X20082386Y-26180342D01*
X20071000Y-26128000D01*
X20071000Y-25727885D01*
X20579000Y-25727885D01*
X20583475Y-25743124D01*
X20584865Y-25744329D01*
X20592548Y-25746000D01*
X21214884Y-25746000D01*
X21230123Y-25741525D01*
X21231328Y-25740135D01*
X21232999Y-25732452D01*
X21232999Y-25671295D01*
X21232736Y-25665546D01*
X21226868Y-25601685D01*
X21224257Y-25588649D01*
X21177285Y-25438757D01*
X21171079Y-25425012D01*
X21090176Y-25291426D01*
X21080869Y-25279557D01*
X20970443Y-25169131D01*
X20958574Y-25159824D01*
X20824988Y-25078921D01*
X20811243Y-25072715D01*
X20661356Y-25025744D01*
X20648306Y-25023131D01*
X20593414Y-25018087D01*
X20581876Y-25021475D01*
X20580671Y-25022865D01*
X20579000Y-25030548D01*
X20579000Y-25727885D01*
X20071000Y-25727885D01*
X20071000Y-25035116D01*
X20066525Y-25019877D01*
X20065135Y-25018672D01*
X20060706Y-25017709D01*
X20001685Y-25023132D01*
X19988649Y-25025743D01*
X19838757Y-25072715D01*
X19825012Y-25078921D01*
X19691426Y-25159824D01*
X19679557Y-25169131D01*
X19589449Y-25259239D01*
X19527137Y-25293265D01*
X19456322Y-25288200D01*
X19411259Y-25259239D01*
X19315381Y-25163361D01*
X19168699Y-25074528D01*
X19161452Y-25072257D01*
X19161450Y-25072256D01*
X19095164Y-25051483D01*
X19005062Y-25023247D01*
X18931635Y-25016500D01*
X18928737Y-25016500D01*
X18674335Y-25016501D01*
X18418366Y-25016501D01*
X18415508Y-25016764D01*
X18415499Y-25016764D01*
X18381619Y-25019877D01*
X18344938Y-25023247D01*
X18338560Y-25025246D01*
X18338559Y-25025246D01*
X18188550Y-25072256D01*
X18188548Y-25072257D01*
X18181301Y-25074528D01*
X18174801Y-25078464D01*
X18174802Y-25078464D01*
X18151383Y-25092647D01*
X18082754Y-25110827D01*
X18015190Y-25089017D01*
X17997016Y-25073967D01*
X17095031Y-24171982D01*
X17061005Y-24109670D01*
X17062419Y-24050276D01*
X17068262Y-24028470D01*
X17068262Y-24028468D01*
X17069686Y-24023155D01*
X17070166Y-24017669D01*
X17070167Y-24017663D01*
X17076541Y-23944818D01*
X17102404Y-23878700D01*
X17159908Y-23837060D01*
X17230795Y-23833120D01*
X17291156Y-23866705D01*
X17315685Y-23891234D01*
X17326552Y-23903625D01*
X17346013Y-23928987D01*
X17352563Y-23934013D01*
X17377921Y-23953471D01*
X17377937Y-23953485D01*
X17427305Y-23991366D01*
X17473124Y-24026524D01*
X17621149Y-24087838D01*
X17639782Y-24090291D01*
X17740115Y-24103500D01*
X17740116Y-24103500D01*
X17740126Y-24103501D01*
X17771811Y-24107672D01*
X17780000Y-24108750D01*
X17782646Y-24108402D01*
X17848282Y-24127674D01*
X17887937Y-24168401D01*
X17913361Y-24210381D01*
X18034619Y-24331639D01*
X18181301Y-24420472D01*
X18188548Y-24422743D01*
X18188550Y-24422744D01*
X18254836Y-24443517D01*
X18344938Y-24471753D01*
X18418365Y-24478500D01*
X18421263Y-24478500D01*
X18675665Y-24478499D01*
X18931634Y-24478499D01*
X18934492Y-24478236D01*
X18934501Y-24478236D01*
X18970004Y-24474974D01*
X19005062Y-24471753D01*
X19013030Y-24469256D01*
X19161450Y-24422744D01*
X19161452Y-24422743D01*
X19168699Y-24420472D01*
X19315381Y-24331639D01*
X19411259Y-24235761D01*
X19473571Y-24201735D01*
X19544386Y-24206800D01*
X19589449Y-24235761D01*
X19679557Y-24325869D01*
X19691426Y-24335176D01*
X19825012Y-24416079D01*
X19838757Y-24422285D01*
X19988644Y-24469256D01*
X20001694Y-24471869D01*
X20056586Y-24476913D01*
X20068124Y-24473525D01*
X20069329Y-24472135D01*
X20071000Y-24464452D01*
X20071000Y-24459884D01*
X20579000Y-24459884D01*
X20583475Y-24475123D01*
X20584865Y-24476328D01*
X20589294Y-24477291D01*
X20648315Y-24471868D01*
X20661351Y-24469257D01*
X20811243Y-24422285D01*
X20824988Y-24416079D01*
X20958574Y-24335176D01*
X20970443Y-24325869D01*
X21080869Y-24215443D01*
X21090176Y-24203574D01*
X21165608Y-24079022D01*
X22315801Y-24079022D01*
X22354092Y-24221923D01*
X22357842Y-24232227D01*
X22442521Y-24413823D01*
X22447998Y-24423311D01*
X22562925Y-24587442D01*
X22569981Y-24595850D01*
X22711650Y-24737519D01*
X22720058Y-24744575D01*
X22884189Y-24859502D01*
X22893677Y-24864979D01*
X23075273Y-24949658D01*
X23085577Y-24953408D01*
X23223503Y-24990366D01*
X23237599Y-24990030D01*
X23241000Y-24982088D01*
X23241000Y-24084615D01*
X23236525Y-24069376D01*
X23235135Y-24068171D01*
X23227452Y-24066500D01*
X22330561Y-24066500D01*
X22317030Y-24070473D01*
X22315801Y-24079022D01*
X21165608Y-24079022D01*
X21171079Y-24069988D01*
X21177285Y-24056243D01*
X21224256Y-23906356D01*
X21226869Y-23893306D01*
X21232734Y-23829479D01*
X21233000Y-23823691D01*
X21233000Y-23767115D01*
X21228525Y-23751876D01*
X21227135Y-23750671D01*
X21219452Y-23749000D01*
X20597115Y-23749000D01*
X20581876Y-23753475D01*
X20580671Y-23754865D01*
X20579000Y-23762548D01*
X20579000Y-24459884D01*
X20071000Y-24459884D01*
X20071000Y-23222885D01*
X20579000Y-23222885D01*
X20583475Y-23238124D01*
X20584865Y-23239329D01*
X20592548Y-23241000D01*
X21214884Y-23241000D01*
X21230123Y-23236525D01*
X21231328Y-23235135D01*
X21232999Y-23227452D01*
X21232999Y-23166295D01*
X21232736Y-23160546D01*
X21226868Y-23096685D01*
X21224257Y-23083649D01*
X21177285Y-22933757D01*
X21171079Y-22920012D01*
X21090176Y-22786426D01*
X21080869Y-22774557D01*
X20970443Y-22664131D01*
X20958574Y-22654824D01*
X20824988Y-22573921D01*
X20811243Y-22567715D01*
X20661356Y-22520744D01*
X20648306Y-22518131D01*
X20593414Y-22513087D01*
X20581876Y-22516475D01*
X20580671Y-22517865D01*
X20579000Y-22525548D01*
X20579000Y-23222885D01*
X20071000Y-23222885D01*
X20071000Y-22530116D01*
X20066525Y-22514877D01*
X20065135Y-22513672D01*
X20060706Y-22512709D01*
X20001685Y-22518132D01*
X19988649Y-22520743D01*
X19838757Y-22567715D01*
X19825012Y-22573921D01*
X19691426Y-22654824D01*
X19679557Y-22664131D01*
X19589449Y-22754239D01*
X19527137Y-22788265D01*
X19456322Y-22783200D01*
X19411259Y-22754239D01*
X19315381Y-22658361D01*
X19168699Y-22569528D01*
X19161452Y-22567257D01*
X19161450Y-22567256D01*
X19088758Y-22544476D01*
X19005062Y-22518247D01*
X18931635Y-22511500D01*
X18928737Y-22511500D01*
X18674335Y-22511501D01*
X18418366Y-22511501D01*
X18415508Y-22511764D01*
X18415499Y-22511764D01*
X18381619Y-22514877D01*
X18344938Y-22518247D01*
X18338560Y-22520246D01*
X18338559Y-22520246D01*
X18188550Y-22567256D01*
X18188548Y-22567257D01*
X18181301Y-22569528D01*
X18136649Y-22596570D01*
X18041116Y-22654426D01*
X18041114Y-22654427D01*
X18034619Y-22658361D01*
X18029249Y-22663731D01*
X18029244Y-22663735D01*
X18008359Y-22684620D01*
X17946047Y-22718646D01*
X17875232Y-22713581D01*
X17830169Y-22684620D01*
X17095031Y-21949482D01*
X17061005Y-21887170D01*
X17061735Y-21856522D01*
X22315801Y-21856522D01*
X22354092Y-21999423D01*
X22357842Y-22009727D01*
X22442521Y-22191323D01*
X22447998Y-22200811D01*
X22562925Y-22364942D01*
X22569981Y-22373350D01*
X22711650Y-22515019D01*
X22720058Y-22522075D01*
X22828543Y-22598037D01*
X22872871Y-22653494D01*
X22880180Y-22724114D01*
X22848149Y-22787474D01*
X22828543Y-22804463D01*
X22720058Y-22880425D01*
X22711650Y-22887481D01*
X22569981Y-23029150D01*
X22562925Y-23037558D01*
X22447998Y-23201689D01*
X22442521Y-23211177D01*
X22357842Y-23392773D01*
X22354092Y-23403077D01*
X22317134Y-23541003D01*
X22317470Y-23555099D01*
X22325412Y-23558500D01*
X23222885Y-23558500D01*
X23238124Y-23554025D01*
X23239329Y-23552635D01*
X23241000Y-23544952D01*
X23241000Y-21862115D01*
X23236525Y-21846876D01*
X23235135Y-21845671D01*
X23227452Y-21844000D01*
X22330561Y-21844000D01*
X22317030Y-21847973D01*
X22315801Y-21856522D01*
X17061735Y-21856522D01*
X17062419Y-21827776D01*
X17068262Y-21805970D01*
X17068262Y-21805968D01*
X17069686Y-21800655D01*
X17088116Y-21590000D01*
X17069686Y-21379345D01*
X17058072Y-21336000D01*
X17053384Y-21318503D01*
X22317134Y-21318503D01*
X22317470Y-21332599D01*
X22325412Y-21336000D01*
X23222885Y-21336000D01*
X23238124Y-21331525D01*
X23239329Y-21330135D01*
X23241000Y-21322452D01*
X23241000Y-20425561D01*
X23237027Y-20412030D01*
X23228478Y-20410801D01*
X23085577Y-20449092D01*
X23075273Y-20452842D01*
X22893677Y-20537521D01*
X22884189Y-20542998D01*
X22720058Y-20657925D01*
X22711650Y-20664981D01*
X22569981Y-20806650D01*
X22562925Y-20815058D01*
X22447998Y-20979189D01*
X22442521Y-20988677D01*
X22357842Y-21170273D01*
X22354092Y-21180577D01*
X22317134Y-21318503D01*
X17053384Y-21318503D01*
X17016379Y-21180400D01*
X17016378Y-21180398D01*
X17014956Y-21175090D01*
X16925589Y-20983442D01*
X16804301Y-20810224D01*
X16654776Y-20660699D01*
X16481558Y-20539411D01*
X16476580Y-20537090D01*
X16476577Y-20537088D01*
X16294892Y-20452367D01*
X16294891Y-20452366D01*
X16289910Y-20450044D01*
X16284602Y-20448622D01*
X16284600Y-20448621D01*
X16090970Y-20396738D01*
X16090968Y-20396738D01*
X16085655Y-20395314D01*
X15875000Y-20376884D01*
X15664345Y-20395314D01*
X15659032Y-20396738D01*
X15659030Y-20396738D01*
X15465400Y-20448621D01*
X15465398Y-20448622D01*
X15460090Y-20450044D01*
X15455109Y-20452366D01*
X15455108Y-20452367D01*
X15273423Y-20537088D01*
X15273420Y-20537090D01*
X15268442Y-20539411D01*
X15095224Y-20660699D01*
X14945699Y-20810224D01*
X14824411Y-20983442D01*
X14735044Y-21175090D01*
X14733622Y-21180398D01*
X14733621Y-21180400D01*
X14691928Y-21336000D01*
X14680314Y-21379345D01*
X14661884Y-21590000D01*
X14680314Y-21800655D01*
X14681738Y-21805968D01*
X14681738Y-21805970D01*
X14703496Y-21887170D01*
X14735044Y-22004910D01*
X14737366Y-22009891D01*
X14737367Y-22009892D01*
X14792522Y-22128171D01*
X14824411Y-22196558D01*
X14945699Y-22369776D01*
X15095224Y-22519301D01*
X15120268Y-22536837D01*
X15207671Y-22598037D01*
X15252000Y-22653494D01*
X15259309Y-22724113D01*
X15227279Y-22787474D01*
X15207671Y-22804463D01*
X15178450Y-22824923D01*
X15095224Y-22883199D01*
X14945699Y-23032724D01*
X14824411Y-23205942D01*
X14822090Y-23210920D01*
X14822088Y-23210923D01*
X14775124Y-23311638D01*
X14735044Y-23397590D01*
X14733622Y-23402898D01*
X14733621Y-23402900D01*
X14691928Y-23558500D01*
X14680314Y-23601845D01*
X14661884Y-23812500D01*
X14680314Y-24023155D01*
X14681738Y-24028468D01*
X14681738Y-24028470D01*
X14731922Y-24215757D01*
X14735044Y-24227410D01*
X14737366Y-24232391D01*
X14737367Y-24232392D01*
X14820335Y-24410316D01*
X14824411Y-24419058D01*
X14945699Y-24592276D01*
X15095224Y-24741801D01*
X15268442Y-24863089D01*
X15273420Y-24865410D01*
X15273423Y-24865412D01*
X15454096Y-24949661D01*
X15460090Y-24952456D01*
X15465398Y-24953878D01*
X15465400Y-24953879D01*
X15659030Y-25005762D01*
X15659032Y-25005762D01*
X15664345Y-25007186D01*
X15875000Y-25025616D01*
X16085655Y-25007186D01*
X16090968Y-25005762D01*
X16090970Y-25005762D01*
X16112776Y-24999919D01*
X16183753Y-25001609D01*
X16234482Y-25032531D01*
X17478856Y-26276905D01*
X17512882Y-26339217D01*
X17507817Y-26410032D01*
X17465270Y-26466868D01*
X17398750Y-26491679D01*
X17389761Y-26492000D01*
X634000Y-26492000D01*
X565879Y-26471998D01*
X519386Y-26418342D01*
X508000Y-26366000D01*
X508000Y-23632703D01*
X1390743Y-23632703D01*
X1391302Y-23636947D01*
X1391302Y-23636951D01*
X1398054Y-23688239D01*
X1428268Y-23917734D01*
X1429401Y-23921874D01*
X1429401Y-23921876D01*
X1438045Y-23953474D01*
X1504129Y-24195036D01*
X1505813Y-24198984D01*
X1601605Y-24423563D01*
X1616923Y-24459476D01*
X1685636Y-24574287D01*
X1734589Y-24656081D01*
X1764561Y-24706161D01*
X1944313Y-24930528D01*
X2038467Y-25019877D01*
X2134309Y-25110827D01*
X2152851Y-25128423D01*
X2386317Y-25296186D01*
X2390112Y-25298195D01*
X2390113Y-25298196D01*
X2411869Y-25309715D01*
X2640392Y-25430712D01*
X2910373Y-25529511D01*
X3191264Y-25590755D01*
X3219841Y-25593004D01*
X3414282Y-25608307D01*
X3414291Y-25608307D01*
X3416739Y-25608500D01*
X3572271Y-25608500D01*
X3574407Y-25608354D01*
X3574418Y-25608354D01*
X3782548Y-25594165D01*
X3782554Y-25594164D01*
X3786825Y-25593873D01*
X3791020Y-25593004D01*
X3791022Y-25593004D01*
X3927583Y-25564724D01*
X4068342Y-25535574D01*
X4339343Y-25439607D01*
X4594812Y-25307750D01*
X4598313Y-25305289D01*
X4598317Y-25305287D01*
X4792047Y-25169131D01*
X4830023Y-25142441D01*
X4955605Y-25025743D01*
X5037479Y-24949661D01*
X5037481Y-24949658D01*
X5040622Y-24946740D01*
X5222713Y-24724268D01*
X5307406Y-24586062D01*
X8460873Y-24586062D01*
X8470169Y-24598077D01*
X8521374Y-24633931D01*
X8530869Y-24639414D01*
X8728327Y-24731490D01*
X8738619Y-24735236D01*
X8949068Y-24791625D01*
X8959861Y-24793528D01*
X9176905Y-24812517D01*
X9187855Y-24812517D01*
X9404899Y-24793528D01*
X9415692Y-24791625D01*
X9626141Y-24735236D01*
X9636433Y-24731490D01*
X9833891Y-24639414D01*
X9843386Y-24633931D01*
X9895428Y-24597491D01*
X9903804Y-24587012D01*
X9896736Y-24573566D01*
X9195192Y-23872022D01*
X9181248Y-23864408D01*
X9179415Y-23864539D01*
X9172800Y-23868790D01*
X8467303Y-24574287D01*
X8460873Y-24586062D01*
X5307406Y-24586062D01*
X5372927Y-24479142D01*
X5379376Y-24464452D01*
X5486757Y-24219830D01*
X5488483Y-24215898D01*
X5491907Y-24203880D01*
X5566068Y-23943534D01*
X5567244Y-23939406D01*
X5607751Y-23654784D01*
X5607780Y-23649395D01*
X5608534Y-23505475D01*
X7869863Y-23505475D01*
X7888852Y-23722519D01*
X7890755Y-23733312D01*
X7947144Y-23943761D01*
X7950890Y-23954053D01*
X8042966Y-24151511D01*
X8048449Y-24161006D01*
X8084889Y-24213048D01*
X8095368Y-24221424D01*
X8108814Y-24214356D01*
X8810358Y-23512812D01*
X8817972Y-23498868D01*
X8817841Y-23497035D01*
X8813590Y-23490420D01*
X8108093Y-22784923D01*
X8096318Y-22778493D01*
X8084303Y-22787789D01*
X8048449Y-22838994D01*
X8042966Y-22848489D01*
X7950890Y-23045947D01*
X7947144Y-23056239D01*
X7890755Y-23266688D01*
X7888852Y-23277481D01*
X7869863Y-23494525D01*
X7869863Y-23505475D01*
X5608534Y-23505475D01*
X5609235Y-23371583D01*
X5609235Y-23371576D01*
X5609257Y-23367297D01*
X5601930Y-23311638D01*
X5583029Y-23168078D01*
X5571732Y-23082266D01*
X5495871Y-22804964D01*
X5433339Y-22658361D01*
X5384763Y-22544476D01*
X5384761Y-22544472D01*
X5383077Y-22540524D01*
X5289739Y-22384567D01*
X5237643Y-22297521D01*
X5237640Y-22297517D01*
X5235439Y-22293839D01*
X5055687Y-22069472D01*
X4929244Y-21949482D01*
X4850258Y-21874527D01*
X4850255Y-21874525D01*
X4847149Y-21871577D01*
X4613683Y-21703814D01*
X4601090Y-21697146D01*
X4600994Y-21697095D01*
X7942001Y-21697095D01*
X7942338Y-21703614D01*
X7952257Y-21799206D01*
X7955149Y-21812600D01*
X8006588Y-21966784D01*
X8012761Y-21979962D01*
X8098063Y-22117807D01*
X8107099Y-22129208D01*
X8221829Y-22243739D01*
X8233240Y-22252751D01*
X8371245Y-22337818D01*
X8384422Y-22343962D01*
X8384949Y-22344137D01*
X8385262Y-22344354D01*
X8391057Y-22347056D01*
X8390594Y-22348048D01*
X8443309Y-22384567D01*
X8456813Y-22405105D01*
X8468025Y-22426435D01*
X9169568Y-23127978D01*
X9183512Y-23135592D01*
X9185345Y-23135461D01*
X9191960Y-23131210D01*
X9897457Y-22425713D01*
X9903887Y-22413938D01*
X9894591Y-22401923D01*
X9885568Y-22395605D01*
X9841240Y-22340147D01*
X9833931Y-22269528D01*
X9868666Y-22203374D01*
X9943739Y-22128171D01*
X9952751Y-22116760D01*
X10037816Y-21978757D01*
X10043963Y-21965576D01*
X10095138Y-21811290D01*
X10098005Y-21797914D01*
X10107672Y-21703562D01*
X10108000Y-21697146D01*
X10108000Y-21272115D01*
X10103525Y-21256876D01*
X10102135Y-21255671D01*
X10094452Y-21254000D01*
X7960116Y-21254000D01*
X7944877Y-21258475D01*
X7943672Y-21259865D01*
X7942001Y-21267548D01*
X7942001Y-21697095D01*
X4600994Y-21697095D01*
X4568654Y-21679972D01*
X4359608Y-21569288D01*
X4089627Y-21470489D01*
X3808736Y-21409245D01*
X3777685Y-21406801D01*
X3585718Y-21391693D01*
X3585709Y-21391693D01*
X3583261Y-21391500D01*
X3427729Y-21391500D01*
X3425593Y-21391646D01*
X3425582Y-21391646D01*
X3217452Y-21405835D01*
X3217446Y-21405836D01*
X3213175Y-21406127D01*
X3208980Y-21406996D01*
X3208978Y-21406996D01*
X3072416Y-21435277D01*
X2931658Y-21464426D01*
X2660657Y-21560393D01*
X2405188Y-21692250D01*
X2401687Y-21694711D01*
X2401683Y-21694713D01*
X2388734Y-21703814D01*
X2169977Y-21857559D01*
X2154892Y-21871577D01*
X2011409Y-22004910D01*
X1959378Y-22053260D01*
X1777287Y-22275732D01*
X1699957Y-22401923D01*
X1632813Y-22511492D01*
X1627073Y-22520858D01*
X1625347Y-22524791D01*
X1625346Y-22524792D01*
X1547886Y-22701250D01*
X1511517Y-22784102D01*
X1432756Y-23060594D01*
X1392249Y-23345216D01*
X1392227Y-23349505D01*
X1392226Y-23349512D01*
X1390765Y-23628417D01*
X1390743Y-23632703D01*
X508000Y-23632703D01*
X508000Y-20727885D01*
X7942000Y-20727885D01*
X7946475Y-20743124D01*
X7947865Y-20744329D01*
X7955548Y-20746000D01*
X8752885Y-20746000D01*
X8768124Y-20741525D01*
X8769329Y-20740135D01*
X8771000Y-20732452D01*
X8771000Y-19610116D01*
X8766525Y-19594877D01*
X8765135Y-19593672D01*
X8757452Y-19592001D01*
X8652905Y-19592001D01*
X8646386Y-19592338D01*
X8550794Y-19602257D01*
X8537400Y-19605149D01*
X8383216Y-19656588D01*
X8370038Y-19662761D01*
X8232193Y-19748063D01*
X8220792Y-19757099D01*
X8106261Y-19871829D01*
X8097249Y-19883240D01*
X8012184Y-20021243D01*
X8006037Y-20034424D01*
X7954862Y-20188710D01*
X7951995Y-20202086D01*
X7942328Y-20296438D01*
X7942000Y-20302855D01*
X7942000Y-20727885D01*
X508000Y-20727885D01*
X508000Y-17596062D01*
X1770873Y-17596062D01*
X1780169Y-17608077D01*
X1831374Y-17643931D01*
X1840869Y-17649414D01*
X2038327Y-17741490D01*
X2048619Y-17745236D01*
X2259068Y-17801625D01*
X2269861Y-17803528D01*
X2486905Y-17822517D01*
X2497855Y-17822517D01*
X2714899Y-17803528D01*
X2725692Y-17801625D01*
X2936141Y-17745236D01*
X2946433Y-17741490D01*
X3143891Y-17649414D01*
X3153386Y-17643931D01*
X3205428Y-17607491D01*
X3213804Y-17597012D01*
X3206736Y-17583566D01*
X2505192Y-16882022D01*
X2491248Y-16874408D01*
X2489415Y-16874539D01*
X2482800Y-16878790D01*
X1777303Y-17584287D01*
X1770873Y-17596062D01*
X508000Y-17596062D01*
X508000Y-16515475D01*
X1179863Y-16515475D01*
X1198852Y-16732519D01*
X1200755Y-16743312D01*
X1257144Y-16953761D01*
X1260890Y-16964053D01*
X1352966Y-17161511D01*
X1358449Y-17171006D01*
X1394889Y-17223048D01*
X1405368Y-17231424D01*
X1418814Y-17224356D01*
X3187977Y-15455193D01*
X3250289Y-15421167D01*
X3298862Y-15424641D01*
X3315328Y-15423463D01*
X3324484Y-15416609D01*
X3347816Y-15378757D01*
X3353963Y-15365576D01*
X3405138Y-15211290D01*
X3408005Y-15197914D01*
X3417672Y-15103562D01*
X3418000Y-15097145D01*
X3418000Y-14672115D01*
X3413525Y-14656876D01*
X3412135Y-14655671D01*
X3404452Y-14654000D01*
X1270116Y-14654000D01*
X1254877Y-14658475D01*
X1253672Y-14659865D01*
X1252001Y-14667548D01*
X1252001Y-15097095D01*
X1252338Y-15103614D01*
X1262257Y-15199206D01*
X1265149Y-15212600D01*
X1316588Y-15366784D01*
X1322761Y-15379962D01*
X1408063Y-15517807D01*
X1417099Y-15529208D01*
X1439481Y-15551551D01*
X1473560Y-15613833D01*
X1468557Y-15684654D01*
X1453676Y-15712995D01*
X1358449Y-15848993D01*
X1352966Y-15858489D01*
X1260890Y-16055947D01*
X1257144Y-16066239D01*
X1200755Y-16276688D01*
X1198852Y-16287481D01*
X1179863Y-16504525D01*
X1179863Y-16515475D01*
X508000Y-16515475D01*
X508000Y-14127885D01*
X1252000Y-14127885D01*
X1256475Y-14143124D01*
X1257865Y-14144329D01*
X1265548Y-14146000D01*
X2062885Y-14146000D01*
X2078124Y-14141525D01*
X2079329Y-14140135D01*
X2081000Y-14132452D01*
X2081000Y-14127885D01*
X2589000Y-14127885D01*
X2593475Y-14143124D01*
X2594865Y-14144329D01*
X2602548Y-14146000D01*
X3399884Y-14146000D01*
X3415123Y-14141525D01*
X3416328Y-14140135D01*
X3417999Y-14132452D01*
X3417999Y-13702905D01*
X3417662Y-13696386D01*
X3407743Y-13600794D01*
X3404851Y-13587400D01*
X3353412Y-13433216D01*
X3347239Y-13420038D01*
X3261937Y-13282193D01*
X3252901Y-13270792D01*
X3138171Y-13156261D01*
X3126760Y-13147249D01*
X2988757Y-13062184D01*
X2975576Y-13056037D01*
X2821290Y-13004862D01*
X2807914Y-13001995D01*
X2713562Y-12992328D01*
X2707145Y-12992000D01*
X2607115Y-12992000D01*
X2591876Y-12996475D01*
X2590671Y-12997865D01*
X2589000Y-13005548D01*
X2589000Y-14127885D01*
X2081000Y-14127885D01*
X2081000Y-13010116D01*
X2076525Y-12994877D01*
X2075135Y-12993672D01*
X2067452Y-12992001D01*
X1962905Y-12992001D01*
X1956386Y-12992338D01*
X1860794Y-13002257D01*
X1847400Y-13005149D01*
X1693216Y-13056588D01*
X1680038Y-13062761D01*
X1542193Y-13148063D01*
X1530792Y-13157099D01*
X1416261Y-13271829D01*
X1407249Y-13283240D01*
X1322184Y-13421243D01*
X1316037Y-13434424D01*
X1264862Y-13588710D01*
X1261995Y-13602086D01*
X1252328Y-13696438D01*
X1252000Y-13702855D01*
X1252000Y-14127885D01*
X508000Y-14127885D01*
X508000Y-11054669D01*
X1182001Y-11054669D01*
X1182371Y-11061490D01*
X1187895Y-11112352D01*
X1191521Y-11127604D01*
X1236676Y-11248054D01*
X1245214Y-11263649D01*
X1321715Y-11365724D01*
X1334276Y-11378285D01*
X1436351Y-11454786D01*
X1451946Y-11463324D01*
X1572394Y-11508478D01*
X1587649Y-11512105D01*
X1638514Y-11517631D01*
X1645328Y-11518000D01*
X2267885Y-11518000D01*
X2283124Y-11513525D01*
X2284329Y-11512135D01*
X2286000Y-11504452D01*
X2286000Y-11499884D01*
X2794000Y-11499884D01*
X2798475Y-11515123D01*
X2799865Y-11516328D01*
X2807548Y-11517999D01*
X3434669Y-11517999D01*
X3441490Y-11517629D01*
X3492352Y-11512105D01*
X3507604Y-11508479D01*
X3628054Y-11463324D01*
X3643649Y-11454786D01*
X3745724Y-11378285D01*
X3756405Y-11367604D01*
X3818717Y-11333578D01*
X3889532Y-11338643D01*
X3946368Y-11381190D01*
X3971179Y-11447710D01*
X3971500Y-11456699D01*
X3971500Y-15177003D01*
X3951498Y-15245124D01*
X3921065Y-15277829D01*
X3829119Y-15346739D01*
X3741765Y-15463295D01*
X3690635Y-15599684D01*
X3683880Y-15661866D01*
X3683880Y-15665185D01*
X3660227Y-15732110D01*
X3614224Y-15767804D01*
X3615239Y-15769734D01*
X3604380Y-15775442D01*
X3604135Y-15775632D01*
X3603977Y-15775653D01*
X3565946Y-15795644D01*
X2864402Y-16497188D01*
X2856788Y-16511132D01*
X2856919Y-16512965D01*
X2861170Y-16519580D01*
X3566667Y-17225077D01*
X3608409Y-17247871D01*
X3618409Y-17250047D01*
X3668607Y-17300253D01*
X3683831Y-17353814D01*
X3683880Y-17354719D01*
X3683880Y-17358134D01*
X3684249Y-17361530D01*
X3684249Y-17361532D01*
X3685500Y-17373050D01*
X3690635Y-17420316D01*
X3741765Y-17556705D01*
X3829119Y-17673261D01*
X3945675Y-17760615D01*
X4082064Y-17811745D01*
X4144246Y-17818500D01*
X5840514Y-17818500D01*
X5902696Y-17811745D01*
X6039085Y-17760615D01*
X6155641Y-17673261D01*
X6161023Y-17666080D01*
X6166378Y-17658935D01*
X6223237Y-17616420D01*
X6267204Y-17608500D01*
X6302846Y-17608500D01*
X6305825Y-17608216D01*
X6305843Y-17608215D01*
X6310222Y-17607797D01*
X6319436Y-17607257D01*
X6351088Y-17606566D01*
X6373920Y-17606068D01*
X6373921Y-17606068D01*
X6379917Y-17605937D01*
X6385775Y-17604676D01*
X6385782Y-17604675D01*
X6412674Y-17598885D01*
X6427226Y-17596633D01*
X6440607Y-17595356D01*
X6460566Y-17593452D01*
X6466327Y-17591762D01*
X6518613Y-17576424D01*
X6527561Y-17574152D01*
X6580836Y-17562682D01*
X6580847Y-17562679D01*
X6586702Y-17561418D01*
X6592218Y-17559071D01*
X6592221Y-17559070D01*
X6617532Y-17548300D01*
X6631381Y-17543341D01*
X6663534Y-17533908D01*
X6717326Y-17506203D01*
X6725660Y-17502290D01*
X6781336Y-17478600D01*
X6809130Y-17459888D01*
X6821797Y-17452397D01*
X6846246Y-17439806D01*
X6846253Y-17439802D01*
X6851580Y-17437058D01*
X6877700Y-17416541D01*
X6899143Y-17399697D01*
X6906609Y-17394263D01*
X6953033Y-17363009D01*
X6953048Y-17362998D01*
X6956799Y-17360472D01*
X6960924Y-17356731D01*
X6981529Y-17336126D01*
X6992791Y-17326135D01*
X7013203Y-17310102D01*
X7013208Y-17310098D01*
X7017920Y-17306396D01*
X7021852Y-17301865D01*
X7021857Y-17301860D01*
X7058716Y-17259384D01*
X7064786Y-17252869D01*
X8926405Y-15391251D01*
X8988717Y-15357225D01*
X9059533Y-15362290D01*
X9116368Y-15404837D01*
X9141179Y-15471357D01*
X9141500Y-15480346D01*
X9141500Y-18895743D01*
X9140589Y-18906532D01*
X9140893Y-18906554D01*
X9140454Y-18912528D01*
X9139448Y-18918446D01*
X9139579Y-18924447D01*
X9141470Y-19011099D01*
X9141500Y-19013848D01*
X9141500Y-19052846D01*
X9141784Y-19055825D01*
X9141785Y-19055843D01*
X9142203Y-19060222D01*
X9142743Y-19069436D01*
X9144063Y-19129917D01*
X9145324Y-19135775D01*
X9145325Y-19135782D01*
X9151115Y-19162674D01*
X9153367Y-19177226D01*
X9156548Y-19210566D01*
X9158238Y-19216326D01*
X9158238Y-19216327D01*
X9173576Y-19268613D01*
X9175848Y-19277561D01*
X9187318Y-19330836D01*
X9187321Y-19330847D01*
X9188582Y-19336702D01*
X9190929Y-19342218D01*
X9190930Y-19342221D01*
X9201700Y-19367532D01*
X9206659Y-19381381D01*
X9216092Y-19413534D01*
X9243797Y-19467326D01*
X9247713Y-19475667D01*
X9271400Y-19531336D01*
X9269563Y-19532118D01*
X9280735Y-19594202D01*
X9279000Y-19604894D01*
X9279000Y-20727885D01*
X9283475Y-20743124D01*
X9284865Y-20744329D01*
X9292548Y-20746000D01*
X10089884Y-20746000D01*
X10105123Y-20741525D01*
X10106328Y-20740135D01*
X10107999Y-20732452D01*
X10107999Y-20729844D01*
X10110188Y-20722389D01*
X10110878Y-20719217D01*
X10111105Y-20719266D01*
X10128001Y-20661723D01*
X10181657Y-20615230D01*
X10251931Y-20605126D01*
X10316511Y-20634620D01*
X10323094Y-20640749D01*
X10829595Y-21147250D01*
X10863621Y-21209562D01*
X10866500Y-21236345D01*
X10866500Y-22077261D01*
X10846498Y-22145382D01*
X10792842Y-22191875D01*
X10775293Y-22197904D01*
X10772064Y-22198255D01*
X10635675Y-22249385D01*
X10519119Y-22336739D01*
X10431765Y-22453295D01*
X10380635Y-22589684D01*
X10373880Y-22651866D01*
X10373880Y-22655185D01*
X10350227Y-22722110D01*
X10304224Y-22757804D01*
X10305239Y-22759734D01*
X10294380Y-22765442D01*
X10294135Y-22765632D01*
X10293977Y-22765653D01*
X10255946Y-22785644D01*
X9554402Y-23487188D01*
X9546788Y-23501132D01*
X9546919Y-23502965D01*
X9551170Y-23509580D01*
X10256667Y-24215077D01*
X10298409Y-24237871D01*
X10308409Y-24240047D01*
X10358607Y-24290253D01*
X10373831Y-24343814D01*
X10373880Y-24344717D01*
X10373880Y-24348134D01*
X10380635Y-24410316D01*
X10431765Y-24546705D01*
X10519119Y-24663261D01*
X10635675Y-24750615D01*
X10772064Y-24801745D01*
X10834246Y-24808500D01*
X12530514Y-24808500D01*
X12592696Y-24801745D01*
X12729085Y-24750615D01*
X12845641Y-24663261D01*
X12932995Y-24546705D01*
X12984125Y-24410316D01*
X12990880Y-24348134D01*
X12990880Y-23688239D01*
X12999475Y-23646365D01*
X12998496Y-23646052D01*
X13016941Y-23588429D01*
X13020072Y-23579755D01*
X13042686Y-23523643D01*
X13049105Y-23490772D01*
X13052768Y-23476505D01*
X13061152Y-23450316D01*
X13061154Y-23450305D01*
X13062981Y-23444599D01*
X13069207Y-23392773D01*
X13070196Y-23384539D01*
X13071633Y-23375418D01*
X13082357Y-23320502D01*
X13083228Y-23316043D01*
X13083500Y-23310481D01*
X13083500Y-23281331D01*
X13084399Y-23266303D01*
X13087495Y-23240534D01*
X13087495Y-23240530D01*
X13088209Y-23234587D01*
X13087381Y-23222885D01*
X13083815Y-23172527D01*
X13083500Y-23163628D01*
X13083500Y-20829252D01*
X13084410Y-20818469D01*
X13084106Y-20818447D01*
X13084545Y-20812471D01*
X13085551Y-20806554D01*
X13083530Y-20713926D01*
X13083500Y-20711178D01*
X13083500Y-20422154D01*
X13068452Y-20264434D01*
X13008908Y-20061466D01*
X12993169Y-20030907D01*
X12993929Y-20030516D01*
X12992392Y-20028578D01*
X12991550Y-20026054D01*
X12987697Y-20019828D01*
X12987201Y-20018769D01*
X12984033Y-20013169D01*
X12914804Y-19878751D01*
X12914802Y-19878748D01*
X12912058Y-19873420D01*
X12781396Y-19707080D01*
X12776865Y-19703148D01*
X12776862Y-19703145D01*
X12626167Y-19572379D01*
X12621637Y-19568448D01*
X12616451Y-19565448D01*
X12616447Y-19565445D01*
X12453920Y-19471421D01*
X12438546Y-19462527D01*
X12280882Y-19407777D01*
X12244394Y-19395106D01*
X12244392Y-19395105D01*
X12238729Y-19393139D01*
X12235898Y-19392729D01*
X12177605Y-19359949D01*
X11395405Y-18577749D01*
X11361379Y-18515437D01*
X11358500Y-18488654D01*
X11358500Y-17842413D01*
X11378502Y-17774292D01*
X11432158Y-17727799D01*
X11502432Y-17717695D01*
X11537748Y-17728218D01*
X11550757Y-17734284D01*
X11628924Y-17755229D01*
X11766598Y-17792119D01*
X11766600Y-17792119D01*
X11771913Y-17793543D01*
X12000000Y-17813498D01*
X12228087Y-17793543D01*
X12233400Y-17792119D01*
X12233402Y-17792119D01*
X12443933Y-17735707D01*
X12443935Y-17735706D01*
X12449243Y-17734284D01*
X12462250Y-17728219D01*
X12599322Y-17664302D01*
X14767000Y-17664302D01*
X14767344Y-17670862D01*
X14781259Y-17803261D01*
X14783989Y-17816102D01*
X14838889Y-17985066D01*
X14844235Y-17997074D01*
X14933062Y-18150927D01*
X14940786Y-18161558D01*
X15059663Y-18293585D01*
X15069426Y-18302376D01*
X15213157Y-18406802D01*
X15224529Y-18413368D01*
X15386839Y-18485633D01*
X15399325Y-18489690D01*
X15403278Y-18490530D01*
X15417341Y-18489457D01*
X15421000Y-18479503D01*
X15421000Y-18476182D01*
X15929000Y-18476182D01*
X15932973Y-18489713D01*
X15943468Y-18491222D01*
X15950675Y-18489690D01*
X15963161Y-18485633D01*
X16125471Y-18413368D01*
X16136843Y-18406802D01*
X16280574Y-18302376D01*
X16290337Y-18293585D01*
X16409214Y-18161558D01*
X16416938Y-18150927D01*
X16502266Y-18003135D01*
X16553649Y-17954142D01*
X16623362Y-17940706D01*
X16650321Y-17946302D01*
X16776641Y-17987345D01*
X16788615Y-17989978D01*
X16972676Y-18011926D01*
X16984925Y-18012183D01*
X17169742Y-17997962D01*
X17181822Y-17995831D01*
X17360337Y-17945988D01*
X17371787Y-17941548D01*
X17542727Y-17855200D01*
X17543596Y-17856920D01*
X17603241Y-17839783D01*
X17663979Y-17855793D01*
X17794294Y-17928624D01*
X17982392Y-17989740D01*
X18178777Y-18013158D01*
X18184912Y-18012686D01*
X18184914Y-18012686D01*
X18369830Y-17998457D01*
X18369834Y-17998456D01*
X18375972Y-17997984D01*
X18566463Y-17944798D01*
X18571967Y-17942018D01*
X18571969Y-17942017D01*
X18742996Y-17855625D01*
X18743830Y-17857275D01*
X18803738Y-17840062D01*
X18864478Y-17856072D01*
X18866369Y-17857129D01*
X18994294Y-17928624D01*
X19182392Y-17989740D01*
X19378777Y-18013158D01*
X19384912Y-18012686D01*
X19384914Y-18012686D01*
X19569830Y-17998457D01*
X19569834Y-17998456D01*
X19575972Y-17997984D01*
X19766463Y-17944798D01*
X19771967Y-17942018D01*
X19771969Y-17942017D01*
X19942996Y-17855625D01*
X19943830Y-17857275D01*
X20003738Y-17840062D01*
X20064478Y-17856072D01*
X20066369Y-17857129D01*
X20194294Y-17928624D01*
X20382392Y-17989740D01*
X20578777Y-18013158D01*
X20584912Y-18012686D01*
X20584914Y-18012686D01*
X20769830Y-17998457D01*
X20769834Y-17998456D01*
X20775972Y-17997984D01*
X20966463Y-17944798D01*
X20971967Y-17942018D01*
X20971969Y-17942017D01*
X21142996Y-17855625D01*
X21143830Y-17857275D01*
X21203738Y-17840062D01*
X21264478Y-17856072D01*
X21266369Y-17857129D01*
X21394294Y-17928624D01*
X21582392Y-17989740D01*
X21778777Y-18013158D01*
X21784912Y-18012686D01*
X21784914Y-18012686D01*
X21969830Y-17998457D01*
X21969834Y-17998456D01*
X21975972Y-17997984D01*
X22166463Y-17944798D01*
X22171967Y-17942018D01*
X22171969Y-17942017D01*
X22342996Y-17855625D01*
X22343756Y-17857129D01*
X22404224Y-17839757D01*
X22464958Y-17855767D01*
X22589116Y-17925156D01*
X22600356Y-17930067D01*
X22776641Y-17987345D01*
X22788615Y-17989978D01*
X22972676Y-18011926D01*
X22984925Y-18012183D01*
X23169742Y-17997962D01*
X23181822Y-17995831D01*
X23356112Y-17947168D01*
X23427102Y-17948114D01*
X23486311Y-17987290D01*
X23499115Y-18005526D01*
X23583062Y-18150927D01*
X23590786Y-18161558D01*
X23709663Y-18293585D01*
X23719426Y-18302376D01*
X23863157Y-18406802D01*
X23874529Y-18413368D01*
X24036839Y-18485633D01*
X24049325Y-18489690D01*
X24053278Y-18490530D01*
X24067341Y-18489457D01*
X24071000Y-18479503D01*
X24071000Y-17542115D01*
X24066525Y-17526876D01*
X24065135Y-17525671D01*
X24057452Y-17524000D01*
X23503000Y-17524000D01*
X23434879Y-17503998D01*
X23388386Y-17450342D01*
X23377000Y-17398000D01*
X23377000Y-17142000D01*
X23397002Y-17073879D01*
X23450658Y-17027386D01*
X23503000Y-17016000D01*
X24052885Y-17016000D01*
X24068124Y-17011525D01*
X24069329Y-17010135D01*
X24071000Y-17002452D01*
X24071000Y-16063818D01*
X24067027Y-16050287D01*
X24056532Y-16048778D01*
X24049325Y-16050310D01*
X24036839Y-16054367D01*
X23874529Y-16126632D01*
X23863157Y-16133198D01*
X23766792Y-16203211D01*
X23699924Y-16227070D01*
X23630772Y-16210989D01*
X23612415Y-16198359D01*
X23571145Y-16164217D01*
X23560973Y-16157356D01*
X23397924Y-16069196D01*
X23386619Y-16064444D01*
X23209554Y-16009633D01*
X23197541Y-16007167D01*
X23013199Y-15987792D01*
X23000931Y-15987707D01*
X22816345Y-16004505D01*
X22804296Y-16006803D01*
X22626479Y-16059138D01*
X22615111Y-16063731D01*
X22457773Y-16145985D01*
X22388137Y-16159819D01*
X22339469Y-16145159D01*
X22256794Y-16100457D01*
X22192701Y-16065802D01*
X22003768Y-16007318D01*
X21997643Y-16006674D01*
X21997642Y-16006674D01*
X21813204Y-15987289D01*
X21813202Y-15987289D01*
X21807075Y-15986645D01*
X21724576Y-15994153D01*
X21616251Y-16004011D01*
X21616248Y-16004012D01*
X21610112Y-16004570D01*
X21604206Y-16006308D01*
X21604202Y-16006309D01*
X21499076Y-16037249D01*
X21420381Y-16060410D01*
X21414917Y-16063267D01*
X21414911Y-16063269D01*
X21257242Y-16145697D01*
X21187606Y-16159532D01*
X21138937Y-16144872D01*
X21105203Y-16126632D01*
X20992701Y-16065802D01*
X20803768Y-16007318D01*
X20797643Y-16006674D01*
X20797642Y-16006674D01*
X20613204Y-15987289D01*
X20613202Y-15987289D01*
X20607075Y-15986645D01*
X20524576Y-15994153D01*
X20416251Y-16004011D01*
X20416248Y-16004012D01*
X20410112Y-16004570D01*
X20404206Y-16006308D01*
X20404202Y-16006309D01*
X20299076Y-16037249D01*
X20220381Y-16060410D01*
X20214917Y-16063267D01*
X20214911Y-16063269D01*
X20057242Y-16145697D01*
X19987606Y-16159532D01*
X19938937Y-16144872D01*
X19905203Y-16126632D01*
X19792701Y-16065802D01*
X19603768Y-16007318D01*
X19597643Y-16006674D01*
X19597642Y-16006674D01*
X19413204Y-15987289D01*
X19413202Y-15987289D01*
X19407075Y-15986645D01*
X19324576Y-15994153D01*
X19216251Y-16004011D01*
X19216248Y-16004012D01*
X19210112Y-16004570D01*
X19204206Y-16006308D01*
X19204202Y-16006309D01*
X19099076Y-16037249D01*
X19020381Y-16060410D01*
X19014917Y-16063267D01*
X19014911Y-16063269D01*
X18857242Y-16145697D01*
X18787606Y-16159532D01*
X18738937Y-16144872D01*
X18705203Y-16126632D01*
X18592701Y-16065802D01*
X18403768Y-16007318D01*
X18397643Y-16006674D01*
X18397642Y-16006674D01*
X18213204Y-15987289D01*
X18213202Y-15987289D01*
X18207075Y-15986645D01*
X18124576Y-15994153D01*
X18016251Y-16004011D01*
X18016248Y-16004012D01*
X18010112Y-16004570D01*
X18004206Y-16006308D01*
X18004202Y-16006309D01*
X17899076Y-16037249D01*
X17820381Y-16060410D01*
X17814920Y-16063265D01*
X17814915Y-16063267D01*
X17656705Y-16145977D01*
X17587069Y-16159811D01*
X17538401Y-16145151D01*
X17397924Y-16069196D01*
X17386619Y-16064444D01*
X17209554Y-16009633D01*
X17197541Y-16007167D01*
X17013199Y-15987792D01*
X17000931Y-15987707D01*
X16816345Y-16004505D01*
X16804296Y-16006803D01*
X16626479Y-16059138D01*
X16615111Y-16063731D01*
X16450846Y-16149607D01*
X16440585Y-16156321D01*
X16386586Y-16199737D01*
X16320963Y-16226833D01*
X16251109Y-16214149D01*
X16233573Y-16203476D01*
X16136843Y-16133198D01*
X16125471Y-16126632D01*
X15963161Y-16054367D01*
X15950675Y-16050310D01*
X15946722Y-16049470D01*
X15932659Y-16050543D01*
X15929000Y-16060497D01*
X15929000Y-16997885D01*
X15933475Y-17013124D01*
X15934865Y-17014329D01*
X15942548Y-17016000D01*
X16497000Y-17016000D01*
X16565121Y-17036002D01*
X16611614Y-17089658D01*
X16623000Y-17142000D01*
X16623000Y-17398000D01*
X16602998Y-17466121D01*
X16549342Y-17512614D01*
X16497000Y-17524000D01*
X15947115Y-17524000D01*
X15931876Y-17528475D01*
X15930671Y-17529865D01*
X15929000Y-17537548D01*
X15929000Y-18476182D01*
X15421000Y-18476182D01*
X15421000Y-17542115D01*
X15416525Y-17526876D01*
X15415135Y-17525671D01*
X15407452Y-17524000D01*
X14785115Y-17524000D01*
X14769876Y-17528475D01*
X14768671Y-17529865D01*
X14767000Y-17537548D01*
X14767000Y-17664302D01*
X12599322Y-17664302D01*
X12651762Y-17639849D01*
X12651767Y-17639846D01*
X12656749Y-17637523D01*
X12772169Y-17556705D01*
X12839789Y-17509357D01*
X12839792Y-17509355D01*
X12844300Y-17506198D01*
X13006198Y-17344300D01*
X13018918Y-17326135D01*
X13072195Y-17250047D01*
X13137523Y-17156749D01*
X13139846Y-17151767D01*
X13139849Y-17151762D01*
X13211602Y-16997885D01*
X14767000Y-16997885D01*
X14771475Y-17013124D01*
X14772865Y-17014329D01*
X14780548Y-17016000D01*
X15402885Y-17016000D01*
X15418124Y-17011525D01*
X15419329Y-17010135D01*
X15421000Y-17002452D01*
X15421000Y-16063818D01*
X15417027Y-16050287D01*
X15406532Y-16048778D01*
X15399325Y-16050310D01*
X15386839Y-16054367D01*
X15224529Y-16126632D01*
X15213157Y-16133198D01*
X15069426Y-16237624D01*
X15059663Y-16246415D01*
X14940786Y-16378442D01*
X14933062Y-16389073D01*
X14844235Y-16542926D01*
X14838889Y-16554934D01*
X14783989Y-16723898D01*
X14781259Y-16736739D01*
X14767344Y-16869138D01*
X14767000Y-16875698D01*
X14767000Y-16997885D01*
X13211602Y-16997885D01*
X13231961Y-16954225D01*
X13231961Y-16954224D01*
X13234284Y-16949243D01*
X13253991Y-16875698D01*
X13292119Y-16733402D01*
X13292119Y-16733400D01*
X13293543Y-16728087D01*
X13313498Y-16500000D01*
X13293543Y-16271913D01*
X13278065Y-16214149D01*
X13235707Y-16056067D01*
X13235706Y-16056065D01*
X13234284Y-16050757D01*
X13212747Y-16004570D01*
X13139849Y-15848238D01*
X13139846Y-15848233D01*
X13137523Y-15843251D01*
X13012830Y-15665171D01*
X13009357Y-15660211D01*
X13009355Y-15660208D01*
X13006198Y-15655700D01*
X12844300Y-15493802D01*
X12839792Y-15490645D01*
X12839789Y-15490643D01*
X12661253Y-15365631D01*
X12656749Y-15362477D01*
X12651767Y-15360154D01*
X12649973Y-15359118D01*
X12600981Y-15307734D01*
X12587546Y-15238021D01*
X12613934Y-15172110D01*
X12649973Y-15140882D01*
X12651767Y-15139846D01*
X12656749Y-15137523D01*
X12736124Y-15081944D01*
X12839789Y-15009357D01*
X12839792Y-15009355D01*
X12844300Y-15006198D01*
X13006198Y-14844300D01*
X13137523Y-14656749D01*
X13139846Y-14651767D01*
X13139849Y-14651762D01*
X13231961Y-14454225D01*
X13231961Y-14454224D01*
X13234284Y-14449243D01*
X13293543Y-14228087D01*
X13313498Y-14000000D01*
X13293543Y-13771913D01*
X13274167Y-13699600D01*
X13235707Y-13556067D01*
X13235706Y-13556065D01*
X13234284Y-13550757D01*
X13231961Y-13545775D01*
X13139849Y-13348238D01*
X13139846Y-13348233D01*
X13137523Y-13343251D01*
X13134367Y-13338743D01*
X13134363Y-13338737D01*
X13131287Y-13334344D01*
X13108500Y-13262074D01*
X13108500Y-12237926D01*
X13131287Y-12165656D01*
X13134363Y-12161263D01*
X13134367Y-12161257D01*
X13137523Y-12156749D01*
X13139846Y-12151767D01*
X13139849Y-12151762D01*
X13231961Y-11954225D01*
X13231961Y-11954224D01*
X13234284Y-11949243D01*
X13239250Y-11930712D01*
X13292119Y-11733402D01*
X13292119Y-11733400D01*
X13293543Y-11728087D01*
X13313498Y-11500000D01*
X13293543Y-11271913D01*
X13281666Y-11227586D01*
X13235707Y-11056067D01*
X13235706Y-11056065D01*
X13234284Y-11050757D01*
X13193439Y-10963163D01*
X13139849Y-10848238D01*
X13139846Y-10848233D01*
X13137523Y-10843251D01*
X13064098Y-10738389D01*
X13009357Y-10660211D01*
X13009355Y-10660208D01*
X13006198Y-10655700D01*
X12844300Y-10493802D01*
X12839792Y-10490645D01*
X12839789Y-10490643D01*
X12735664Y-10417734D01*
X12656749Y-10362477D01*
X12651767Y-10360154D01*
X12651762Y-10360151D01*
X12454225Y-10268039D01*
X12454224Y-10268039D01*
X12449243Y-10265716D01*
X12443935Y-10264294D01*
X12443933Y-10264293D01*
X12233402Y-10207881D01*
X12233400Y-10207881D01*
X12228087Y-10206457D01*
X12000000Y-10186502D01*
X11771913Y-10206457D01*
X11766600Y-10207881D01*
X11766598Y-10207881D01*
X11556067Y-10264293D01*
X11556065Y-10264294D01*
X11550757Y-10265716D01*
X11545776Y-10268039D01*
X11545775Y-10268039D01*
X11348238Y-10360151D01*
X11348233Y-10360154D01*
X11343251Y-10362477D01*
X11264336Y-10417734D01*
X11160211Y-10490643D01*
X11160208Y-10490645D01*
X11155700Y-10493802D01*
X10993802Y-10655700D01*
X10990645Y-10660208D01*
X10990643Y-10660211D01*
X10935902Y-10738389D01*
X10862477Y-10843251D01*
X10860154Y-10848233D01*
X10860151Y-10848238D01*
X10806561Y-10963163D01*
X10765716Y-11050757D01*
X10764294Y-11056065D01*
X10764293Y-11056067D01*
X10718334Y-11227586D01*
X10706457Y-11271913D01*
X10686502Y-11500000D01*
X10706457Y-11728087D01*
X10707881Y-11733400D01*
X10707881Y-11733402D01*
X10760751Y-11930712D01*
X10765716Y-11949243D01*
X10768039Y-11954224D01*
X10768039Y-11954225D01*
X10860151Y-12151762D01*
X10860154Y-12151767D01*
X10862477Y-12156749D01*
X10865633Y-12161257D01*
X10865637Y-12161263D01*
X10868713Y-12165656D01*
X10891500Y-12237926D01*
X10891500Y-12765500D01*
X10871498Y-12833621D01*
X10817842Y-12880114D01*
X10765500Y-12891500D01*
X10339091Y-12891500D01*
X10321011Y-12890196D01*
X10310336Y-12888648D01*
X10310333Y-12888648D01*
X10304396Y-12887787D01*
X10227094Y-12891365D01*
X10221268Y-12891500D01*
X8854257Y-12891500D01*
X8843468Y-12890589D01*
X8843446Y-12890893D01*
X8837472Y-12890454D01*
X8831554Y-12889448D01*
X8743712Y-12891365D01*
X8738901Y-12891470D01*
X8736152Y-12891500D01*
X8697154Y-12891500D01*
X8694175Y-12891784D01*
X8694157Y-12891785D01*
X8689778Y-12892203D01*
X8680564Y-12892743D01*
X8648912Y-12893434D01*
X8626080Y-12893932D01*
X8626079Y-12893932D01*
X8620083Y-12894063D01*
X8614225Y-12895324D01*
X8614218Y-12895325D01*
X8587326Y-12901115D01*
X8572774Y-12903367D01*
X8559393Y-12904644D01*
X8539434Y-12906548D01*
X8533674Y-12908238D01*
X8533673Y-12908238D01*
X8481387Y-12923576D01*
X8472439Y-12925848D01*
X8419164Y-12937318D01*
X8419153Y-12937321D01*
X8413298Y-12938582D01*
X8407782Y-12940929D01*
X8407779Y-12940930D01*
X8382468Y-12951700D01*
X8368619Y-12956659D01*
X8336466Y-12966092D01*
X8282674Y-12993797D01*
X8274340Y-12997710D01*
X8218664Y-13021400D01*
X8190870Y-13040112D01*
X8178203Y-13047603D01*
X8153754Y-13060194D01*
X8153747Y-13060198D01*
X8148420Y-13062942D01*
X8122300Y-13083459D01*
X8100857Y-13100303D01*
X8093391Y-13105737D01*
X8046967Y-13136991D01*
X8046952Y-13137002D01*
X8043201Y-13139528D01*
X8039076Y-13143269D01*
X8018471Y-13163874D01*
X8007209Y-13173865D01*
X7986797Y-13189898D01*
X7986792Y-13189902D01*
X7982080Y-13193604D01*
X7978148Y-13198135D01*
X7978143Y-13198140D01*
X7941284Y-13240616D01*
X7935214Y-13247131D01*
X6583595Y-14598749D01*
X6521283Y-14632775D01*
X6450467Y-14627710D01*
X6393632Y-14585163D01*
X6368821Y-14518643D01*
X6368500Y-14509654D01*
X6368500Y-13699600D01*
X6368163Y-13696350D01*
X6358238Y-13600692D01*
X6358237Y-13600688D01*
X6357526Y-13593834D01*
X6343155Y-13550757D01*
X6303868Y-13433002D01*
X6301550Y-13426054D01*
X6208478Y-13275652D01*
X6210881Y-13274165D01*
X6189115Y-13220371D01*
X6188500Y-13207933D01*
X6188500Y-10986087D01*
X6212177Y-10912561D01*
X6248453Y-10862077D01*
X6249776Y-10863028D01*
X6296645Y-10819857D01*
X6366580Y-10807625D01*
X6432026Y-10835144D01*
X6459875Y-10866994D01*
X6519987Y-10965088D01*
X6666250Y-11133938D01*
X6838126Y-11276632D01*
X7031000Y-11389338D01*
X7239692Y-11469030D01*
X7244760Y-11470061D01*
X7244763Y-11470062D01*
X7352017Y-11491883D01*
X7458597Y-11513567D01*
X7463772Y-11513757D01*
X7463774Y-11513757D01*
X7676673Y-11521564D01*
X7676677Y-11521564D01*
X7681837Y-11521753D01*
X7686957Y-11521097D01*
X7686959Y-11521097D01*
X7898288Y-11494025D01*
X7898289Y-11494025D01*
X7903416Y-11493368D01*
X7908366Y-11491883D01*
X8112429Y-11430661D01*
X8112434Y-11430659D01*
X8117384Y-11429174D01*
X8317994Y-11330896D01*
X8499860Y-11201173D01*
X8658096Y-11043489D01*
X8788453Y-10862077D01*
X8800019Y-10838675D01*
X8848132Y-10786467D01*
X8912977Y-10768500D01*
X9541864Y-10768500D01*
X9558307Y-10769578D01*
X9590000Y-10773750D01*
X9598189Y-10772672D01*
X9629874Y-10768501D01*
X9629884Y-10768500D01*
X9629885Y-10768500D01*
X9729457Y-10755391D01*
X9740664Y-10753916D01*
X9740666Y-10753915D01*
X9748851Y-10752838D01*
X9896876Y-10691524D01*
X9935599Y-10661811D01*
X9992072Y-10618477D01*
X9992075Y-10618474D01*
X10017434Y-10599015D01*
X10023987Y-10593987D01*
X10029017Y-10587432D01*
X10043452Y-10568621D01*
X10054319Y-10556230D01*
X10477846Y-10132703D01*
X18890743Y-10132703D01*
X18928268Y-10417734D01*
X19004129Y-10695036D01*
X19005813Y-10698984D01*
X19075379Y-10862077D01*
X19116923Y-10959476D01*
X19164692Y-11039292D01*
X19261576Y-11201173D01*
X19264561Y-11206161D01*
X19444313Y-11430528D01*
X19652851Y-11628423D01*
X19886317Y-11796186D01*
X19890112Y-11798195D01*
X19890113Y-11798196D01*
X19911869Y-11809715D01*
X20140392Y-11930712D01*
X20410373Y-12029511D01*
X20691264Y-12090755D01*
X20719841Y-12093004D01*
X20914282Y-12108307D01*
X20914291Y-12108307D01*
X20916739Y-12108500D01*
X21072271Y-12108500D01*
X21074407Y-12108354D01*
X21074418Y-12108354D01*
X21282548Y-12094165D01*
X21282554Y-12094164D01*
X21286825Y-12093873D01*
X21291020Y-12093004D01*
X21291022Y-12093004D01*
X21427584Y-12064723D01*
X21568342Y-12035574D01*
X21839343Y-11939607D01*
X22094812Y-11807750D01*
X22098313Y-11805289D01*
X22098317Y-11805287D01*
X22215958Y-11722607D01*
X22330023Y-11642441D01*
X22460102Y-11521564D01*
X22537479Y-11449661D01*
X22537481Y-11449658D01*
X22540622Y-11446740D01*
X22722713Y-11224268D01*
X22872927Y-10979142D01*
X22877384Y-10968990D01*
X22986757Y-10719830D01*
X22988483Y-10715898D01*
X23007916Y-10647680D01*
X23066068Y-10443534D01*
X23067244Y-10439406D01*
X23107751Y-10154784D01*
X23107845Y-10136951D01*
X23109235Y-9871583D01*
X23109235Y-9871576D01*
X23109257Y-9867297D01*
X23071732Y-9582266D01*
X23057844Y-9531498D01*
X23003436Y-9332617D01*
X22995871Y-9304964D01*
X22954362Y-9207649D01*
X22884763Y-9044476D01*
X22884761Y-9044472D01*
X22883077Y-9040524D01*
X22787569Y-8880942D01*
X22737643Y-8797521D01*
X22737640Y-8797517D01*
X22735439Y-8793839D01*
X22555687Y-8569472D01*
X22347149Y-8371577D01*
X22113683Y-8203814D01*
X22091843Y-8192250D01*
X22068654Y-8179972D01*
X21859608Y-8069288D01*
X21589627Y-7970489D01*
X21308736Y-7909245D01*
X21277685Y-7906801D01*
X21085718Y-7891693D01*
X21085709Y-7891693D01*
X21083261Y-7891500D01*
X20927729Y-7891500D01*
X20925593Y-7891646D01*
X20925582Y-7891646D01*
X20717452Y-7905835D01*
X20717446Y-7905836D01*
X20713175Y-7906127D01*
X20708980Y-7906996D01*
X20708978Y-7906996D01*
X20679875Y-7913023D01*
X20431658Y-7964426D01*
X20160657Y-8060393D01*
X19905188Y-8192250D01*
X19901687Y-8194711D01*
X19901683Y-8194713D01*
X19797940Y-8267625D01*
X19669977Y-8357559D01*
X19654892Y-8371577D01*
X19493567Y-8521490D01*
X19459378Y-8553260D01*
X19277287Y-8775732D01*
X19127073Y-9020858D01*
X19125347Y-9024791D01*
X19125346Y-9024792D01*
X19041327Y-9216192D01*
X19011517Y-9284102D01*
X19010342Y-9288229D01*
X19010341Y-9288230D01*
X18998933Y-9328277D01*
X18932756Y-9560594D01*
X18892249Y-9845216D01*
X18892227Y-9849505D01*
X18892226Y-9849512D01*
X18890774Y-10126695D01*
X18890743Y-10132703D01*
X10477846Y-10132703D01*
X12222624Y-8387925D01*
X12235015Y-8377058D01*
X12253827Y-8362623D01*
X12260377Y-8357597D01*
X12284864Y-8325685D01*
X12284870Y-8325679D01*
X12352886Y-8237039D01*
X12352887Y-8237037D01*
X12357914Y-8230486D01*
X12419228Y-8082461D01*
X12420201Y-8075068D01*
X12445011Y-8027405D01*
X12449656Y-8022982D01*
X12485140Y-7969575D01*
X12526004Y-7908069D01*
X12550033Y-7871902D01*
X12591813Y-7761917D01*
X12611945Y-7708920D01*
X12611946Y-7708918D01*
X12614445Y-7702338D01*
X12619108Y-7669160D01*
X12639138Y-7526639D01*
X12639138Y-7526636D01*
X12639689Y-7522717D01*
X12640006Y-7500000D01*
X12619787Y-7319745D01*
X12560135Y-7148448D01*
X12464016Y-6994624D01*
X12434222Y-6964621D01*
X12341168Y-6870915D01*
X12341164Y-6870912D01*
X12336205Y-6865918D01*
X12183056Y-6768727D01*
X12153853Y-6758328D01*
X12018815Y-6710243D01*
X12018810Y-6710242D01*
X12012180Y-6707881D01*
X12005194Y-6707048D01*
X12005190Y-6707047D01*
X11960541Y-6701723D01*
X11936257Y-6698828D01*
X11870985Y-6670901D01*
X11831172Y-6612118D01*
X11825962Y-6587759D01*
X11821646Y-6549280D01*
X11820861Y-6542281D01*
X11771911Y-6401715D01*
X11763528Y-6377642D01*
X11763526Y-6377639D01*
X11761209Y-6370984D01*
X11722904Y-6309682D01*
X11668823Y-6223134D01*
X11665090Y-6217160D01*
X11635986Y-6187852D01*
X11542242Y-6093451D01*
X11542238Y-6093448D01*
X11537279Y-6088454D01*
X11526161Y-6081398D01*
X11478002Y-6050836D01*
X11384130Y-5991263D01*
X11354927Y-5980864D01*
X11219889Y-5932779D01*
X11219884Y-5932778D01*
X11213254Y-5930417D01*
X11206266Y-5929584D01*
X11206263Y-5929583D01*
X11083162Y-5914904D01*
X11033144Y-5908940D01*
X11026141Y-5909676D01*
X11026140Y-5909676D01*
X10859752Y-5927164D01*
X10859750Y-5927165D01*
X10852752Y-5927900D01*
X10681043Y-5986354D01*
X10526552Y-6081398D01*
X10521518Y-6086327D01*
X10520240Y-6087326D01*
X10454246Y-6113503D01*
X10442668Y-6114036D01*
X8565600Y-6114036D01*
X8549157Y-6112958D01*
X8517464Y-6108786D01*
X8509275Y-6109864D01*
X8477590Y-6114035D01*
X8477581Y-6114036D01*
X8477579Y-6114036D01*
X8477573Y-6114037D01*
X8477571Y-6114037D01*
X8378007Y-6127145D01*
X8366800Y-6128620D01*
X8366798Y-6128621D01*
X8358613Y-6129698D01*
X8210588Y-6191012D01*
X8115393Y-6264058D01*
X8115389Y-6264062D01*
X8089299Y-6284082D01*
X8023080Y-6309682D01*
X7978405Y-6303912D01*
X7978087Y-6305116D01*
X7973084Y-6303794D01*
X7968212Y-6302069D01*
X7963123Y-6301162D01*
X7963121Y-6301162D01*
X7753373Y-6263800D01*
X7753367Y-6263799D01*
X7748284Y-6262894D01*
X7674452Y-6261992D01*
X7530081Y-6260228D01*
X7530079Y-6260228D01*
X7524911Y-6260165D01*
X7304091Y-6293955D01*
X7091756Y-6363357D01*
X6893607Y-6466507D01*
X6889474Y-6469610D01*
X6889471Y-6469612D01*
X6732114Y-6587759D01*
X6714965Y-6600635D01*
X6560629Y-6762138D01*
X6453201Y-6919621D01*
X6398293Y-6964621D01*
X6327768Y-6972792D01*
X6264021Y-6941538D01*
X6243324Y-6917054D01*
X6162822Y-6792617D01*
X6162820Y-6792614D01*
X6160014Y-6788277D01*
X6009670Y-6623051D01*
X6005619Y-6619852D01*
X6005615Y-6619848D01*
X5838414Y-6487800D01*
X5838410Y-6487798D01*
X5834359Y-6484598D01*
X5638789Y-6376638D01*
X5633920Y-6374914D01*
X5633916Y-6374912D01*
X5433087Y-6303795D01*
X5433083Y-6303794D01*
X5428212Y-6302069D01*
X5423119Y-6301162D01*
X5423116Y-6301161D01*
X5213373Y-6263800D01*
X5213367Y-6263799D01*
X5208284Y-6262894D01*
X5134452Y-6261992D01*
X4990081Y-6260228D01*
X4990079Y-6260228D01*
X4984911Y-6260165D01*
X4764091Y-6293955D01*
X4551756Y-6363357D01*
X4353607Y-6466507D01*
X4349474Y-6469610D01*
X4349471Y-6469612D01*
X4192114Y-6587759D01*
X4174965Y-6600635D01*
X4171393Y-6604373D01*
X4093898Y-6685466D01*
X4032374Y-6720895D01*
X3961462Y-6717438D01*
X3903676Y-6676192D01*
X3884823Y-6642644D01*
X3843324Y-6531946D01*
X3834786Y-6516351D01*
X3758285Y-6414276D01*
X3745724Y-6401715D01*
X3643649Y-6325214D01*
X3628054Y-6316676D01*
X3507606Y-6271522D01*
X3492351Y-6267895D01*
X3441486Y-6262369D01*
X3434672Y-6262000D01*
X2812115Y-6262000D01*
X2796876Y-6266475D01*
X2795671Y-6267865D01*
X2794000Y-6275548D01*
X2794000Y-11499884D01*
X2286000Y-11499884D01*
X2286000Y-10432115D01*
X2281525Y-10416876D01*
X2280135Y-10415671D01*
X2272452Y-10414000D01*
X1200116Y-10414000D01*
X1184877Y-10418475D01*
X1183672Y-10419865D01*
X1182001Y-10427548D01*
X1182001Y-11054669D01*
X508000Y-11054669D01*
X508000Y-9887885D01*
X1182000Y-9887885D01*
X1186475Y-9903124D01*
X1187865Y-9904329D01*
X1195548Y-9906000D01*
X2267885Y-9906000D01*
X2283124Y-9901525D01*
X2284329Y-9900135D01*
X2286000Y-9892452D01*
X2286000Y-7892115D01*
X2281525Y-7876876D01*
X2280135Y-7875671D01*
X2272452Y-7874000D01*
X1200116Y-7874000D01*
X1184877Y-7878475D01*
X1183672Y-7879865D01*
X1182001Y-7887548D01*
X1182001Y-8514669D01*
X1182371Y-8521490D01*
X1187895Y-8572352D01*
X1191521Y-8587604D01*
X1236676Y-8708054D01*
X1245211Y-8723644D01*
X1313255Y-8814435D01*
X1338102Y-8880942D01*
X1323049Y-8950324D01*
X1313255Y-8965565D01*
X1245211Y-9056356D01*
X1236676Y-9071946D01*
X1191522Y-9192394D01*
X1187895Y-9207649D01*
X1182369Y-9258514D01*
X1182000Y-9265328D01*
X1182000Y-9887885D01*
X508000Y-9887885D01*
X508000Y-7347885D01*
X1182000Y-7347885D01*
X1186475Y-7363124D01*
X1187865Y-7364329D01*
X1195548Y-7366000D01*
X2267885Y-7366000D01*
X2283124Y-7361525D01*
X2284329Y-7360135D01*
X2286000Y-7352452D01*
X2286000Y-6280116D01*
X2281525Y-6264877D01*
X2280135Y-6263672D01*
X2272452Y-6262001D01*
X1645331Y-6262001D01*
X1638510Y-6262371D01*
X1587648Y-6267895D01*
X1572396Y-6271521D01*
X1451946Y-6316676D01*
X1436351Y-6325214D01*
X1334276Y-6401715D01*
X1321715Y-6414276D01*
X1245214Y-6516351D01*
X1236676Y-6531946D01*
X1191522Y-6652394D01*
X1187895Y-6667649D01*
X1182369Y-6718514D01*
X1182000Y-6725328D01*
X1182000Y-7347885D01*
X508000Y-7347885D01*
X508000Y-4216530D01*
X1897830Y-4216530D01*
X1907710Y-4229017D01*
X1947472Y-4255585D01*
X1957575Y-4261071D01*
X2139973Y-4339435D01*
X2150916Y-4342990D01*
X2344533Y-4386802D01*
X2355942Y-4388304D01*
X2554308Y-4396097D01*
X2565790Y-4395495D01*
X2762250Y-4367011D01*
X2773445Y-4364323D01*
X2961424Y-4300512D01*
X2971931Y-4295834D01*
X3093745Y-4227614D01*
X3103610Y-4217536D01*
X3100654Y-4209864D01*
X2512812Y-3622022D01*
X2498868Y-3614408D01*
X2497035Y-3614539D01*
X2490420Y-3618790D01*
X1904027Y-4205183D01*
X1897830Y-4216530D01*
X508000Y-4216530D01*
X508000Y-3225718D01*
X1352874Y-3225718D01*
X1365858Y-3423803D01*
X1367659Y-3435173D01*
X1416523Y-3627576D01*
X1420364Y-3638423D01*
X1503475Y-3818705D01*
X1509223Y-3828661D01*
X1520675Y-3844867D01*
X1531263Y-3853254D01*
X1544564Y-3846226D01*
X2127978Y-3262812D01*
X2134356Y-3251132D01*
X2864408Y-3251132D01*
X2864539Y-3252965D01*
X2868790Y-3259580D01*
X3455950Y-3846740D01*
X3484622Y-3862397D01*
X3522532Y-3870644D01*
X3565041Y-3908510D01*
X3623413Y-3991104D01*
X3623422Y-3991114D01*
X3626751Y-3995825D01*
X3777289Y-4142474D01*
X3782085Y-4145679D01*
X3782088Y-4145681D01*
X3889627Y-4217536D01*
X3952031Y-4259233D01*
X3957339Y-4261514D01*
X3957340Y-4261514D01*
X4139822Y-4339914D01*
X4139825Y-4339915D01*
X4145125Y-4342192D01*
X4150754Y-4343466D01*
X4150755Y-4343466D01*
X4344467Y-4387299D01*
X4344473Y-4387300D01*
X4350104Y-4388574D01*
X4355875Y-4388801D01*
X4355877Y-4388801D01*
X4419433Y-4391298D01*
X4560103Y-4396825D01*
X4768088Y-4366669D01*
X4773552Y-4364814D01*
X4773557Y-4364813D01*
X4961624Y-4300973D01*
X4961629Y-4300971D01*
X4967096Y-4299115D01*
X5150460Y-4196426D01*
X5312041Y-4062041D01*
X5367112Y-3995825D01*
X5402476Y-3953305D01*
X5461414Y-3913721D01*
X5532396Y-3912285D01*
X5592886Y-3949452D01*
X5602246Y-3961153D01*
X5623413Y-3991104D01*
X5623422Y-3991114D01*
X5626751Y-3995825D01*
X5777289Y-4142474D01*
X5782085Y-4145679D01*
X5782088Y-4145681D01*
X5889627Y-4217536D01*
X5952031Y-4259233D01*
X5957339Y-4261514D01*
X5957340Y-4261514D01*
X6139822Y-4339914D01*
X6139825Y-4339915D01*
X6145125Y-4342192D01*
X6150754Y-4343466D01*
X6150755Y-4343466D01*
X6344467Y-4387299D01*
X6344473Y-4387300D01*
X6350104Y-4388574D01*
X6355875Y-4388801D01*
X6355877Y-4388801D01*
X6419433Y-4391298D01*
X6560103Y-4396825D01*
X6768088Y-4366669D01*
X6773552Y-4364814D01*
X6773557Y-4364813D01*
X6961624Y-4300973D01*
X6961629Y-4300971D01*
X6967096Y-4299115D01*
X7150460Y-4196426D01*
X7241019Y-4121109D01*
X7306183Y-4092928D01*
X7376238Y-4104452D01*
X7422414Y-4142418D01*
X7501739Y-4248261D01*
X7618295Y-4335615D01*
X7754684Y-4386745D01*
X7816866Y-4393500D01*
X9183134Y-4393500D01*
X9245316Y-4386745D01*
X9381705Y-4335615D01*
X9498261Y-4248261D01*
X9585615Y-4131705D01*
X9636745Y-3995316D01*
X9643500Y-3933134D01*
X9643500Y-2566866D01*
X9636745Y-2504684D01*
X9585615Y-2368295D01*
X9498261Y-2251739D01*
X9381705Y-2164385D01*
X9245316Y-2113255D01*
X9183134Y-2106500D01*
X7816866Y-2106500D01*
X7754684Y-2113255D01*
X7618295Y-2164385D01*
X7501739Y-2251739D01*
X7496358Y-2258919D01*
X7496357Y-2258920D01*
X7423062Y-2356717D01*
X7366203Y-2399232D01*
X7295384Y-2404258D01*
X7236707Y-2373676D01*
X7203347Y-2342838D01*
X7203341Y-2342833D01*
X7199101Y-2338914D01*
X7021362Y-2226769D01*
X6826163Y-2148892D01*
X6820506Y-2147767D01*
X6820500Y-2147765D01*
X6625707Y-2109019D01*
X6625705Y-2109019D01*
X6620040Y-2107892D01*
X6614265Y-2107816D01*
X6614261Y-2107816D01*
X6509001Y-2106438D01*
X6409898Y-2105141D01*
X6404201Y-2106120D01*
X6404200Y-2106120D01*
X6208469Y-2139753D01*
X6202772Y-2140732D01*
X6005601Y-2213472D01*
X6000640Y-2216424D01*
X6000639Y-2216424D01*
X5977318Y-2230299D01*
X5824988Y-2320926D01*
X5666981Y-2459494D01*
X5663410Y-2464024D01*
X5599148Y-2545540D01*
X5541267Y-2586653D01*
X5470347Y-2589947D01*
X5408904Y-2554376D01*
X5399247Y-2542931D01*
X5353427Y-2481571D01*
X5239981Y-2376703D01*
X5203341Y-2342833D01*
X5203338Y-2342831D01*
X5199101Y-2338914D01*
X5021362Y-2226769D01*
X4826163Y-2148892D01*
X4820506Y-2147767D01*
X4820500Y-2147765D01*
X4625707Y-2109019D01*
X4625705Y-2109019D01*
X4620040Y-2107892D01*
X4614265Y-2107816D01*
X4614261Y-2107816D01*
X4509001Y-2106438D01*
X4409898Y-2105141D01*
X4404201Y-2106120D01*
X4404200Y-2106120D01*
X4208469Y-2139753D01*
X4202772Y-2140732D01*
X4005601Y-2213472D01*
X4000640Y-2216424D01*
X4000639Y-2216424D01*
X3977318Y-2230299D01*
X3824988Y-2320926D01*
X3666981Y-2459494D01*
X3560124Y-2595042D01*
X3502243Y-2636155D01*
X3480970Y-2638931D01*
X3457459Y-2651751D01*
X2872022Y-3237188D01*
X2864408Y-3251132D01*
X2134356Y-3251132D01*
X2135592Y-3248868D01*
X2135461Y-3247035D01*
X2131210Y-3240420D01*
X1542626Y-2651836D01*
X1530246Y-2645076D01*
X1524280Y-2649542D01*
X1442173Y-2805602D01*
X1437768Y-2816236D01*
X1378900Y-3005822D01*
X1376508Y-3017076D01*
X1353175Y-3214217D01*
X1352874Y-3225718D01*
X508000Y-3225718D01*
X508000Y-2283139D01*
X1897251Y-2283139D01*
X1900738Y-2291528D01*
X2487188Y-2877978D01*
X2501132Y-2885592D01*
X2502965Y-2885461D01*
X2509580Y-2881210D01*
X3095657Y-2295133D01*
X3102417Y-2282753D01*
X3096387Y-2274698D01*
X3026020Y-2230299D01*
X3015769Y-2225076D01*
X2831389Y-2151516D01*
X2820352Y-2148247D01*
X2625654Y-2109518D01*
X2614210Y-2108315D01*
X2415719Y-2105718D01*
X2404239Y-2106621D01*
X2208599Y-2140238D01*
X2197479Y-2143218D01*
X2011234Y-2211927D01*
X2000856Y-2216877D01*
X1906849Y-2272806D01*
X1897251Y-2283139D01*
X508000Y-2283139D01*
X508000Y-634000D01*
X528002Y-565879D01*
X581658Y-519386D01*
X634000Y-508000D01*
X24366000Y-508000D01*
X24434121Y-528002D01*
G37*
%TD.AperFunction*%
%TD*%
M02*
