M48
INCH
T1C0.0118
T2C0.0157
T3C0.0236
T4C0.0276
T5C0.0315
T6C0.0394
%
G90
G05
T1
X0.4342Y-0.2647
X0.4656Y-0.2953
T3
X0.6693Y-0.6693
X0.7165Y-0.6693
X0.7638Y-0.6693
X0.811Y-0.6693
X0.8583Y-0.6693
X0.9055Y-0.6693
T4
X0.625Y-0.85
X0.625Y-0.9375
X0.925Y-0.85
X0.925Y-0.9375
T5
X0.0981Y-0.65
X0.0984Y-0.128
X0.1772Y-0.128
X0.1966Y-0.65
X0.2559Y-0.128
X0.3346Y-0.128
X0.3615Y-0.9252
X0.4599Y-0.9252
X0.4724Y-0.4528
X0.4724Y-0.5512
X0.4724Y-0.6496
T6
X0.1Y-0.3
X0.1Y-0.4
X0.2Y-0.3
X0.2Y-0.4
X0.3Y-0.3
X0.3Y-0.4
T2
G00X0.6171Y-0.6937
M15
G01X0.6171Y-0.6661
M16
G05
G00X0.9577Y-0.6937
M15
G01X0.9577Y-0.6661
M16
G05
T0
M30
