G04 DesignSpark PCB Gerber Version 13.0 Build *
%FSLAX35Y35*%
%MOMM*%
%ADD19R,1.40000X1.42000*%
%ADD12C,0.25400*%
%ADD11C,0.30480*%
%ADD13C,0.80000*%
%ADD70C,1.40000*%
%ADD18C,1.52400*%
%ADD16C,2.00000*%
%ADD17C,5.25000*%
X0Y0D02*
D02*
D11*
X546120Y2884360D02*
Y663640D01*
G75*
G02*
X1143380Y590240I294120J-73400D01*
G01*
G75*
G02*
X913640Y296120I-303140J0D01*
G01*
X2934360D01*
Y2884360D01*
X1602000D01*
G75*
G02*
X1627260Y2867260I-31760J-74120D01*
G01*
X1648680Y2845840D01*
X1736650D01*
G75*
G02*
X1938080Y2765240I84590J-80600D01*
G01*
G75*
G02*
X1736650Y2684640I-116840J0D01*
G01*
X1617730D01*
G75*
G02*
X1558220Y2708220I-2490J80600D01*
G01*
X1536800Y2729640D01*
X1435420D01*
G75*
G02*
X1480880Y2640240I-65180J-89400D01*
G01*
G75*
G02*
X1270240Y2592900I-110640J0D01*
G01*
G75*
G02*
X1070240I-100000J47340D01*
G01*
G75*
G02*
X880840Y2575060I-100000J47340D01*
G01*
Y2528640D01*
X659640D01*
Y2751840D01*
X880840D01*
Y2705420D01*
G75*
G02*
X889640Y2716030I89380J-65180D01*
G01*
Y2717750D01*
G75*
G02*
X889600Y2720240I80580J2540D01*
G01*
G75*
G02*
X913220Y2777260I80640J0D01*
G01*
X1003220Y2867260D01*
G75*
G02*
X1028480Y2884360I57020J-57020D01*
G01*
X546120D01*
X2075240Y2882080D02*
G75*
G02*
X2192080Y2765240I0J-116840D01*
G01*
G75*
G02*
X2075240Y2648400I-116840J0D01*
G01*
G75*
G02*
X1958400Y2765240I0J116840D01*
G01*
G75*
G02*
X2075240Y2882080I116840J0D01*
G01*
X2054600Y1260240D02*
G75*
G02*
X2265240Y1307580I110640J0D01*
G01*
G75*
G02*
X2465240I100000J-47340D01*
G01*
G75*
G02*
X2654640Y1325420I100000J-47340D01*
G01*
Y1371840D01*
X2875840D01*
Y1148640D01*
X2654640D01*
Y1195060D01*
G75*
G02*
X2465240Y1212900I-89400J65180D01*
G01*
G75*
G02*
X2265240I-100000J47340D01*
G01*
G75*
G02*
X2054600Y1260240I-100000J47340D01*
G01*
X2594240Y1042080D02*
G75*
G02*
X2711080Y925240I0J-116840D01*
G01*
G75*
G02*
X2594240Y808400I-116840J0D01*
G01*
G75*
G02*
X2477400Y925240I0J116840D01*
G01*
G75*
G02*
X2594240Y1042080I116840J0D01*
G01*
X2599240Y777080D02*
G75*
G02*
X2716080Y660240I0J-116840D01*
G01*
G75*
G02*
X2599240Y543400I-116840J0D01*
G01*
G75*
G02*
X2482400Y660240I0J116840D01*
G01*
G75*
G02*
X2599240Y777080I116840J0D01*
G01*
X2340240Y1042080D02*
G75*
G02*
X2457080Y925240I0J-116840D01*
G01*
G75*
G02*
X2340240Y808400I-116840J0D01*
G01*
G75*
G02*
X2223400Y925240I0J116840D01*
G01*
G75*
G02*
X2340240Y1042080I116840J0D01*
G01*
X2345240Y777080D02*
G75*
G02*
X2462080Y660240I0J-116840D01*
G01*
G75*
G02*
X2345240Y543400I-116840J0D01*
G01*
G75*
G02*
X2228400Y660240I0J116840D01*
G01*
G75*
G02*
X2345240Y777080I116840J0D01*
G01*
X2590240Y2243380D02*
G75*
G02*
X2893380Y1940240I0J-303140D01*
G01*
G75*
G02*
X2590240Y1637100I-303140J0D01*
G01*
G75*
G02*
X2287100Y1940240I0J303140D01*
G01*
G75*
G02*
X2590240Y2243380I303140J0D01*
G01*
X1599600Y1240240D02*
G75*
G02*
X1675780Y1365240I140640J0D01*
G01*
G75*
G02*
Y1615240I64460J125000D01*
G01*
G75*
G02*
X1599600Y1740240I64460J125000D01*
G01*
G75*
G02*
X1880880I140640J0D01*
G01*
G75*
G02*
X1804700Y1615240I-140640J0D01*
G01*
G75*
G02*
Y1365240I-64460J-125000D01*
G01*
G75*
G02*
X1880880Y1240240I-64460J-125000D01*
G01*
G75*
G02*
X1599600I-140640J0D01*
G01*
X1640240Y757080D02*
G75*
G02*
X1757080Y640240I0J-116840D01*
G01*
G75*
G02*
X1640240Y523400I-116840J0D01*
G01*
G75*
G02*
X1523400Y640240I0J116840D01*
G01*
G75*
G02*
X1640240Y757080I116840J0D01*
G01*
X1223240Y1832080D02*
G75*
G02*
X1340080Y1715240I0J-116840D01*
G01*
G75*
G02*
X1223240Y1598400I-116840J0D01*
G01*
G75*
G02*
X1106400Y1715240I0J116840D01*
G01*
G75*
G02*
X1223240Y1832080I116840J0D01*
G01*
X1386240Y757080D02*
G75*
G02*
X1503080Y640240I0J-116840D01*
G01*
G75*
G02*
X1386240Y523400I-116840J0D01*
G01*
G75*
G02*
X1269400Y640240I0J116840D01*
G01*
G75*
G02*
X1386240Y757080I116840J0D01*
G01*
X1223240Y2132080D02*
G75*
G02*
X1340080Y2015240I0J-116840D01*
G01*
G75*
G02*
X1223240Y1898400I-116840J0D01*
G01*
G75*
G02*
X1106400Y2015240I0J116840D01*
G01*
G75*
G02*
X1223240Y2132080I116840J0D01*
G01*
X965240Y1382080D02*
G75*
G02*
X1082080Y1265240I0J-116840D01*
G01*
G75*
G02*
X965240Y1148400I-116840J0D01*
G01*
G75*
G02*
X848400Y1265240I0J116840D01*
G01*
G75*
G02*
X965240Y1382080I116840J0D01*
G01*
X969240Y1832080D02*
G75*
G02*
X1086080Y1715240I0J-116840D01*
G01*
G75*
G02*
X969240Y1598400I-116840J0D01*
G01*
G75*
G02*
X852400Y1715240I0J116840D01*
G01*
G75*
G02*
X969240Y1832080I116840J0D01*
G01*
Y2132080D02*
G75*
G02*
X1086080Y2015240I0J-116840D01*
G01*
G75*
G02*
X969240Y1898400I-116840J0D01*
G01*
G75*
G02*
X852400Y2015240I0J116840D01*
G01*
G75*
G02*
X969240Y2132080I116840J0D01*
G01*
X711240Y1382080D02*
G75*
G02*
X828080Y1265240I0J-116840D01*
G01*
G75*
G02*
X711240Y1148400I-116840J0D01*
G01*
G75*
G02*
X594400Y1265240I0J116840D01*
G01*
G75*
G02*
X711240Y1382080I116840J0D01*
G01*
X715240Y1832080D02*
G75*
G02*
X832080Y1715240I0J-116840D01*
G01*
G75*
G02*
X715240Y1598400I-116840J0D01*
G01*
G75*
G02*
X598400Y1715240I0J116840D01*
G01*
G75*
G02*
X715240Y1832080I116840J0D01*
G01*
Y2132080D02*
G75*
G02*
X832080Y2015240I0J-116840D01*
G01*
G75*
G02*
X715240Y1898400I-116840J0D01*
G01*
G75*
G02*
X598400Y2015240I0J116840D01*
G01*
G75*
G02*
X715240Y2132080I116840J0D01*
G01*
X1143380Y590240D02*
G36*
X1143380Y590240D02*
G75*
G02*
X959060Y311360I-303160J20D01*
G01*
X2919120D01*
Y660240D01*
X2716080D01*
G75*
G02*
X2599240Y543400I-116840J0D01*
G01*
G75*
G02*
X2482400Y660230I0J116830D01*
G01*
G75*
G02*
Y660240I286480J10D01*
G01*
X2462080D01*
G75*
G02*
X2345240Y543400I-116840J0D01*
G01*
G75*
G02*
X2228400Y660230I0J116830D01*
G01*
G75*
G02*
Y660240I286480J10D01*
G01*
X1755350D01*
G75*
G02*
X1757080Y640240I-115150J-20040D01*
G01*
G75*
G02*
X1640240Y523400I-116840J0D01*
G01*
G75*
G02*
X1523400Y640230I0J116830D01*
G01*
G75*
G02*
Y640240I286480J10D01*
G01*
G75*
G02*
X1525130Y660240I116860J-30D01*
G01*
X1501350D01*
G75*
G02*
X1503080Y640240I-115150J-20040D01*
G01*
G75*
G02*
X1386240Y523400I-116840J0D01*
G01*
G75*
G02*
X1269400Y640230I0J116830D01*
G01*
G75*
G02*
Y640240I286480J10D01*
G01*
G75*
G02*
X1271130Y660240I116860J-30D01*
G01*
X1135190D01*
G75*
G02*
X1143380Y590240I-294950J-69990D01*
G01*
G37*
X561360Y925240D02*
G36*
X561360Y925240D02*
Y709060D01*
G75*
G02*
X1135190Y660240I278880J-118830D01*
G01*
X1271130D01*
G75*
G02*
X1386240Y757080I115120J-20010D01*
G01*
G75*
G02*
X1501350Y660240I-30J-116870D01*
G01*
X1525130D01*
G75*
G02*
X1640240Y757080I115120J-20010D01*
G01*
G75*
G02*
X1755350Y660240I-30J-116870D01*
G01*
X2228400D01*
G75*
G02*
X2345240Y777080I116840J0D01*
G01*
G75*
G02*
X2462080Y660240I-30J-116870D01*
G01*
X2482400D01*
G75*
G02*
X2599240Y777080I116840J0D01*
G01*
G75*
G02*
X2716080Y660240I-30J-116870D01*
G01*
X2919120D01*
Y925240D01*
X2711080D01*
G75*
G02*
X2594240Y808400I-116840J0D01*
G01*
G75*
G02*
X2477400Y925230I0J116830D01*
G01*
G75*
G02*
Y925240I286480J10D01*
G01*
X2457080D01*
G75*
G02*
X2340240Y808400I-116840J0D01*
G01*
G75*
G02*
X2223400Y925230I0J116830D01*
G01*
G75*
G02*
Y925240I286480J10D01*
G01*
X561360D01*
G37*
Y1260240D02*
G36*
X561360Y1260240D02*
Y925240D01*
X2223400D01*
G75*
G02*
X2340240Y1042080I116840J0D01*
G01*
G75*
G02*
X2457080Y925240I-30J-116870D01*
G01*
X2477400D01*
G75*
G02*
X2594240Y1042080I116840J0D01*
G01*
G75*
G02*
X2711080Y925240I-30J-116870D01*
G01*
X2919120D01*
Y1260240D01*
X2875840D01*
Y1148640D01*
X2654640D01*
Y1195060D01*
G75*
G02*
X2465240Y1212900I-89400J65160D01*
G01*
G75*
G02*
X2265240I-100000J47340D01*
G01*
G75*
G02*
X2054600Y1260240I-100000J47340D01*
G01*
X1879450D01*
G75*
G02*
X1880880Y1240240I-139250J-20010D01*
G01*
G75*
G02*
X1599600I-140640J0D01*
G01*
G75*
G02*
Y1240250I114590J10D01*
G01*
G75*
G02*
X1601030Y1260240I140650J-20D01*
G01*
X1081970D01*
G75*
G02*
X965240Y1148400I-116740J5010D01*
G01*
G75*
G02*
X848510Y1260240I0J116830D01*
G01*
X827970D01*
G75*
G02*
X711240Y1148400I-116740J5010D01*
G01*
G75*
G02*
X594510Y1260240I0J116830D01*
G01*
X561360D01*
G37*
Y1715240D02*
G36*
X561360Y1715240D02*
Y1260240D01*
X594510D01*
G75*
G02*
X594400Y1265230I116620J5070D01*
G01*
G75*
G02*
Y1265240I286480J10D01*
G01*
G75*
G02*
X711240Y1382080I116840J0D01*
G01*
G75*
G02*
X828080Y1265240I-30J-116870D01*
G01*
G75*
G02*
X827970Y1260240I-116870J70D01*
G01*
X848510D01*
G75*
G02*
X848400Y1265230I116620J5070D01*
G01*
G75*
G02*
Y1265240I286480J10D01*
G01*
G75*
G02*
X965240Y1382080I116840J0D01*
G01*
G75*
G02*
X1082080Y1265240I-30J-116870D01*
G01*
G75*
G02*
X1081970Y1260240I-116870J70D01*
G01*
X1601030D01*
G75*
G02*
X1675780Y1365240I139190J-19990D01*
G01*
G75*
G02*
X1599590Y1490240I64450J125000D01*
G01*
G75*
G02*
X1675780Y1615240I140640J0D01*
G01*
G75*
G02*
X1601830Y1715240I64410J124970D01*
G01*
X1340080D01*
G75*
G02*
X1223240Y1598400I-116840J0D01*
G01*
G75*
G02*
X1106400Y1715230I0J116830D01*
G01*
G75*
G02*
Y1715240I286480J10D01*
G01*
X1086080D01*
G75*
G02*
X969240Y1598400I-116840J0D01*
G01*
G75*
G02*
X852400Y1715230I0J116830D01*
G01*
G75*
G02*
Y1715240I286480J10D01*
G01*
X832080D01*
G75*
G02*
X715240Y1598400I-116840J0D01*
G01*
G75*
G02*
X598400Y1715230I0J116830D01*
G01*
G75*
G02*
Y1715240I286480J10D01*
G01*
X561360D01*
G37*
X1878640D02*
G36*
X1878640Y1715240D02*
G75*
G02*
X1804700Y1615240I-138400J25000D01*
G01*
G75*
G02*
X1880880Y1490240I-64460J-125000D01*
G01*
G75*
G02*
X1804700Y1365240I-140640J0D01*
G01*
G75*
G02*
X1879450Y1260240I-64490J-125020D01*
G01*
X2054600D01*
G75*
G02*
X2265240Y1307580I110640J-10D01*
G01*
G75*
G02*
X2465240I100000J-47360D01*
G01*
G75*
G02*
X2654640Y1325420I100000J-47340D01*
G01*
Y1371840D01*
X2875840D01*
Y1260240D01*
X2919120D01*
Y1715240D01*
X2793390D01*
G75*
G02*
X2590240Y1637100I-203140J224990D01*
G01*
G75*
G02*
X2387080Y1715240I-20J303120D01*
G01*
X1878640D01*
G37*
X561360Y1940240D02*
G36*
X561360Y1940240D02*
Y1715240D01*
X598400D01*
G75*
G02*
X715240Y1832080I116840J0D01*
G01*
G75*
G02*
X832080Y1715240I-30J-116870D01*
G01*
X852400D01*
G75*
G02*
X969240Y1832080I116840J0D01*
G01*
G75*
G02*
X1086080Y1715240I-30J-116870D01*
G01*
X1106400D01*
G75*
G02*
X1223240Y1832080I116840J0D01*
G01*
G75*
G02*
X1340080Y1715240I-30J-116870D01*
G01*
X1601830D01*
G75*
G02*
X1599600Y1740210I138380J24940D01*
G01*
G75*
G02*
Y1740240I143240J20D01*
G01*
G75*
G02*
X1880880I140640J0D01*
G01*
G75*
G02*
X1878640Y1715240I-140660J0D01*
G01*
X2387080D01*
G75*
G02*
X2287100Y1940210I203140J224980D01*
G01*
G75*
G02*
Y1940240I429720J20D01*
G01*
X1312830D01*
G75*
G02*
X1223240Y1898400I-89600J75020D01*
G01*
G75*
G02*
X1133650Y1940240I0J116830D01*
G01*
X1058830D01*
G75*
G02*
X969240Y1898400I-89600J75020D01*
G01*
G75*
G02*
X879650Y1940240I0J116830D01*
G01*
X804830D01*
G75*
G02*
X715240Y1898400I-89600J75020D01*
G01*
G75*
G02*
X625650Y1940240I0J116830D01*
G01*
X561360D01*
G37*
X2893380Y1940230D02*
G36*
X2893380Y1940230D02*
G75*
G02*
X2793390Y1715240I-303130J0D01*
G01*
X2919120D01*
Y1940240D01*
X2893380D01*
G75*
G02*
Y1940230I-572960J0D01*
G01*
G37*
X561360Y2765240D02*
G36*
X561360Y2765240D02*
Y1940240D01*
X625650D01*
G75*
G02*
X598400Y2015230I89580J75000D01*
G01*
G75*
G02*
Y2015240I286480J10D01*
G01*
G75*
G02*
X715240Y2132080I116840J0D01*
G01*
G75*
G02*
X832080Y2015240I-30J-116870D01*
G01*
G75*
G02*
X804830Y1940240I-116850J10D01*
G01*
X879650D01*
G75*
G02*
X852400Y2015230I89580J75000D01*
G01*
G75*
G02*
Y2015240I286480J10D01*
G01*
G75*
G02*
X969240Y2132080I116840J0D01*
G01*
G75*
G02*
X1086080Y2015240I-30J-116870D01*
G01*
G75*
G02*
X1058830Y1940240I-116850J10D01*
G01*
X1133650D01*
G75*
G02*
X1106400Y2015230I89580J75000D01*
G01*
G75*
G02*
Y2015240I286480J10D01*
G01*
G75*
G02*
X1223240Y2132080I116840J0D01*
G01*
G75*
G02*
X1340080Y2015240I-30J-116870D01*
G01*
G75*
G02*
X1312830Y1940240I-116850J10D01*
G01*
X2287100D01*
G75*
G02*
Y1940250I572960J10D01*
G01*
G75*
G02*
X2590240Y2243380I303140J0D01*
G01*
G75*
G02*
X2893380Y1940240I0J-303140D01*
G01*
X2919120D01*
Y2765240D01*
X2192080D01*
G75*
G02*
X2075240Y2648400I-116840J0D01*
G01*
G75*
G02*
X1958400Y2765230I0J116830D01*
G01*
G75*
G02*
Y2765240I286480J10D01*
G01*
X1938080D01*
G75*
G02*
X1736650Y2684640I-116840J0D01*
G01*
X1617730D01*
G75*
G02*
X1558220Y2708220I-2510J80560D01*
G01*
X1536800Y2729640D01*
X1435420D01*
G75*
G02*
X1480880Y2640240I-65220J-89420D01*
G01*
G75*
G02*
X1270240Y2592900I-110640J0D01*
G01*
G75*
G02*
X1070240I-100000J47340D01*
G01*
G75*
G02*
X880840Y2575060I-100000J47320D01*
G01*
Y2528640D01*
X659640D01*
Y2751840D01*
X880840D01*
Y2705420D01*
G75*
G02*
X889640Y2716030I88560J-64490D01*
G01*
Y2717750D01*
G75*
G02*
X889600Y2720230I76910J2480D01*
G01*
G75*
G02*
Y2720240I81850J10D01*
G01*
G75*
G02*
Y2720260I76390J10D01*
G01*
G75*
G02*
X903320Y2765240I80580J0D01*
G01*
X561360D01*
G37*
Y2869120D02*
G36*
X561360Y2869120D02*
Y2765240D01*
X903320D01*
G75*
G02*
X913220Y2777260I66860J-44980D01*
G01*
X1003220Y2867260D01*
G75*
G02*
X1005140Y2869120I57100J-57020D01*
G01*
X561360D01*
G37*
X1625330D02*
G36*
X1625330Y2869120D02*
G75*
G02*
X1627260Y2867260I-55360J-59370D01*
G01*
X1648680Y2845840D01*
X1736650D01*
G75*
G02*
X1767760Y2869120I84580J-80610D01*
G01*
X1625330D01*
G37*
X1874700D02*
G36*
X1874700Y2869120D02*
G75*
G02*
X1938080Y2765240I-53470J-103900D01*
G01*
X1958400D01*
G75*
G02*
X2021760Y2869120I116850J-10D01*
G01*
X1874700D01*
G37*
X2128700D02*
G36*
X2128700Y2869120D02*
G75*
G02*
X2192080Y2765240I-53490J-103910D01*
G01*
X2919120D01*
Y2869120D01*
X2128700D01*
G37*
D02*
D12*
X647740Y1265240D02*
X594400D01*
X651740Y1715240D02*
X598400D01*
X651740Y2015240D02*
X598400D01*
X711240Y1201740D02*
Y1148400D01*
Y1328740D02*
Y1382080D01*
X712940Y2640240D02*
X659640D01*
X715240Y1651740D02*
Y1598400D01*
Y1778740D02*
Y1832080D01*
Y1951740D02*
Y1898400D01*
Y2078740D02*
Y2132080D01*
X770240Y2581940D02*
Y2528640D01*
Y2698540D02*
Y2751840D01*
X774740Y1265240D02*
X828080D01*
X778740Y1715240D02*
X832080D01*
X778740Y2015240D02*
X832080D01*
X1322740Y640240D02*
X1269400D01*
X1386240Y576740D02*
Y523400D01*
Y703740D02*
Y757080D01*
X1449740Y640240D02*
X1503080D01*
X2276740Y925240D02*
X2223400D01*
X2281740Y660240D02*
X2228400D01*
X2340240Y861740D02*
Y808400D01*
Y988740D02*
Y1042080D01*
X2340440Y1940240D02*
X2287100D01*
X2345240Y596740D02*
Y543400D01*
Y723740D02*
Y777080D01*
X2403740Y925240D02*
X2457080D01*
X2408740Y660240D02*
X2462080D01*
X2590240Y1690440D02*
Y1637100D01*
Y2190040D02*
Y2243380D01*
X2765240Y1201940D02*
Y1148640D01*
Y1318540D02*
Y1371840D01*
X2822540Y1260240D02*
X2875840D01*
X2840040Y1940240D02*
X2893380D01*
D02*
D13*
X970240Y2640240D02*
Y2720240D01*
X1060240Y2810240D01*
X1570240D01*
X1615240Y2765240D01*
X1821240D01*
D02*
D16*
X1740240Y1240240D03*
Y1490240D03*
Y1740240D03*
D02*
D17*
X840240Y590240D03*
X2590240Y1940240D03*
D02*
D18*
X711240Y1265240D03*
X715240Y1715240D03*
Y2015240D03*
X965240Y1265240D03*
X969240Y1715240D03*
Y2015240D03*
X1223240Y1715240D03*
Y2015240D03*
X1386240Y640240D03*
X1640240D03*
X1821240Y2765240D03*
X2075240D03*
X2340240Y925240D03*
X2345240Y660240D03*
X2594240Y925240D03*
X2599240Y660240D03*
D02*
D19*
X770240Y2640240D03*
X2765240Y1260240D03*
D02*
D70*
X970240Y2640240D03*
X1170240D03*
X1370240D03*
X2165240Y1260240D03*
X2365240D03*
X2565240D03*
X0Y0D02*
M02*
