G04 DesignSpark PCB Gerber Version 13.0 Build *
%FSLAX35Y35*%
%MOMM*%
%ADD19R,1.40000X1.42000*%
%ADD12C,0.25400*%
%ADD15C,0.30000*%
%ADD11C,0.30480*%
%ADD14C,0.65000*%
%ADD13C,0.80000*%
%ADD70C,1.40000*%
%ADD18C,1.52400*%
%ADD16C,2.00000*%
%ADD17C,5.25000*%
%AMT71*0 Bullet Pad at angle 90*4,1,26,0.30000,-0.40000,0.30000,0.40000,0.10000,0.40000,0.04550,0.39620,-0.00790,0.38500,-0.05930,0.36670,-0.10770,0.34150,-0.15220,0.31000,-0.19200,0.27270,-0.22640,0.23030,-0.25470,0.18370,-0.27640,0.13360,-0.29100,0.08110,-0.29840,0.02710,-0.29830,-0.02740,-0.29080,-0.08130,-0.27600,-0.13370,-0.25420,-0.18360,-0.22590,-0.23010,-0.19150,-0.27230,-0.15170,-0.30940,-0.10720,-0.34070,-0.05880,-0.36570,-0.00750,-0.38390,0.04570,-0.39490,0.10000,-0.40000,0.30000,-0.40000,0*%
%ADD71T71*%
%AMT20*0 Bullet Pad at angle 270*4,1,26,-0.30000,0.40000,-0.30000,-0.40000,-0.10000,-0.40000,-0.04550,-0.39620,0.00790,-0.38500,0.05930,-0.36670,0.10770,-0.34150,0.15220,-0.31000,0.19200,-0.27270,0.22640,-0.23030,0.25470,-0.18370,0.27640,-0.13360,0.29100,-0.08110,0.29840,-0.02710,0.29830,0.02740,0.29080,0.08130,0.27600,0.13370,0.25420,0.18360,0.22590,0.23010,0.19150,0.27230,0.15170,0.30940,0.10720,0.34070,0.05880,0.36570,0.00750,0.38390,-0.04570,0.39490,-0.10000,0.40000,-0.30000,0.40000,0*%
%ADD20T20*%
X0Y0D02*
D02*
D11*
X546120Y2884360D02*
Y663640D01*
G75*
G02*
X1143380Y590240I294120J-73400D01*
G01*
G75*
G02*
X913640Y296120I-303140J0D01*
G01*
X2934360D01*
Y2884360D01*
X546120D01*
X711240Y1382080D02*
G75*
G02*
X828080Y1265240I0J-116840D01*
G01*
G75*
G02*
X711240Y1148400I-116840J0D01*
G01*
G75*
G02*
X594400Y1265240I0J116840D01*
G01*
G75*
G02*
X711240Y1382080I116840J0D01*
G01*
X715240Y1832080D02*
G75*
G02*
X832080Y1715240I0J-116840D01*
G01*
G75*
G02*
X715240Y1598400I-116840J0D01*
G01*
G75*
G02*
X598400Y1715240I0J116840D01*
G01*
G75*
G02*
X715240Y1832080I116840J0D01*
G01*
Y2132080D02*
G75*
G02*
X832080Y2015240I0J-116840D01*
G01*
G75*
G02*
X715240Y1898400I-116840J0D01*
G01*
G75*
G02*
X598400Y2015240I0J116840D01*
G01*
G75*
G02*
X715240Y2132080I116840J0D01*
G01*
X659640Y2751840D02*
X880840D01*
Y2705420D01*
G75*
G02*
X1070240Y2687580I89400J-65180D01*
G01*
G75*
G02*
X1270240I100000J-47340D01*
G01*
G75*
G02*
X1480880Y2640240I100000J-47340D01*
G01*
G75*
G02*
X1425840Y2544590I-110640J0D01*
G01*
Y2164220D01*
G75*
G02*
X1425880Y2162240I-55670J-2110D01*
G01*
G75*
G02*
X1409580Y2122900I-55640J10D01*
G01*
X1335230Y2048550D01*
G75*
G02*
X1155840Y1919800I-111990J-33310D01*
G01*
Y1863320D01*
X1191480Y1827680D01*
G75*
G02*
X1340080Y1715240I31760J-112440D01*
G01*
G75*
G02*
X1223240Y1598400I-116840J0D01*
G01*
G75*
G02*
X1111720Y1750080I-10J116830D01*
G01*
X1060900Y1800900D01*
G75*
G02*
X1049840Y1816680I39340J39340D01*
G01*
Y1799830D01*
G75*
G02*
Y1630650I-80600J-84590D01*
G01*
Y1345840D01*
X1112750D01*
G75*
G02*
X1172260Y1322260I2490J-80600D01*
G01*
X1697260Y797260D01*
G75*
G02*
X1720880Y740240I-57020J-57020D01*
G01*
G75*
G02*
X1720840Y737750I-80660J50D01*
G01*
Y724830D01*
G75*
G02*
X1640240Y523400I-80600J-84590D01*
G01*
G75*
G02*
X1550900Y715540I0J116840D01*
G01*
X1081800Y1184640D01*
X1049830D01*
G75*
G02*
X848400Y1265240I-84590J80600D01*
G01*
G75*
G02*
X888640Y1353470I116840J0D01*
G01*
Y1630650D01*
G75*
G02*
Y1799830I80600J84590D01*
G01*
Y1930650D01*
G75*
G02*
X889640Y2100770I80600J84590D01*
G01*
Y2564450D01*
G75*
G02*
X880840Y2575060I80580J75790D01*
G01*
Y2528640D01*
X659640D01*
Y2751840D01*
X1386240Y757080D02*
G75*
G02*
X1503080Y640240I0J-116840D01*
G01*
G75*
G02*
X1386240Y523400I-116840J0D01*
G01*
G75*
G02*
X1269400Y640240I0J116840D01*
G01*
G75*
G02*
X1386240Y757080I116840J0D01*
G01*
X1660320Y1124520D02*
G75*
G02*
X1675780Y1365240I79920J115720D01*
G01*
G75*
G02*
X1659640Y1605490I64460J125000D01*
G01*
Y1624990D01*
G75*
G02*
X1599600Y1740240I80600J115250D01*
G01*
G75*
G02*
X1855490Y1820840I140640J0D01*
G01*
X1876800D01*
X1994640Y1938680D01*
Y2207280D01*
G75*
G02*
X1992670Y2207820I20320J78000D01*
G01*
G75*
G02*
X1975840Y2204830I-22430J77420D01*
G01*
Y2204640D01*
X1909640D01*
Y2204830D01*
G75*
G02*
X1892740Y2207840I5600J80410D01*
G01*
G75*
G02*
X1789640Y2285240I-22500J77400D01*
G01*
Y2341800D01*
X1764220Y2367220D01*
G75*
G02*
X1740600Y2424240I57020J57020D01*
G01*
G75*
G02*
X1740640Y2426730I80620J-50D01*
G01*
Y2680650D01*
G75*
G02*
X1821240Y2882080I80600J84590D01*
G01*
G75*
G02*
X1901840Y2680650I0J-116840D01*
G01*
Y2457680D01*
X1927260Y2432260D01*
G75*
G02*
X1950880Y2375240I-57020J-57020D01*
G01*
G75*
G02*
X1950840Y2372750I-80660J50D01*
G01*
Y2365840D01*
X1975840D01*
Y2365650D01*
G75*
G02*
X1981070Y2365110I-5660J-80430D01*
G01*
X1994640Y2378680D01*
Y2680650D01*
G75*
G02*
X2075240Y2882080I80600J84590D01*
G01*
G75*
G02*
X2155840Y2680650I0J-116840D01*
G01*
Y2347730D01*
G75*
G02*
X2155880Y2345240I-80620J-2540D01*
G01*
G75*
G02*
X2155840Y2342750I-80660J50D01*
G01*
Y1907730D01*
G75*
G02*
X2155880Y1905240I-80620J-2540D01*
G01*
G75*
G02*
X2132260Y1848220I-80640J0D01*
G01*
X1967260Y1683220D01*
G75*
G02*
X1907750Y1659640I-57020J57020D01*
G01*
X1855490D01*
G75*
G02*
X1820840Y1624990I-115250J80600D01*
G01*
Y1605490D01*
G75*
G02*
X1804700Y1365240I-80600J-115250D01*
G01*
G75*
G02*
X1865270Y1175840I-64460J-125000D01*
G01*
X2093700D01*
G75*
G02*
X2054600Y1260240I71540J84400D01*
G01*
G75*
G02*
X2265240Y1307580I110640J0D01*
G01*
G75*
G02*
X2465240I100000J-47340D01*
G01*
G75*
G02*
X2654640Y1325420I100000J-47340D01*
G01*
Y1371840D01*
X2875840D01*
Y1148640D01*
X2654640D01*
Y1195060D01*
G75*
G02*
X2645840Y1184450I-89380J65180D01*
G01*
Y1132730D01*
G75*
G02*
X2645880Y1130240I-80620J-2540D01*
G01*
G75*
G02*
X2622260Y1073220I-80640J0D01*
G01*
X2591080Y1042040D01*
G75*
G02*
X2594240Y1042080I3060J-116710D01*
G01*
G75*
G02*
X2674840Y840650I0J-116840D01*
G01*
Y749330D01*
G75*
G02*
X2599240Y543400I-75600J-89090D01*
G01*
G75*
G02*
X2513640Y739770I0J116840D01*
G01*
Y840650D01*
G75*
G02*
X2519010Y1014640I80600J84590D01*
G01*
X2415470D01*
G75*
G02*
X2340240Y808400I-75230J-89400D01*
G01*
G75*
G02*
X2265010Y1014640I0J116840D01*
G01*
X1782730D01*
G75*
G02*
X1723220Y1038220I-2490J80600D01*
G01*
X1683220Y1078220D01*
G75*
G02*
X1660320Y1124520I57030J57020D01*
G01*
X2345240Y777080D02*
G75*
G02*
X2462080Y660240I0J-116840D01*
G01*
G75*
G02*
X2345240Y543400I-116840J0D01*
G01*
G75*
G02*
X2228400Y660240I0J116840D01*
G01*
G75*
G02*
X2345240Y777080I116840J0D01*
G01*
X2590240Y2243380D02*
G75*
G02*
X2893380Y1940240I0J-303140D01*
G01*
G75*
G02*
X2590240Y1637100I-303140J0D01*
G01*
G75*
G02*
X2287100Y1940240I0J303140D01*
G01*
G75*
G02*
X2590240Y2243380I303140J0D01*
G01*
X1143380Y590240D02*
G36*
X1143380Y590240D02*
G75*
G02*
X959060Y311360I-303160J20D01*
G01*
X2919120D01*
Y640240D01*
X2714360D01*
G75*
G02*
X2599240Y543400I-115120J20010D01*
G01*
G75*
G02*
X2484120Y640240I0J116840D01*
G01*
X2460350D01*
G75*
G02*
X2345240Y543400I-115120J20010D01*
G01*
G75*
G02*
X2230120Y640240I-10J116840D01*
G01*
X1757070D01*
G75*
G02*
X1640240Y523400I-116830J0D01*
G01*
G75*
G02*
X1523390Y640240I0J116840D01*
G01*
X1503080D01*
G75*
G02*
X1386240Y523400I-116840J0D01*
G01*
G75*
G02*
X1269400Y640230I0J116830D01*
G01*
G75*
G02*
Y640240I286480J10D01*
G01*
X1139230D01*
G75*
G02*
X1143380Y590240I-299010J-49990D01*
G01*
G37*
X561360Y1265240D02*
G36*
X561360Y1265240D02*
Y709060D01*
G75*
G02*
X1139230Y640240I278880J-118830D01*
G01*
X1269400D01*
G75*
G02*
X1386240Y757080I116840J0D01*
G01*
G75*
G02*
X1503080Y640240I-30J-116870D01*
G01*
X1523390D01*
G75*
G02*
X1550900Y715540I116840J-10D01*
G01*
X1081800Y1184640D01*
X1049830D01*
G75*
G02*
X848400Y1265240I-84590J80600D01*
G01*
X828080D01*
G75*
G02*
X711240Y1148400I-116840J0D01*
G01*
G75*
G02*
X594400Y1265230I0J116830D01*
G01*
G75*
G02*
Y1265240I286480J10D01*
G01*
X561360D01*
G37*
X1599600Y1240240D02*
G36*
X1599600Y1240240D02*
G75*
G02*
X1601840Y1265240I140670J0D01*
G01*
X1229280D01*
X1697260Y797260D01*
G75*
G02*
X1720880Y740240I-57070J-57040D01*
G01*
G75*
G02*
X1720840Y737750I-10190480J162460D01*
G01*
Y724830D01*
G75*
G02*
X1757070Y640240I-80620J-84580D01*
G01*
X2230120D01*
G75*
G02*
X2228400Y660230I115100J19970D01*
G01*
G75*
G02*
Y660240I286480J10D01*
G01*
G75*
G02*
X2345240Y777080I116840J0D01*
G01*
G75*
G02*
X2462080Y660240I-30J-116870D01*
G01*
G75*
G02*
X2460350Y640240I-116860J30D01*
G01*
X2484120D01*
G75*
G02*
X2482400Y660240I115120J19970D01*
G01*
G75*
G02*
X2513640Y739770I116840J10D01*
G01*
Y840650D01*
G75*
G02*
X2477390Y925240I80590J84600D01*
G01*
G75*
G02*
X2519010Y1014640I116840J0D01*
G01*
X2415470D01*
G75*
G02*
X2457080Y925240I-75240J-89400D01*
G01*
G75*
G02*
X2340240Y808400I-116840J0D01*
G01*
G75*
G02*
X2223400Y925240I0J116840D01*
G01*
G75*
G02*
X2265010Y1014640I116840J0D01*
G01*
X1782730D01*
G75*
G02*
X1723220Y1038220I-2510J80560D01*
G01*
X1683220Y1078220D01*
G75*
G02*
X1660320Y1124520I56940J56970D01*
G01*
G75*
G02*
X1599600Y1240240I79920J115720D01*
G01*
G37*
X1880870Y1240230D02*
G36*
X1880870Y1240230D02*
G75*
G02*
X1865270Y1175840I-140650J-10D01*
G01*
X2093700D01*
G75*
G02*
X2054600Y1260200I71450J84360D01*
G01*
G75*
G02*
Y1260240I104170J20D01*
G01*
G75*
G02*
X2054710Y1265240I110650J70D01*
G01*
X1878630D01*
G75*
G02*
X1880870Y1240230I-138450J-25010D01*
G01*
G37*
X2591080Y1042040D02*
G36*
X2591080Y1042040D02*
G75*
G02*
X2594240Y1042080I3140J-123310D01*
G01*
G75*
G02*
X2711070Y925230I0J-116850D01*
G01*
G75*
G02*
X2674840Y840650I-116840J0D01*
G01*
Y749330D01*
G75*
G02*
X2716080Y660240I-75610J-89090D01*
G01*
G75*
G02*
X2714360Y640240I-116830J-30D01*
G01*
X2919120D01*
Y1265240D01*
X2875840D01*
Y1148640D01*
X2654640D01*
Y1195060D01*
G75*
G02*
X2645840Y1184450I-89070J64920D01*
G01*
Y1132730D01*
G75*
G03*
X2645880Y1130240I10190480J162460D01*
G01*
G75*
G02*
X2622260Y1073220I-80650J10D01*
G01*
X2591080Y1042040D01*
G37*
X561360Y1715240D02*
G36*
X561360Y1715240D02*
Y1265240D01*
X594400D01*
G75*
G02*
X711240Y1382080I116840J0D01*
G01*
G75*
G02*
X828080Y1265240I-30J-116870D01*
G01*
X848400D01*
G75*
G02*
Y1265250I190990J10D01*
G01*
G75*
G02*
X888640Y1353470I116830J0D01*
G01*
Y1630650D01*
G75*
G02*
X852390Y1715240I80570J84590D01*
G01*
X832080D01*
G75*
G02*
X715240Y1598400I-116840J0D01*
G01*
G75*
G02*
X598400Y1715230I0J116830D01*
G01*
G75*
G02*
Y1715240I286480J10D01*
G01*
X561360D01*
G37*
X1049840Y1630650D02*
G36*
X1049840Y1630650D02*
Y1345840D01*
X1112750D01*
G75*
G02*
X1172260Y1322260I2450J-80700D01*
G01*
X1229280Y1265240D01*
X1601840D01*
G75*
G02*
X1675780Y1365240I138400J-25000D01*
G01*
G75*
G02*
X1599590Y1490240I64450J125000D01*
G01*
G75*
G02*
X1659640Y1605490I140630J-10D01*
G01*
Y1624990D01*
G75*
G02*
X1601840Y1715240I80580J115240D01*
G01*
X1340080D01*
G75*
G02*
X1223240Y1598400I-116840J0D01*
G01*
G75*
G02*
X1106400Y1715220I0J116820D01*
G01*
G75*
G02*
Y1715240I127320J10D01*
G01*
X1086080D01*
G75*
G02*
X1049840Y1630650I-116840J0D01*
G01*
G37*
X1820840Y1624990D02*
G36*
X1820840Y1624990D02*
Y1605490D01*
G75*
G02*
X1880880Y1490240I-80600J-115250D01*
G01*
G75*
G02*
X1804700Y1365240I-140650J0D01*
G01*
G75*
G02*
X1878630Y1265240I-64490J-125000D01*
G01*
X2054710D01*
G75*
G02*
X2265240Y1307580I110530J-5010D01*
G01*
G75*
G02*
X2465240I100000J-47360D01*
G01*
G75*
G02*
X2654640Y1325420I100000J-47340D01*
G01*
Y1371840D01*
X2875840D01*
Y1265240D01*
X2919120D01*
Y1715240D01*
X2793390D01*
G75*
G02*
X2590240Y1637100I-203140J224990D01*
G01*
G75*
G02*
X2387080Y1715240I-20J303120D01*
G01*
X1999280D01*
X1967260Y1683220D01*
G75*
G02*
X1907750Y1659640I-57020J57020D01*
G01*
X1855490D01*
G75*
G02*
X1820840Y1624990I-115300J80650D01*
G01*
G37*
X561360Y2015240D02*
G36*
X561360Y2015240D02*
Y1715240D01*
X598400D01*
G75*
G02*
X715240Y1832080I116840J0D01*
G01*
G75*
G02*
X832080Y1715240I-30J-116870D01*
G01*
X852390D01*
G75*
G02*
X888640Y1799830I116820J0D01*
G01*
Y1930650D01*
G75*
G02*
X852400Y2015240I80600J84590D01*
G01*
X832080D01*
G75*
G02*
X715240Y1898400I-116840J0D01*
G01*
G75*
G02*
X598400Y2015230I0J116830D01*
G01*
G75*
G02*
Y2015240I286480J10D01*
G01*
X561360D01*
G37*
X1049840Y1816680D02*
G36*
X1049840Y1816680D02*
Y1799830D01*
G75*
G02*
X1086080Y1715240I-80600J-84590D01*
G01*
X1106400D01*
G75*
G02*
X1111720Y1750080I116820J-10D01*
G01*
X1060900Y1800900D01*
G75*
G02*
X1049840Y1816680I39040J39130D01*
G01*
G37*
X1155840Y1919800D02*
G36*
X1155840Y1919800D02*
Y1863320D01*
X1191480Y1827680D01*
G75*
G02*
X1340080Y1715240I31760J-112450D01*
G01*
X1601840D01*
G75*
G02*
X1599600Y1740230I138380J25000D01*
G01*
G75*
G02*
Y1740240I190990J10D01*
G01*
G75*
G02*
X1855490Y1820840I140640J0D01*
G01*
X1876800D01*
X1994640Y1938680D01*
Y2015240D01*
X1340080D01*
G75*
G02*
X1155840Y1919800I-116840J0D01*
G01*
G37*
X2132260Y1848220D02*
G36*
X2132260Y1848220D02*
X1999280Y1715240D01*
X2387080D01*
G75*
G02*
X2287100Y1940210I203140J224980D01*
G01*
G75*
G02*
Y1940240I429720J20D01*
G01*
G75*
G02*
Y1940250I572960J10D01*
G01*
G75*
G02*
X2296520Y2015240I303150J10D01*
G01*
X2155840D01*
Y1907730D01*
G75*
G03*
X2155880Y1905240I10190480J162460D01*
G01*
G75*
G02*
X2132260Y1848220I-80650J10D01*
G01*
G37*
X2883950Y2015240D02*
G36*
X2883950Y2015240D02*
G75*
G02*
X2893380Y1940240I-293740J-75030D01*
G01*
G75*
G02*
Y1940230I-572960J0D01*
G01*
G75*
G02*
X2793390Y1715240I-303130J0D01*
G01*
X2919120D01*
Y2015240D01*
X2883950D01*
G37*
X561360Y2869120D02*
G36*
X561360Y2869120D02*
Y2015240D01*
X598400D01*
G75*
G02*
X715240Y2132080I116840J0D01*
G01*
G75*
G02*
X832080Y2015240I-30J-116870D01*
G01*
X852400D01*
G75*
G02*
X889640Y2100770I116840J0D01*
G01*
Y2564450D01*
G75*
G02*
X880840Y2575060I77350J73110D01*
G01*
Y2528640D01*
X659640D01*
Y2751840D01*
X880840D01*
Y2705420D01*
G75*
G02*
X1070240Y2687580I89400J-65180D01*
G01*
G75*
G02*
X1270240I100000J-47360D01*
G01*
G75*
G02*
X1480880Y2640240I100000J-47350D01*
G01*
G75*
G02*
X1425840Y2544590I-110670J20D01*
G01*
Y2164220D01*
X1425880Y2162240D01*
G75*
G02*
X1409580Y2122900I-55630J0D01*
G01*
X1335230Y2048550D01*
G75*
G02*
X1340080Y2015240I-111990J-33310D01*
G01*
X1994640D01*
Y2207280D01*
G75*
G02*
X1992670Y2207820I11590J46150D01*
G01*
G75*
G02*
X1975840Y2204830I-22230J76270D01*
G01*
Y2204640D01*
X1909640D01*
Y2204830D01*
G75*
G02*
X1892740Y2207840I5490J79780D01*
G01*
G75*
G02*
X1789640Y2285220I-22510J77380D01*
G01*
G75*
G02*
Y2285240I95490J10D01*
G01*
Y2341800D01*
X1764220Y2367220D01*
G75*
G02*
X1740600Y2424200I56920J56980D01*
G01*
G75*
G02*
Y2424240I79030J20D01*
G01*
G75*
G02*
X1740640Y2426730I78190J-10D01*
G01*
Y2680650D01*
G75*
G02*
X1704400Y2765240I80600J84590D01*
G01*
G75*
G02*
X1767760Y2869120I116840J0D01*
G01*
X561360D01*
G37*
X1901840Y2680650D02*
G36*
X1901840Y2680650D02*
Y2457680D01*
X1927260Y2432260D01*
G75*
G02*
X1950880Y2375240I-57070J-57040D01*
G01*
G75*
G02*
X1950840Y2372750I-10190480J162460D01*
G01*
Y2365840D01*
X1975840D01*
Y2365650D01*
G75*
G02*
X1981070Y2365110I-6420J-87790D01*
G01*
X1994640Y2378680D01*
Y2680650D01*
G75*
G02*
X1958400Y2765240I80600J84590D01*
G01*
G75*
G02*
X2021760Y2869120I116840J0D01*
G01*
X1874710D01*
G75*
G02*
X1938070Y2765230I-53490J-103890D01*
G01*
G75*
G02*
X1901840Y2680650I-116840J0D01*
G01*
G37*
X2155840Y2342750D02*
G36*
X2155840Y2342750D02*
Y2015240D01*
X2296520D01*
G75*
G02*
X2590240Y2243380I293710J-74990D01*
G01*
G75*
G02*
X2883950Y2015240I-10J-303150D01*
G01*
X2919120D01*
Y2869120D01*
X2128710D01*
G75*
G02*
X2192070Y2765230I-53490J-103890D01*
G01*
G75*
G02*
X2155840Y2680650I-116840J0D01*
G01*
Y2347730D01*
G75*
G03*
X2155880Y2345240I10190480J162460D01*
G01*
G75*
G02*
X2155840Y2342750I-10190480J162460D01*
G01*
G37*
D02*
D12*
X647740Y1265240D02*
X594400D01*
X651740Y1715240D02*
X598400D01*
X651740Y2015240D02*
X598400D01*
X711240Y1201740D02*
Y1148400D01*
Y1328740D02*
Y1382080D01*
X712940Y2640240D02*
X659640D01*
X715240Y1651740D02*
Y1598400D01*
Y1778740D02*
Y1832080D01*
Y1951740D02*
Y1898400D01*
Y2078740D02*
Y2132080D01*
X770240Y2581940D02*
Y2528640D01*
Y2698540D02*
Y2751840D01*
X774740Y1265240D02*
X828080D01*
X778740Y1715240D02*
X832080D01*
X778740Y2015240D02*
X832080D01*
X1322740Y640240D02*
X1269400D01*
X1386240Y576740D02*
Y523400D01*
Y703740D02*
Y757080D01*
X1449740Y640240D02*
X1503080D01*
X2276740Y925240D02*
X2223400D01*
X2281740Y660240D02*
X2228400D01*
X2340240Y861740D02*
Y808400D01*
X2340440Y1940240D02*
X2287100D01*
X2345240Y596740D02*
Y543400D01*
Y723740D02*
Y777080D01*
X2403740Y925240D02*
X2457080D01*
X2408740Y660240D02*
X2462080D01*
X2590240Y1690440D02*
Y1637100D01*
Y2190040D02*
Y2243380D01*
X2765240Y1201940D02*
Y1148640D01*
Y1318540D02*
Y1371840D01*
X2822540Y1260240D02*
X2875840D01*
X2840040Y1940240D02*
X2893380D01*
D02*
D13*
X711240Y1265240D02*
Y1069240D01*
X790240Y990240D01*
X1036240D01*
X1386240Y640240D01*
X715240Y1715240D02*
Y1269240D01*
X711240Y1265240D01*
X715240Y2015240D02*
Y1715240D01*
X770240Y2640240D02*
Y2360240D01*
X715240Y2305240D01*
Y2015240D01*
X969240Y1715240D02*
Y2015240D01*
Y1715240D02*
Y1269240D01*
X965240Y1265240D01*
X970240Y2640240D02*
Y2016240D01*
X969240Y2015240D01*
X1640240Y640240D02*
Y740240D01*
X1115240Y1265240D01*
X965240D01*
X1740240Y1240240D02*
Y1135240D01*
X1780240Y1095240D01*
X2530240D01*
X2565240Y1130240D01*
Y1260240D01*
X1740240Y1740240D02*
X1910240D01*
X2075240Y1905240D01*
Y2345240D01*
X1740240Y1740240D02*
Y1490240D01*
X1870240Y2285240D02*
Y2375240D01*
X1821240Y2424240D01*
Y2765240D01*
X2015240Y2285240D02*
X2075240Y2345240D01*
Y2765240D01*
X2225240Y385240D02*
X1446240D01*
X1386240Y445240D01*
Y640240D01*
X2340240Y925240D02*
Y665240D01*
X2345240Y660240D01*
Y505240D01*
X2225240Y385240D01*
X2594240Y925240D02*
Y665240D01*
X2599240Y660240D01*
X2765240Y750240D02*
Y535240D01*
X2615240Y385240D01*
X2225240D01*
X2765240Y1260240D02*
Y750240D01*
Y1260240D02*
Y1400240D01*
X2590240Y1575240D01*
Y1940240D01*
D02*
D14*
X1905240Y2285240D02*
X1870240D01*
X1980240D02*
X2015240D01*
D02*
D15*
X1170240Y2640240D02*
Y2290240D01*
X1100240Y2220240D01*
Y1840240D01*
X1223240Y1717240D01*
Y1715240D01*
X1370240Y2640240D02*
Y2162240D01*
X1223240Y2015240D01*
D02*
D16*
X1740240Y1240240D03*
Y1490240D03*
Y1740240D03*
D02*
D17*
X840240Y590240D03*
X2590240Y1940240D03*
D02*
D18*
X711240Y1265240D03*
X715240Y1715240D03*
Y2015240D03*
X965240Y1265240D03*
X969240Y1715240D03*
Y2015240D03*
X1223240Y1715240D03*
Y2015240D03*
X1386240Y640240D03*
X1640240D03*
X1821240Y2765240D03*
X2075240D03*
X2340240Y925240D03*
X2345240Y660240D03*
X2594240Y925240D03*
X2599240Y660240D03*
D02*
D19*
X770240Y2640240D03*
X2765240Y1260240D03*
D02*
D70*
X970240Y2640240D03*
X1170240D03*
X1370240D03*
X2165240Y1260240D03*
X2365240D03*
X2565240D03*
D02*
D71*
X1905240Y2285240D03*
D02*
D20*
X1980240D03*
X0Y0D02*
M02*
