G04 DesignSpark PCB Gerber Version 13.0 Build *
%FSLAX35Y35*%
%MOMM*%
%ADD10C,0.12700*%
X0Y0D02*
D02*
D10*
X1445800Y1140240D02*
X1477550D01*
X1493430Y1148180D01*
X1501370Y1156120D01*
X1509300Y1171990D01*
Y1187870D01*
X1501370Y1203740D01*
X1493430Y1211680D01*
X1477550Y1219620D01*
X1445800D01*
X1429930Y1211680D01*
X1421990Y1203740D01*
X1414050Y1187870D01*
Y1171990D01*
X1421990Y1156120D01*
X1429930Y1148180D01*
X1445800Y1140240D01*
X1414050Y1267240D02*
X1509300D01*
X1414050Y1346620D01*
X1509300D01*
X1915240Y1915240D02*
X1565240D01*
Y1065240D01*
X1915240D01*
Y1915240D01*
X2215240Y979300D02*
X2175550Y884050D01*
X2135860Y979300D01*
X2088240Y939620D02*
X2072360Y947550D01*
X2048550D01*
X2032680Y939620D01*
X2024740Y923740D01*
Y899930D01*
X2032680Y891990D01*
X2048550Y884050D01*
X2064430D01*
X2080300Y891990D01*
X2088240Y899930D01*
Y907870D01*
X2080300Y915800D01*
X2064430Y923740D01*
X2048550D01*
X2032680Y915800D01*
X2024740Y907870D01*
Y899930D02*
Y884050D01*
X1948010Y947550D02*
X1910970D01*
X1929490Y963430D02*
Y891990D01*
X1921550Y884050D01*
X1913610D01*
X1905680Y891990D01*
X1821010Y947550D02*
X1783970D01*
X1802490Y963430D02*
Y891990D01*
X1794550Y884050D01*
X1786610D01*
X1778680Y891990D01*
X2308490Y798240D02*
X2689490D01*
Y1052240D01*
X2244990D01*
Y861740D01*
X2308490Y798240D01*
X2776740Y2384050D02*
X2840240D01*
X2784680Y2439620D01*
X2776740Y2455490D01*
X2784680Y2471370D01*
X2800550Y2479300D01*
X2824360D01*
X2840240Y2471370D01*
X2705300Y2391990D02*
X2689430Y2384050D01*
X2673550D01*
X2657680Y2391990D01*
X2649740Y2407870D01*
Y2455490D01*
X2657680Y2471370D01*
X2673550Y2479300D01*
X2689430D01*
X2705300Y2471370D01*
X2713240Y2455490D01*
Y2407870D01*
X2705300Y2391990D01*
X2657680Y2471370D01*
X2522740Y2384050D02*
X2586240D01*
X2530680Y2439620D01*
X2522740Y2455490D01*
X2530680Y2471370D01*
X2546550Y2479300D01*
X2570360D01*
X2586240Y2471370D01*
X2459240Y2407870D02*
X2451300Y2423740D01*
X2435430Y2431680D01*
X2419550D01*
X2403680Y2423740D01*
X2395740Y2407870D01*
X2403680Y2391990D01*
X2419550Y2384050D01*
X2435430D01*
X2451300Y2391990D01*
X2459240Y2407870D01*
Y2431680D01*
X2451300Y2455490D01*
X2435430Y2471370D01*
X2419550Y2479300D01*
X2332240Y2384050D02*
X2252860Y2479300D01*
X2197300Y2391990D02*
X2181430Y2384050D01*
X2165550D01*
X2149680Y2391990D01*
X2141740Y2407870D01*
Y2455490D01*
X2149680Y2471370D01*
X2165550Y2479300D01*
X2181430D01*
X2197300Y2471370D01*
X2205240Y2455490D01*
Y2407870D01*
X2197300Y2391990D01*
X2149680Y2471370D01*
X2014740Y2384050D02*
X2078240D01*
X2022680Y2439620D01*
X2014740Y2455490D01*
X2022680Y2471370D01*
X2038550Y2479300D01*
X2062360D01*
X2078240Y2471370D01*
X1951240Y2384050D02*
X1871860Y2479300D01*
X1808360Y2384050D02*
X1776610D01*
X1792490D02*
Y2479300D01*
X1808360Y2463430D01*
X1673430Y2431680D02*
X1657550D01*
X1641680Y2439620D01*
X1633740Y2455490D01*
X1641680Y2471370D01*
X1657550Y2479300D01*
X1673430D01*
X1689300Y2471370D01*
X1697240Y2455490D01*
X1689300Y2439620D01*
X1673430Y2431680D01*
X1689300Y2423740D01*
X1697240Y2407870D01*
X1689300Y2391990D01*
X1673430Y2384050D01*
X1657550D01*
X1641680Y2391990D01*
X1633740Y2407870D01*
X1641680Y2423740D01*
X1657550Y2431680D01*
X2840240Y2539050D02*
Y2634300D01*
Y2586680D02*
X2816430D01*
X2760860Y2634300D01*
X2816430Y2586680D02*
X2760860Y2539050D01*
X2681490D02*
Y2602550D01*
Y2626370D02*
X2586240Y2539050D02*
Y2602550D01*
Y2578740D02*
X2578300Y2594620D01*
X2562430Y2602550D01*
X2546550D01*
X2530680Y2594620D01*
X2522740Y2578740D01*
Y2539050D01*
X2459240Y2562870D02*
X2451300Y2546990D01*
X2435430Y2539050D01*
X2419550D01*
X2403680Y2546990D01*
X2395740Y2562870D01*
Y2578740D01*
X2403680Y2594620D01*
X2419550Y2602550D01*
X2435430D01*
X2451300Y2594620D01*
X2459240Y2578740D01*
Y2562870D01*
X2332240Y2539050D02*
Y2634300D01*
Y2570800D02*
X2308430D01*
X2268740Y2602550D01*
X2308430Y2570800D02*
X2268740Y2539050D01*
X2205240Y2602550D02*
Y2562870D01*
X2197300Y2546990D01*
X2181430Y2539050D01*
X2165550D01*
X2149680Y2546990D01*
X2141740Y2562870D01*
Y2602550D02*
Y2539050D01*
X2078240D02*
Y2602550D01*
Y2578740D02*
X2070300Y2594620D01*
X2054430Y2602550D01*
X2038550D01*
X2022680Y2594620D01*
X2014740Y2578740D01*
Y2539050D01*
X1919490D02*
Y2602550D01*
Y2626370D02*
X1800430Y2539050D02*
X1768680D01*
X1784550D02*
Y2634300D01*
X1800430D02*
X1768680D01*
X1617860Y2554930D02*
X1625800Y2546990D01*
X1641680Y2539050D01*
X1665490D01*
X1681360Y2546990D01*
X1689300Y2554930D01*
X1697240Y2570800D01*
Y2602550D01*
X1689300Y2618430D01*
X1681360Y2626370D01*
X1665490Y2634300D01*
X1641680D01*
X1625800Y2626370D01*
X1617860Y2618430D01*
X1530550Y2539050D02*
Y2634300D01*
X1570240D02*
X1490860D01*
X2840240Y2737870D02*
X2832300Y2721990D01*
X2816430Y2714050D01*
X2784680D01*
X2768800Y2721990D01*
X2760860Y2737870D01*
X2768800Y2753740D01*
X2784680Y2761680D01*
X2816430D01*
X2832300Y2769620D01*
X2840240Y2785490D01*
X2832300Y2801370D01*
X2816430Y2809300D01*
X2784680D01*
X2768800Y2801370D01*
X2760860Y2785490D01*
X2700010Y2777550D02*
X2662970D01*
X2681490Y2793430D02*
Y2721990D01*
X2673550Y2714050D01*
X2665610D01*
X2657680Y2721990D01*
X2586240Y2769620D02*
X2570360Y2777550D01*
X2546550D01*
X2530680Y2769620D01*
X2522740Y2753740D01*
Y2729930D01*
X2530680Y2721990D01*
X2546550Y2714050D01*
X2562430D01*
X2578300Y2721990D01*
X2586240Y2729930D01*
Y2737870D01*
X2578300Y2745800D01*
X2562430Y2753740D01*
X2546550D01*
X2530680Y2745800D01*
X2522740Y2737870D01*
Y2729930D02*
Y2714050D01*
X2395740Y2769620D02*
X2411610Y2777550D01*
X2435430D01*
X2451300Y2769620D01*
X2459240Y2753740D01*
Y2737870D01*
X2451300Y2721990D01*
X2435430Y2714050D01*
X2411610D01*
X2395740Y2721990D01*
X2332240Y2714050D02*
Y2809300D01*
Y2745800D02*
X2308430D01*
X2268740Y2777550D01*
X2308430Y2745800D02*
X2268740Y2714050D01*
X2205240Y2745800D02*
X2141740D01*
X2014740Y2769620D02*
X2030610Y2777550D01*
X2054430D01*
X2070300Y2769620D01*
X2078240Y2753740D01*
Y2737870D01*
X2070300Y2721990D01*
X2054430Y2714050D01*
X2030610D01*
X2014740Y2721990D01*
X1951240Y2714050D02*
Y2809300D01*
Y2753740D02*
X1943300Y2769620D01*
X1927430Y2777550D01*
X1911550D01*
X1895680Y2769620D01*
X1887740Y2753740D01*
Y2714050D01*
X1824240Y2769620D02*
X1808360Y2777550D01*
X1784550D01*
X1768680Y2769620D01*
X1760740Y2753740D01*
Y2729930D01*
X1768680Y2721990D01*
X1784550Y2714050D01*
X1800430D01*
X1816300Y2721990D01*
X1824240Y2729930D01*
Y2737870D01*
X1816300Y2745800D01*
X1800430Y2753740D01*
X1784550D01*
X1768680Y2745800D01*
X1760740Y2737870D01*
Y2729930D02*
Y2714050D01*
X1697240D02*
Y2777550D01*
Y2753740D02*
X1689300Y2769620D01*
X1673430Y2777550D01*
X1657550D01*
X1641680Y2769620D01*
X1633740Y2753740D01*
Y2714050D01*
X2995240Y1430240D02*
Y1070240D01*
X1935240D01*
Y1530240D01*
X2895240D01*
X2995240Y1430240D01*
X0Y0D02*
M02*
