G04 DesignSpark PCB Gerber Version 13.0 Build *
%FSLAX35Y35*%
%MOMM*%
%ADD10C,0.12700*%
%ADD75C,2.54000*%
X0Y0D02*
D02*
D10*
X965240Y1416050D02*
Y1511300D01*
X1012870D01*
X1028740Y1503370D01*
X1036680Y1495430D01*
X1044620Y1479550D01*
Y1447800D01*
X1036680Y1431930D01*
X1028740Y1423990D01*
X1012870Y1416050D01*
X965240D01*
X1048620Y1881930D02*
X1040680Y1873990D01*
X1024800Y1866050D01*
X1000990D01*
X985120Y1873990D01*
X977180Y1881930D01*
X969240Y1897800D01*
Y1929550D01*
X977180Y1945430D01*
X985120Y1953370D01*
X1000990Y1961300D01*
X1024800D01*
X1040680Y1953370D01*
X1048620Y1945430D01*
Y2181930D02*
X1040680Y2173990D01*
X1024800Y2166050D01*
X1000990D01*
X985120Y2173990D01*
X977180Y2181930D01*
X969240Y2197800D01*
Y2229550D01*
X977180Y2245430D01*
X985120Y2253370D01*
X1000990Y2261300D01*
X1024800D01*
X1040680Y2253370D01*
X1048620Y2245430D01*
X1103620Y2806930D02*
X1095680Y2798990D01*
X1079800Y2791050D01*
X1055990D01*
X1040120Y2798990D01*
X1032180Y2806930D01*
X1024240Y2822800D01*
Y2854550D01*
X1032180Y2870430D01*
X1040120Y2878370D01*
X1055990Y2886300D01*
X1079800D01*
X1095680Y2878370D01*
X1103620Y2870430D01*
X1149800Y788680D02*
X1165680Y780740D01*
X1173620Y764870D01*
X1165680Y748990D01*
X1149800Y741050D01*
X1094240D01*
Y836300D01*
X1149800D01*
X1165680Y828370D01*
X1173620Y812490D01*
X1165680Y796620D01*
X1149800Y788680D01*
X1094240D01*
X1219240Y1416050D02*
Y1511300D01*
X1266870D01*
X1282740Y1503370D01*
X1290680Y1495430D01*
X1298620Y1479550D01*
Y1447800D01*
X1290680Y1431930D01*
X1282740Y1423990D01*
X1266870Y1416050D01*
X1219240D01*
X1302620Y1881930D02*
X1294680Y1873990D01*
X1278800Y1866050D01*
X1254990D01*
X1239120Y1873990D01*
X1231180Y1881930D01*
X1223240Y1897800D01*
Y1929550D01*
X1231180Y1945430D01*
X1239120Y1953370D01*
X1254990Y1961300D01*
X1278800D01*
X1294680Y1953370D01*
X1302620Y1945430D01*
Y2181930D02*
X1294680Y2173990D01*
X1278800Y2166050D01*
X1254990D01*
X1239120Y2173990D01*
X1231180Y2181930D01*
X1223240Y2197800D01*
Y2229550D01*
X1231180Y2245430D01*
X1239120Y2253370D01*
X1254990Y2261300D01*
X1278800D01*
X1294680Y2253370D01*
X1302620Y2245430D01*
X1303620Y2806930D02*
X1295680Y2798990D01*
X1279800Y2791050D01*
X1255990D01*
X1240120Y2798990D01*
X1232180Y2806930D01*
X1224240Y2822800D01*
Y2854550D01*
X1232180Y2870430D01*
X1240120Y2878370D01*
X1255990Y2886300D01*
X1279800D01*
X1295680Y2878370D01*
X1303620Y2870430D01*
X1503620Y2806930D02*
X1495680Y2798990D01*
X1479800Y2791050D01*
X1455990D01*
X1440120Y2798990D01*
X1432180Y2806930D01*
X1424240Y2822800D01*
Y2854550D01*
X1432180Y2870430D01*
X1440120Y2878370D01*
X1455990Y2886300D01*
X1479800D01*
X1495680Y2878370D01*
X1503620Y2870430D01*
X1556620Y1881930D02*
X1548680Y1873990D01*
X1532800Y1866050D01*
X1508990D01*
X1493120Y1873990D01*
X1485180Y1881930D01*
X1477240Y1897800D01*
Y1929550D01*
X1485180Y1945430D01*
X1493120Y1953370D01*
X1508990Y1961300D01*
X1532800D01*
X1548680Y1953370D01*
X1556620Y1945430D01*
Y2181930D02*
X1548680Y2173990D01*
X1532800Y2166050D01*
X1508990D01*
X1493120Y2173990D01*
X1485180Y2181930D01*
X1477240Y2197800D01*
Y2229550D01*
X1485180Y2245430D01*
X1493120Y2253370D01*
X1508990Y2261300D01*
X1532800D01*
X1548680Y2253370D01*
X1556620Y2245430D01*
X1703620Y2806930D02*
X1695680Y2798990D01*
X1679800Y2791050D01*
X1655990D01*
X1640120Y2798990D01*
X1632180Y2806930D01*
X1624240Y2822800D01*
Y2854550D01*
X1632180Y2870430D01*
X1640120Y2878370D01*
X1655990Y2886300D01*
X1679800D01*
X1695680Y2878370D01*
X1703620Y2870430D01*
X1640240Y791050D02*
Y886300D01*
X1687870D01*
X1703740Y878370D01*
X1711680Y870430D01*
X1719620Y854550D01*
Y822800D01*
X1711680Y806930D01*
X1703740Y798990D01*
X1687870Y791050D01*
X1640240D01*
X1894240D02*
Y886300D01*
X1941870D01*
X1957740Y878370D01*
X1965680Y870430D01*
X1973620Y854550D01*
Y822800D01*
X1965680Y806930D01*
X1957740Y798990D01*
X1941870Y791050D01*
X1894240D01*
X1994240Y1391050D02*
X2033930Y1486300D01*
X2073620Y1391050D01*
X2010120Y1430740D02*
X2057740D01*
X1994240Y1641050D02*
X2033930Y1736300D01*
X2073620Y1641050D01*
X2010120Y1680740D02*
X2057740D01*
X1994240Y1891050D02*
X2033930Y1986300D01*
X2073620Y1891050D01*
X2010120Y1930740D02*
X2057740D01*
X2154620Y2931930D02*
X2146680Y2923990D01*
X2130800Y2916050D01*
X2106990D01*
X2091120Y2923990D01*
X2083180Y2931930D01*
X2075240Y2947800D01*
Y2979550D01*
X2083180Y2995430D01*
X2091120Y3003370D01*
X2106990Y3011300D01*
X2130800D01*
X2146680Y3003370D01*
X2154620Y2995430D01*
X2408620Y2931930D02*
X2400680Y2923990D01*
X2384800Y2916050D01*
X2360990D01*
X2345120Y2923990D01*
X2337180Y2931930D01*
X2329240Y2947800D01*
Y2979550D01*
X2337180Y2995430D01*
X2345120Y3003370D01*
X2360990Y3011300D01*
X2384800D01*
X2400680Y3003370D01*
X2408620Y2995430D01*
X2498620Y1426930D02*
X2490680Y1418990D01*
X2474800Y1411050D01*
X2450990D01*
X2435120Y1418990D01*
X2427180Y1426930D01*
X2419240Y1442800D01*
Y1474550D01*
X2427180Y1490430D01*
X2435120Y1498370D01*
X2450990Y1506300D01*
X2474800D01*
X2490680Y1498370D01*
X2498620Y1490430D01*
X2673620Y1091930D02*
X2665680Y1083990D01*
X2649800Y1076050D01*
X2625990D01*
X2610120Y1083990D01*
X2602180Y1091930D01*
X2594240Y1107800D01*
Y1139550D01*
X2602180Y1155430D01*
X2610120Y1163370D01*
X2625990Y1171300D01*
X2649800D01*
X2665680Y1163370D01*
X2673620Y1155430D01*
X2678620Y826930D02*
X2670680Y818990D01*
X2654800Y811050D01*
X2630990D01*
X2615120Y818990D01*
X2607180Y826930D01*
X2599240Y842800D01*
Y874550D01*
X2607180Y890430D01*
X2615120Y898370D01*
X2630990Y906300D01*
X2654800D01*
X2670680Y898370D01*
X2678620Y890430D01*
X2698620Y1426930D02*
X2690680Y1418990D01*
X2674800Y1411050D01*
X2650990D01*
X2635120Y1418990D01*
X2627180Y1426930D01*
X2619240Y1442800D01*
Y1474550D01*
X2627180Y1490430D01*
X2635120Y1498370D01*
X2650990Y1506300D01*
X2674800D01*
X2690680Y1498370D01*
X2698620Y1490430D01*
X2898620Y1426930D02*
X2890680Y1418990D01*
X2874800Y1411050D01*
X2850990D01*
X2835120Y1418990D01*
X2827180Y1426930D01*
X2819240Y1442800D01*
Y1474550D01*
X2827180Y1490430D01*
X2835120Y1498370D01*
X2850990Y1506300D01*
X2874800D01*
X2890680Y1498370D01*
X2898620Y1490430D01*
X2899800Y2138680D02*
X2915680Y2130740D01*
X2923620Y2114870D01*
X2915680Y2098990D01*
X2899800Y2091050D01*
X2844240D01*
Y2186300D01*
X2899800D01*
X2915680Y2178370D01*
X2923620Y2162490D01*
X2915680Y2146620D01*
X2899800Y2138680D01*
X2844240D01*
X2927620Y1091930D02*
X2919680Y1083990D01*
X2903800Y1076050D01*
X2879990D01*
X2864120Y1083990D01*
X2856180Y1091930D01*
X2848240Y1107800D01*
Y1139550D01*
X2856180Y1155430D01*
X2864120Y1163370D01*
X2879990Y1171300D01*
X2903800D01*
X2919680Y1163370D01*
X2927620Y1155430D01*
X2932620Y826930D02*
X2924680Y818990D01*
X2908800Y811050D01*
X2884990D01*
X2869120Y818990D01*
X2861180Y826930D01*
X2853240Y842800D01*
Y874550D01*
X2861180Y890430D01*
X2869120Y898370D01*
X2884990Y906300D01*
X2908800D01*
X2924680Y898370D01*
X2932620Y890430D01*
X3098620Y1426930D02*
X3090680Y1418990D01*
X3074800Y1411050D01*
X3050990D01*
X3035120Y1418990D01*
X3027180Y1426930D01*
X3019240Y1442800D01*
Y1474550D01*
X3027180Y1490430D01*
X3035120Y1498370D01*
X3050990Y1506300D01*
X3074800D01*
X3090680Y1498370D01*
X3098620Y1490430D01*
D02*
D75*
X711240Y1265240D03*
X715240Y1715240D03*
Y2015240D03*
X770240Y2640240D03*
X840240Y590240D03*
X965240Y1265240D03*
X969240Y1715240D03*
Y2015240D03*
X970240Y2640240D03*
X1170240D03*
X1223240Y1715240D03*
Y2015240D03*
X1370240Y2640240D03*
X1386240Y640240D03*
X1640240D03*
X1740240Y1240240D03*
Y1490240D03*
Y1740240D03*
X1821240Y2765240D03*
X2075240D03*
X2165240Y1260240D03*
X2340240Y925240D03*
X2345240Y660240D03*
X2365240Y1260240D03*
X2565240D03*
X2590240Y1940240D03*
X2594240Y925240D03*
X2599240Y660240D03*
X2765240Y1260240D03*
X0Y0D02*
M02*
