G04 DesignSpark PCB Gerber Version 13.0 Build *
%FSLAX35Y35*%
%MOMM*%
%ADD24R,1.55240X1.57240*%
%ADD27C,0.95240*%
%ADD25C,1.55240*%
%ADD23C,1.67640*%
%ADD21C,2.15240*%
%ADD22C,5.40240*%
%AMT26*0 Bullet Pad at angle 90*4,1,28,0.37620,-0.47620,0.37620,0.47620,0.10000,0.47620,0.04030,0.47240,-0.01840,0.46110,-0.07520,0.44260,-0.12920,0.41710,-0.17960,0.38500,-0.22560,0.34690,-0.26650,0.30330,-0.30160,0.25490,-0.33030,0.20250,-0.35220,0.14690,-0.36700,0.08900,-0.37440,0.02970,-0.37430,-0.02990,-0.36680,-0.08910,-0.35190,-0.14690,-0.32990,-0.20230,-0.30110,-0.25450,-0.26600,-0.30270,-0.22510,-0.34610,-0.17910,-0.38410,-0.12870,-0.41600,-0.07470,-0.44130,-0.01800,-0.45970,0.04050,-0.47080,0.10000,-0.47620,0.37620,-0.47620,0*%
%ADD26T26*%
%AMT28*0 Bullet Pad at angle 270*4,1,28,-0.37620,0.47620,-0.37620,-0.47620,-0.10000,-0.47620,-0.04030,-0.47240,0.01840,-0.46110,0.07520,-0.44260,0.12920,-0.41710,0.17960,-0.38500,0.22560,-0.34690,0.26650,-0.30330,0.30160,-0.25490,0.33030,-0.20250,0.35220,-0.14690,0.36700,-0.08900,0.37440,-0.02970,0.37430,0.02990,0.36680,0.08910,0.35190,0.14690,0.32990,0.20230,0.30110,0.25450,0.26600,0.30270,0.22510,0.34610,0.17910,0.38410,0.12870,0.41600,0.07470,0.44130,0.01800,0.45970,-0.04050,0.47080,-0.10000,0.47620,-0.37620,0.47620,0*%
%ADD28T28*%
X0Y0D02*
D02*
D21*
X1740240Y1240240D03*
Y1490240D03*
Y1740240D03*
D02*
D22*
X840240Y590240D03*
X2590240Y1940240D03*
D02*
D23*
X711240Y1265240D03*
X715240Y1715240D03*
Y2015240D03*
X965240Y1265240D03*
X969240Y1715240D03*
Y2015240D03*
X1223240Y1715240D03*
Y2015240D03*
X1386240Y640240D03*
X1640240D03*
X1821240Y2765240D03*
X2075240D03*
X2340240Y925240D03*
X2345240Y660240D03*
X2594240Y925240D03*
X2599240Y660240D03*
D02*
D24*
X770240Y2640240D03*
X2765240Y1260240D03*
D02*
D25*
X970240Y2640240D03*
X1170240D03*
X1370240D03*
X2165240Y1260240D03*
X2365240D03*
X2565240D03*
D02*
D26*
X1905240Y2285240D03*
D02*
D28*
X1980240D03*
X0Y0D02*
M02*
