G04 DesignSpark PCB Gerber Version 13.0 Build *
%FSLAX35Y35*%
%MOMM*%
%ADD10C,0.12700*%
X0Y0D02*
D02*
D10*
X540240Y2810240D02*
Y2450240D01*
X1600240D01*
Y2910240D01*
X640240D01*
X540240Y2810240D01*
X683490Y1842240D02*
X1318490D01*
Y1588240D01*
X619990D01*
Y1778740D01*
X683490Y1842240D01*
Y2142240D02*
X1318490D01*
Y1888240D01*
X619990D01*
Y2078740D01*
X683490Y2142240D01*
X690240Y895240D02*
X535240Y740240D01*
Y440240D01*
X690240Y285240D01*
X990240D01*
X1145240Y440240D01*
Y740240D01*
X990240Y895240D01*
X690240D01*
X959680Y1090240D02*
Y1153740D01*
X991430Y1121990D02*
X927930D01*
X1092240Y1265240D02*
G75*
G02*
X838240Y1011240I-254000J0D01*
G01*
G75*
G02*
X584240Y1265240I0J254000D01*
G01*
G75*
G02*
X838240Y1519240I254000J0D01*
G01*
G75*
G02*
X1092240Y1265240I0J-254000D01*
G01*
X1155740Y1019180D02*
X1092240D01*
X1123990Y1050930D02*
Y987430D01*
X1450550Y1590240D02*
X1458490Y1598180D01*
X1466430Y1614050D01*
X1458490Y1629930D01*
X1450550Y1637870D01*
X1371180D01*
Y1653740D01*
Y1637870D02*
Y1606120D01*
X1466430Y1780740D02*
Y1717240D01*
X1410860Y1772800D01*
X1394990Y1780740D01*
X1379110Y1772800D01*
X1371180Y1756930D01*
Y1733120D01*
X1379110Y1717240D01*
X1450550Y1915240D02*
X1458490Y1923180D01*
X1466430Y1939050D01*
X1458490Y1954930D01*
X1450550Y1962870D01*
X1371180D01*
Y1978740D01*
Y1962870D02*
Y1931120D01*
X1466430Y2058120D02*
Y2089870D01*
Y2073990D02*
X1371180D01*
X1387050Y2058120D01*
X1634680Y465240D02*
Y528740D01*
X1666430Y496990D02*
X1602930D01*
X1767240Y640240D02*
G75*
G02*
X1513240Y386240I-254000J0D01*
G01*
G75*
G02*
X1259240Y640240I0J254000D01*
G01*
G75*
G02*
X1513240Y894240I254000J0D01*
G01*
G75*
G02*
X1767240Y640240I0J-254000D01*
G01*
X1830740Y394180D02*
X1767240D01*
X1798990Y425930D02*
Y362430D01*
X1835240Y2109930D02*
X1843180Y2101990D01*
X1859050Y2094050D01*
X1874930Y2101990D01*
X1882870Y2109930D01*
Y2189300D01*
X1898740D01*
X1882870D02*
X1851120D01*
X1970180Y2101990D02*
X1986050Y2094050D01*
X2001930D01*
X2017800Y2101990D01*
X2025740Y2117870D01*
X2017800Y2133740D01*
X2001930Y2141680D01*
X1986050D01*
X2001930D02*
X2017800Y2149620D01*
X2025740Y2165490D01*
X2017800Y2181370D01*
X2001930Y2189300D01*
X1986050D01*
X1970180Y2181370D01*
X2025240Y2345240D02*
X1860240D01*
Y2225240D01*
X2025240D01*
Y2345240D01*
X2106990Y2638240D02*
X1725990D01*
Y2892240D01*
X2170490D01*
Y2701740D01*
X2106990Y2638240D01*
X2230240Y2804300D02*
Y2732870D01*
X2238180Y2716990D01*
X2254050Y2709050D01*
X2285800D01*
X2301680Y2716990D01*
X2309620Y2732870D01*
Y2804300D01*
X2357240Y2732870D02*
X2365180Y2716990D01*
X2381050Y2709050D01*
X2412800D01*
X2428680Y2716990D01*
X2436620Y2732870D01*
X2428680Y2748740D01*
X2412800Y2756680D01*
X2381050D01*
X2365180Y2764620D01*
X2357240Y2780490D01*
X2365180Y2796370D01*
X2381050Y2804300D01*
X2412800D01*
X2428680Y2796370D01*
X2436620Y2780490D01*
X2539800Y2756680D02*
X2555680Y2748740D01*
X2563620Y2732870D01*
X2555680Y2716990D01*
X2539800Y2709050D01*
X2484240D01*
Y2804300D01*
X2539800D01*
X2555680Y2796370D01*
X2563620Y2780490D01*
X2555680Y2764620D01*
X2539800Y2756680D01*
X2484240D01*
X2611240Y2716990D02*
X2627120Y2709050D01*
X2650930D01*
X2666800Y2716990D01*
X2674740Y2732870D01*
Y2740800D01*
X2666800Y2756680D01*
X2650930Y2764620D01*
X2611240D01*
Y2804300D01*
X2674740D01*
X2738240D02*
X2777930Y2709050D01*
X2817620Y2804300D01*
X2313490Y787240D02*
X2694490D01*
Y533240D01*
X2249990D01*
Y723740D01*
X2313490Y787240D01*
X2440240Y2245240D02*
X2285240Y2090240D01*
Y1790240D01*
X2440240Y1635240D01*
X2740240D01*
X2895240Y1790240D01*
Y2090240D01*
X2740240Y2245240D01*
X2440240D01*
X0Y0D02*
M02*
