G04 DesignSpark PCB Gerber Version 13.0 Build *
%FSLAX35Y35*%
%MOMM*%
%ADD10C,0.12700*%
X0Y0D02*
D02*
D10*
X1445800Y1140240D02*
X1477550D01*
X1493430Y1148180D01*
X1501370Y1156120D01*
X1509300Y1171990D01*
Y1187870D01*
X1501370Y1203740D01*
X1493430Y1211680D01*
X1477550Y1219620D01*
X1445800D01*
X1429930Y1211680D01*
X1421990Y1203740D01*
X1414050Y1187870D01*
Y1171990D01*
X1421990Y1156120D01*
X1429930Y1148180D01*
X1445800Y1140240D01*
X1414050Y1267240D02*
X1509300D01*
X1414050Y1346620D01*
X1509300D01*
X1695240Y2320240D02*
X1860240D01*
Y2200240D01*
X1695240D01*
Y2320240D01*
X1885240Y2084930D02*
X1877300Y2076990D01*
X1861430Y2069050D01*
X1845550Y2076990D01*
X1837610Y2084930D01*
Y2164300D01*
X1821740D01*
X1837610D02*
X1869360D01*
X1742360Y2069050D02*
X1710610D01*
X1726490D02*
Y2164300D01*
X1742360Y2148430D01*
X1915240Y1915240D02*
X1565240D01*
Y1065240D01*
X1915240D01*
Y1915240D01*
X1985240Y2331430D02*
Y2236180D01*
X2032870D01*
X2048740Y2244110D01*
X2056680Y2252050D01*
X2064620Y2267930D01*
Y2299680D01*
X2056680Y2315550D01*
X2048740Y2323490D01*
X2032870Y2331430D01*
X1985240D01*
X2128120D02*
X2159870D01*
X2143990D02*
Y2236180D01*
X2128120Y2252050D01*
X1976430Y2690860D02*
X1936740Y2730550D01*
X1897050Y2690860D01*
X1976430Y2563860D02*
X1936740Y2603550D01*
X1897050Y2563860D01*
X1976430Y2436860D02*
X1936740Y2476550D01*
X1897050Y2436860D01*
X2065240Y1265800D02*
X2001740D01*
X2033490Y1234050D02*
Y1297550D01*
X2155240Y2785240D02*
X2015240D01*
Y2365240D01*
X2155240D01*
Y2785240D01*
X2215240Y2336430D02*
Y2241180D01*
X2262870D01*
X2278740Y2249110D01*
X2286680Y2257050D01*
X2294620Y2272930D01*
Y2304680D01*
X2286680Y2320550D01*
X2278740Y2328490D01*
X2262870Y2336430D01*
X2215240D01*
X2405740D02*
X2342240D01*
X2397800Y2280860D01*
X2405740Y2264990D01*
X2397800Y2249110D01*
X2381930Y2241180D01*
X2358120D01*
X2342240Y2249110D01*
X2225240Y2365240D02*
X2365240D01*
Y2785240D01*
X2225240D01*
Y2365240D01*
X2399050Y2444620D02*
X2438740Y2404930D01*
X2478430Y2444620D01*
X2399050Y2571620D02*
X2438740Y2531930D01*
X2478430Y2571620D01*
X2399050Y2698620D02*
X2438740Y2658930D01*
X2478430Y2698620D01*
X2349680Y1096680D02*
X2333800Y1088740D01*
X2325860Y1072870D01*
X2333800Y1056990D01*
X2349680Y1049050D01*
X2405240D01*
Y1144300D01*
X2349680D01*
X2333800Y1136370D01*
X2325860Y1120490D01*
X2333800Y1104620D01*
X2349680Y1096680D01*
X2405240D01*
X2278240Y1049050D02*
X2238550Y1144300D01*
X2198860Y1049050D01*
X2262360Y1088740D02*
X2214740D01*
X2111550Y1049050D02*
Y1144300D01*
X2151240D02*
X2071860D01*
X1984550Y1049050D02*
Y1144300D01*
X2024240D02*
X1944860D01*
X2750240Y429050D02*
Y524300D01*
Y476680D02*
X2726430D01*
X2670860Y524300D01*
X2726430Y476680D02*
X2670860Y429050D01*
X2591490D02*
Y492550D01*
Y516370D02*
X2496240Y429050D02*
Y492550D01*
Y468740D02*
X2488300Y484620D01*
X2472430Y492550D01*
X2456550D01*
X2440680Y484620D01*
X2432740Y468740D01*
Y429050D01*
X2369240Y452870D02*
X2361300Y436990D01*
X2345430Y429050D01*
X2329550D01*
X2313680Y436990D01*
X2305740Y452870D01*
Y468740D01*
X2313680Y484620D01*
X2329550Y492550D01*
X2345430D01*
X2361300Y484620D01*
X2369240Y468740D01*
Y452870D01*
X2242240Y429050D02*
Y524300D01*
Y460800D02*
X2218430D01*
X2178740Y492550D01*
X2218430Y460800D02*
X2178740Y429050D01*
X2115240Y492550D02*
Y452870D01*
X2107300Y436990D01*
X2091430Y429050D01*
X2075550D01*
X2059680Y436990D01*
X2051740Y452870D01*
Y492550D02*
Y429050D01*
X1988240D02*
Y492550D01*
Y468740D02*
X1980300Y484620D01*
X1964430Y492550D01*
X1948550D01*
X1932680Y484620D01*
X1924740Y468740D01*
Y429050D01*
X1829490D02*
Y492550D01*
Y516370D02*
X1710430Y429050D02*
X1678680D01*
X1694550D02*
Y524300D01*
X1710430D02*
X1678680D01*
X1527860Y444930D02*
X1535800Y436990D01*
X1551680Y429050D01*
X1575490D01*
X1591360Y436990D01*
X1599300Y444930D01*
X1607240Y460800D01*
Y492550D01*
X1599300Y508430D01*
X1591360Y516370D01*
X1575490Y524300D01*
X1551680D01*
X1535800Y516370D01*
X1527860Y508430D01*
X1440550Y429050D02*
Y524300D01*
X1480240D02*
X1400860D01*
X2711740Y294050D02*
X2775240D01*
X2719680Y349620D01*
X2711740Y365490D01*
X2719680Y381370D01*
X2735550Y389300D01*
X2759360D01*
X2775240Y381370D01*
X2640300Y301990D02*
X2624430Y294050D01*
X2608550D01*
X2592680Y301990D01*
X2584740Y317870D01*
Y365490D01*
X2592680Y381370D01*
X2608550Y389300D01*
X2624430D01*
X2640300Y381370D01*
X2648240Y365490D01*
Y317870D01*
X2640300Y301990D01*
X2592680Y381370D01*
X2457740Y294050D02*
X2521240D01*
X2465680Y349620D01*
X2457740Y365490D01*
X2465680Y381370D01*
X2481550Y389300D01*
X2505360D01*
X2521240Y381370D01*
X2394240Y317870D02*
X2386300Y333740D01*
X2370430Y341680D01*
X2354550D01*
X2338680Y333740D01*
X2330740Y317870D01*
X2338680Y301990D01*
X2354550Y294050D01*
X2370430D01*
X2386300Y301990D01*
X2394240Y317870D01*
Y341680D01*
X2386300Y365490D01*
X2370430Y381370D01*
X2354550Y389300D01*
X2267240Y294050D02*
X2187860Y389300D01*
X2132300Y301990D02*
X2116430Y294050D01*
X2100550D01*
X2084680Y301990D01*
X2076740Y317870D01*
Y365490D01*
X2084680Y381370D01*
X2100550Y389300D01*
X2116430D01*
X2132300Y381370D01*
X2140240Y365490D01*
Y317870D01*
X2132300Y301990D01*
X2084680Y381370D01*
X2005300Y301990D02*
X1989430Y294050D01*
X1973550D01*
X1957680Y301990D01*
X1949740Y317870D01*
X1957680Y333740D01*
X1973550Y341680D01*
X1989430D01*
X1973550D02*
X1957680Y349620D01*
X1949740Y365490D01*
X1957680Y381370D01*
X1973550Y389300D01*
X1989430D01*
X2005300Y381370D01*
X1886240Y294050D02*
X1806860Y389300D01*
X1751300Y301990D02*
X1735430Y294050D01*
X1719550D01*
X1703680Y301990D01*
X1695740Y317870D01*
Y365490D01*
X1703680Y381370D01*
X1719550Y389300D01*
X1735430D01*
X1751300Y381370D01*
X1759240Y365490D01*
Y317870D01*
X1751300Y301990D01*
X1703680Y381370D01*
X1632240Y317870D02*
X1624300Y333740D01*
X1608430Y341680D01*
X1592550D01*
X1576680Y333740D01*
X1568740Y317870D01*
X1576680Y301990D01*
X1592550Y294050D01*
X1608430D01*
X1624300Y301990D01*
X1632240Y317870D01*
Y341680D01*
X1624300Y365490D01*
X1608430Y381370D01*
X1592550Y389300D01*
X2995240Y1430240D02*
Y1070240D01*
X1935240D01*
Y1530240D01*
X2895240D01*
X2995240Y1430240D01*
X0Y0D02*
M02*
