G04 DesignSpark PCB Gerber Version 13.0 Build *
%FSLAX35Y35*%
%MOMM*%
%ADD18R,1.40000X1.42000*%
%ADD13C,0.25400*%
%ADD12C,0.30480*%
%ADD14C,0.80000*%
%ADD19C,1.40000*%
%ADD17C,1.52400*%
%ADD15C,2.00000*%
%ADD16C,5.25000*%
X0Y0D02*
D02*
D12*
X546120Y2884360D02*
Y663640D01*
G75*
G02*
X1143380Y590240I294120J-73400D01*
G01*
G75*
G02*
X913640Y296120I-303140J0D01*
G01*
X2934360D01*
Y2884360D01*
X1813090D01*
G75*
G02*
X1862080Y2789240I-67850J-95120D01*
G01*
G75*
G02*
X1660650Y2708640I-116840J0D01*
G01*
X1457200D01*
G75*
G02*
X1423540Y2543280I-86970J-68400D01*
G01*
Y1864410D01*
G75*
G02*
X1423580Y1862240I-53330J-2070D01*
G01*
G75*
G02*
X1407960Y1824520I-53340J0D01*
G01*
X1334470Y1751030D01*
G75*
G02*
X1223240Y1598400I-111230J-35790D01*
G01*
G75*
G02*
X1106400Y1715240I0J116840D01*
G01*
G75*
G02*
X1259030Y1826470I116850J-10D01*
G01*
X1316940Y1884380D01*
Y2080440D01*
G75*
G02*
X1106400Y2150240I-93700J69800D01*
G01*
G75*
G02*
X1169940Y2254210I116830J0D01*
G01*
Y2340100D01*
X1132520Y2377520D01*
G75*
G02*
X1116900Y2415240I37720J37720D01*
G01*
G75*
G02*
X1116940Y2417410I53350J100D01*
G01*
Y2543280D01*
G75*
G02*
X1070240Y2592900I53310J96960D01*
G01*
G75*
G02*
X1050840Y2564450I-99990J47340D01*
G01*
Y2233860D01*
G75*
G02*
X1049840Y2065650I-81600J-83620D01*
G01*
Y1799830D01*
G75*
G02*
Y1630650I-80600J-84590D01*
G01*
Y1345830D01*
G75*
G02*
X965240Y1148400I-84600J-80590D01*
G01*
G75*
G02*
X888640Y1353470I0J116840D01*
G01*
Y1630650D01*
G75*
G02*
Y1799830I80600J84590D01*
G01*
Y2065650D01*
G75*
G02*
X889640Y2235770I80600J84590D01*
G01*
Y2564450D01*
G75*
G02*
X880840Y2575060I80580J75790D01*
G01*
Y2528640D01*
X659640D01*
Y2751840D01*
X880840D01*
Y2705420D01*
G75*
G02*
X966790Y2750830I89410J-65180D01*
G01*
X1062220Y2846260D01*
G75*
G02*
X1121730Y2869840I57020J-57020D01*
G01*
X1660650D01*
G75*
G02*
X1677390Y2884360I84590J-80610D01*
G01*
X546120D01*
X2240240Y1767080D02*
G75*
G02*
X2357080Y1650240I0J-116840D01*
G01*
G75*
G02*
X2214180Y1536340I-116850J0D01*
G01*
X2222260Y1528260D01*
G75*
G02*
X2245880Y1471240I-57020J-57020D01*
G01*
G75*
G02*
X2245840Y1468750I-80660J50D01*
G01*
Y1336030D01*
G75*
G02*
X2265240Y1307580I-80590J-75790D01*
G01*
G75*
G02*
X2465240I100000J-47340D01*
G01*
G75*
G02*
X2654640Y1325420I100000J-47340D01*
G01*
Y1371840D01*
X2875840D01*
Y1148640D01*
X2654640D01*
Y1195060D01*
G75*
G02*
X2465240Y1212900I-89400J65180D01*
G01*
G75*
G02*
X2265240I-100000J47340D01*
G01*
G75*
G02*
X2054600Y1260240I-100000J47340D01*
G01*
G75*
G02*
X2084640Y1336030I110630J0D01*
G01*
Y1437800D01*
X1989010Y1533430D01*
G75*
G02*
X1986240Y1533400I-2650J116850D01*
G01*
G75*
G02*
X1869400Y1650240I0J116840D01*
G01*
G75*
G02*
X1986240Y1767080I116840J0D01*
G01*
G75*
G02*
X2103080Y1650240I0J-116840D01*
G01*
G75*
G02*
X2103050Y1647470I-116970J-120D01*
G01*
X2126340Y1624180D01*
G75*
G02*
X2240240Y1767080I113900J26060D01*
G01*
X2590240Y2243380D02*
G75*
G02*
X2893380Y1940240I0J-303140D01*
G01*
G75*
G02*
X2590240Y1637100I-303140J0D01*
G01*
G75*
G02*
X2287100Y1940240I0J303140D01*
G01*
G75*
G02*
X2590240Y2243380I303140J0D01*
G01*
X1640240Y757080D02*
G75*
G02*
X1757080Y640240I0J-116840D01*
G01*
G75*
G02*
X1640240Y523400I-116840J0D01*
G01*
G75*
G02*
X1523400Y640240I0J116840D01*
G01*
G75*
G02*
X1640240Y757080I116840J0D01*
G01*
X1599600Y1240240D02*
G75*
G02*
X1675780Y1365240I140640J0D01*
G01*
G75*
G02*
X1659640Y1605490I64460J125000D01*
G01*
Y1624990D01*
G75*
G02*
Y1855490I80600J115250D01*
G01*
Y2082330D01*
G75*
G02*
X1659590Y2085240I80510J2840D01*
G01*
G75*
G02*
X1664640Y2113340I80650J10D01*
G01*
Y2450650D01*
G75*
G02*
X1628400Y2535240I80600J84590D01*
G01*
G75*
G02*
X1862080I116840J0D01*
G01*
G75*
G02*
X1825840Y2450650I-116840J0D01*
G01*
Y2093150D01*
G75*
G02*
X1825890Y2090240I-80550J-2840D01*
G01*
G75*
G02*
X1820840Y2062140I-80660J-10D01*
G01*
Y1855490D01*
G75*
G02*
Y1624990I-80600J-115250D01*
G01*
Y1605490D01*
G75*
G02*
X1804700Y1365240I-80600J-115250D01*
G01*
G75*
G02*
X1880880Y1240240I-64460J-125000D01*
G01*
G75*
G02*
X1599600I-140640J0D01*
G01*
X1818400Y621240D02*
G75*
G02*
X2052080I116840J0D01*
G01*
G75*
G02*
X1818400I-116840J0D01*
G01*
Y875240D02*
G75*
G02*
X2052080I116840J0D01*
G01*
G75*
G02*
X1818400I-116840J0D01*
G01*
X1386240Y757080D02*
G75*
G02*
X1503080Y640240I0J-116840D01*
G01*
G75*
G02*
X1386240Y523400I-116840J0D01*
G01*
G75*
G02*
X1269400Y640240I0J116840D01*
G01*
G75*
G02*
X1386240Y757080I116840J0D01*
G01*
X711240Y1382080D02*
G75*
G02*
X828080Y1265240I0J-116840D01*
G01*
G75*
G02*
X711240Y1148400I-116840J0D01*
G01*
G75*
G02*
X594400Y1265240I0J116840D01*
G01*
G75*
G02*
X711240Y1382080I116840J0D01*
G01*
X715240Y1832080D02*
G75*
G02*
X832080Y1715240I0J-116840D01*
G01*
G75*
G02*
X715240Y1598400I-116840J0D01*
G01*
G75*
G02*
X598400Y1715240I0J116840D01*
G01*
G75*
G02*
X715240Y1832080I116840J0D01*
G01*
Y2267080D02*
G75*
G02*
X832080Y2150240I0J-116840D01*
G01*
G75*
G02*
X715240Y2033400I-116840J0D01*
G01*
G75*
G02*
X598400Y2150240I0J116840D01*
G01*
G75*
G02*
X715240Y2267080I116840J0D01*
G01*
X1143380Y590240D02*
G36*
X1143380Y590240D02*
G75*
G02*
X959060Y311360I-303160J20D01*
G01*
X2919120D01*
Y640240D01*
X2050520D01*
G75*
G02*
X2052080Y621240I-115290J-19030D01*
G01*
G75*
G02*
X1818400I-116840J0D01*
G01*
G75*
G02*
X1819960Y640240I116850J-30D01*
G01*
X1757080D01*
G75*
G02*
X1640240Y523400I-116840J0D01*
G01*
G75*
G02*
X1523400Y640230I0J116830D01*
G01*
G75*
G02*
Y640240I286480J10D01*
G01*
X1503080D01*
G75*
G02*
X1386240Y523400I-116840J0D01*
G01*
G75*
G02*
X1269400Y640230I0J116830D01*
G01*
G75*
G02*
Y640240I286480J10D01*
G01*
X1139230D01*
G75*
G02*
X1143380Y590240I-299010J-49990D01*
G01*
G37*
X561360Y875240D02*
G36*
X561360Y875240D02*
Y709060D01*
G75*
G02*
X736970Y875240I278890J-118830D01*
G01*
X561360D01*
G37*
X943510D02*
G36*
X943510Y875240D02*
G75*
G02*
X1139230Y640240I-103270J-285010D01*
G01*
X1269400D01*
G75*
G02*
X1386240Y757080I116840J0D01*
G01*
G75*
G02*
X1503080Y640240I-30J-116870D01*
G01*
X1523400D01*
G75*
G02*
X1640240Y757080I116840J0D01*
G01*
G75*
G02*
X1757080Y640240I-30J-116870D01*
G01*
X1819960D01*
G75*
G02*
X2050520I115280J-19000D01*
G01*
X2919120D01*
Y875240D01*
X2052080D01*
G75*
G02*
X1818400I-116840J0D01*
G01*
X943510D01*
G37*
X561360Y1265240D02*
G36*
X561360Y1265240D02*
Y875240D01*
X736970D01*
G75*
G02*
X943510I103270J-285010D01*
G01*
X1818400D01*
G75*
G02*
X2052080I116840J0D01*
G01*
X2919120D01*
Y1265240D01*
X2875840D01*
Y1148640D01*
X2654640D01*
Y1195060D01*
G75*
G02*
X2465240Y1212900I-89400J65160D01*
G01*
G75*
G02*
X2265240I-100000J47340D01*
G01*
G75*
G02*
X2054600Y1260240I-100000J47340D01*
G01*
G75*
G02*
Y1260250I95490J10D01*
G01*
G75*
G02*
X2054710Y1265240I110680J60D01*
G01*
X1878640D01*
G75*
G02*
X1880880Y1240240I-138430J-25000D01*
G01*
G75*
G02*
X1599600I-140640J0D01*
G01*
G75*
G02*
Y1240250I114590J10D01*
G01*
G75*
G02*
X1601840Y1265240I140640J-10D01*
G01*
X1082080D01*
G75*
G02*
X965240Y1148400I-116840J0D01*
G01*
G75*
G02*
X848390Y1265240I0J116840D01*
G01*
X828080D01*
G75*
G02*
X711240Y1148400I-116840J0D01*
G01*
G75*
G02*
X594400Y1265230I0J116830D01*
G01*
G75*
G02*
Y1265240I286480J10D01*
G01*
X561360D01*
G37*
Y1457860D02*
G36*
X561360Y1457860D02*
Y1265240D01*
X594400D01*
G75*
G02*
X711240Y1382080I116840J0D01*
G01*
G75*
G02*
X828080Y1265240I-30J-116870D01*
G01*
X848390D01*
G75*
G02*
X888640Y1353470I116840J-10D01*
G01*
Y1457860D01*
X561360D01*
G37*
X1049840D02*
G36*
X1049840Y1457860D02*
Y1345830D01*
G75*
G02*
X1082080Y1265240I-84610J-80590D01*
G01*
X1601840D01*
G75*
G02*
X1675780Y1365240I138380J-24990D01*
G01*
G75*
G02*
X1603370Y1457860I64450J125000D01*
G01*
X1049840D01*
G37*
X1877100D02*
G36*
X1877100Y1457860D02*
G75*
G02*
X1804700Y1365240I-136870J32380D01*
G01*
G75*
G02*
X1878640Y1265240I-64490J-125020D01*
G01*
X2054710D01*
G75*
G02*
X2084640Y1336030I110490J-4990D01*
G01*
Y1437800D01*
X2064580Y1457860D01*
X1877100D01*
G37*
X2245840D02*
G36*
X2245840Y1457860D02*
Y1336030D01*
G75*
G02*
X2265240Y1307580I-80970J-76050D01*
G01*
G75*
G02*
X2465240I100000J-47360D01*
G01*
G75*
G02*
X2654640Y1325420I100000J-47340D01*
G01*
Y1371840D01*
X2875840D01*
Y1265240D01*
X2919120D01*
Y1457860D01*
X2245840D01*
G37*
X561360Y1715240D02*
G36*
X561360Y1715240D02*
Y1457860D01*
X888640D01*
Y1630650D01*
G75*
G02*
X852390Y1715240I80570J84590D01*
G01*
X832080D01*
G75*
G02*
X715240Y1598400I-116840J0D01*
G01*
G75*
G02*
X598400Y1715230I0J116830D01*
G01*
G75*
G02*
Y1715240I286480J10D01*
G01*
X561360D01*
G37*
X1049840Y1630650D02*
G36*
X1049840Y1630650D02*
Y1457860D01*
X1603370D01*
G75*
G02*
X1599590Y1490240I136870J32390D01*
G01*
G75*
G02*
X1659640Y1605490I140630J-10D01*
G01*
Y1624990D01*
G75*
G02*
X1601840Y1715240I80600J115250D01*
G01*
X1340090D01*
G75*
G02*
X1223240Y1598400I-116850J0D01*
G01*
G75*
G02*
X1106400Y1715230I0J116830D01*
G01*
G75*
G02*
Y1715240I286480J10D01*
G01*
X1086080D01*
G75*
G02*
X1049840Y1630650I-116840J0D01*
G01*
G37*
X1820840Y1624990D02*
G36*
X1820840Y1624990D02*
Y1605490D01*
G75*
G02*
X1880880Y1490240I-80600J-115250D01*
G01*
G75*
G02*
X1877100Y1457860I-140660J10D01*
G01*
X2064580D01*
X1989010Y1533430D01*
G75*
G02*
X1986240Y1533400I-2080J64180D01*
G01*
G75*
G02*
X1869400Y1650230I0J116830D01*
G01*
G75*
G02*
Y1650240I286480J10D01*
G01*
G75*
G02*
X1889150Y1715240I116850J0D01*
G01*
X1878630D01*
G75*
G02*
X1820840Y1624990I-138410J25000D01*
G01*
G37*
X2103080Y1650240D02*
G36*
X2103080Y1650240D02*
G75*
G02*
X2103050Y1647470I-189860J670D01*
G01*
X2126340Y1624180D01*
G75*
G02*
X2123400Y1650250I113910J26050D01*
G01*
G75*
G02*
X2143140Y1715240I116830J10D01*
G01*
X2083320D01*
G75*
G02*
X2103080Y1650240I-97110J-65030D01*
G01*
G37*
X2214180Y1536340D02*
G36*
X2214180Y1536340D02*
X2222260Y1528260D01*
G75*
G02*
X2245880Y1471240I-57070J-57040D01*
G01*
G75*
G02*
X2245840Y1468750I-10190480J162460D01*
G01*
Y1457860D01*
X2919120D01*
Y1715240D01*
X2793390D01*
G75*
G02*
X2590240Y1637100I-203140J224990D01*
G01*
G75*
G02*
X2387080Y1715240I-20J303120D01*
G01*
X2337320D01*
G75*
G02*
X2357080Y1650240I-97110J-65030D01*
G01*
G75*
G02*
X2214180Y1536340I-116850J10D01*
G01*
G37*
X561360Y1940240D02*
G36*
X561360Y1940240D02*
Y1715240D01*
X598400D01*
G75*
G02*
X715240Y1832080I116840J0D01*
G01*
G75*
G02*
X832080Y1715240I-30J-116870D01*
G01*
X852390D01*
G75*
G02*
X888640Y1799830I116820J0D01*
G01*
Y1940240D01*
X561360D01*
G37*
X1049840D02*
G36*
X1049840Y1940240D02*
Y1799830D01*
G75*
G02*
X1086080Y1715240I-80600J-84590D01*
G01*
X1106400D01*
G75*
G02*
X1259030Y1826470I116860J-20D01*
G01*
X1316940Y1884380D01*
Y1940240D01*
X1049840D01*
G37*
X1334470Y1751030D02*
G36*
X1334470Y1751030D02*
G75*
G02*
X1340090Y1715240I-111220J-35800D01*
G01*
X1601840D01*
G75*
G02*
X1599600Y1740240I138400J25000D01*
G01*
G75*
G02*
X1659640Y1855490I140640J0D01*
G01*
Y1940240D01*
X1423540D01*
Y1864410D01*
G75*
G02*
X1423580Y1862240I-59410J-2180D01*
G01*
G75*
G02*
Y1862230I-52090J0D01*
G01*
G75*
G02*
X1407960Y1824520I-53330J0D01*
G01*
X1334470Y1751030D01*
G37*
X1820840Y1940240D02*
G36*
X1820840Y1940240D02*
Y1855490D01*
G75*
G02*
X1880870Y1740240I-80620J-115250D01*
G01*
G75*
G02*
X1878630Y1715240I-140660J0D01*
G01*
X1889150D01*
G75*
G02*
X1986240Y1767080I97100J-65020D01*
G01*
G75*
G02*
X2083320Y1715240I-30J-116870D01*
G01*
X2143140D01*
G75*
G02*
X2240240Y1767080I97090J-65000D01*
G01*
G75*
G02*
X2337320Y1715240I-30J-116870D01*
G01*
X2387080D01*
G75*
G02*
X2287100Y1940210I203140J224980D01*
G01*
G75*
G02*
Y1940240I429720J20D01*
G01*
X1820840D01*
G37*
X2893380Y1940230D02*
G36*
X2893380Y1940230D02*
G75*
G02*
X2793390Y1715240I-303130J0D01*
G01*
X2919120D01*
Y1940240D01*
X2893380D01*
G75*
G02*
Y1940230I-572960J0D01*
G01*
G37*
X561360Y2150240D02*
G36*
X561360Y2150240D02*
Y1940240D01*
X888640D01*
Y2065650D01*
G75*
G02*
X852400Y2150240I80600J84590D01*
G01*
X832080D01*
G75*
G02*
X715240Y2033400I-116840J0D01*
G01*
G75*
G02*
X598400Y2150230I0J116830D01*
G01*
G75*
G02*
Y2150240I286480J10D01*
G01*
X561360D01*
G37*
X1049840Y2065650D02*
G36*
X1049840Y2065650D02*
Y1940240D01*
X1316940D01*
Y2080440D01*
G75*
G02*
X1106400Y2150230I-93700J69790D01*
G01*
G75*
G02*
Y2150240I143240J10D01*
G01*
X1086070D01*
G75*
G02*
X1049840Y2065650I-116860J0D01*
G01*
G37*
X1423540Y2150240D02*
G36*
X1423540Y2150240D02*
Y1940240D01*
X1659640D01*
Y2082330D01*
G75*
G02*
X1659590Y2084990I70140J2650D01*
G01*
G75*
G02*
Y2085240I70560J130D01*
G01*
G75*
G02*
Y2085260I95490J10D01*
G01*
G75*
G02*
X1664640Y2113340I80600J0D01*
G01*
Y2150240D01*
X1423540D01*
G37*
X1820840Y2062140D02*
G36*
X1820840Y2062140D02*
Y1940240D01*
X2287100D01*
G75*
G02*
Y1940250I572960J10D01*
G01*
G75*
G02*
X2371620Y2150240I303130J-10D01*
G01*
X1825840D01*
Y2093150D01*
G75*
G02*
X1825890Y2090240I-215660J-5160D01*
G01*
G75*
G02*
X1820840Y2062140I-81110J70D01*
G01*
G37*
X2808850Y2150240D02*
G36*
X2808850Y2150240D02*
G75*
G02*
X2893380Y1940240I-218620J-210010D01*
G01*
X2919120D01*
Y2150240D01*
X2808850D01*
G37*
X561360Y2869120D02*
G36*
X561360Y2869120D02*
Y2150240D01*
X598400D01*
G75*
G02*
X715240Y2267080I116840J0D01*
G01*
G75*
G02*
X832080Y2150240I-30J-116870D01*
G01*
X852400D01*
G75*
G02*
X889640Y2235770I116840J0D01*
G01*
Y2564450D01*
G75*
G02*
X880840Y2575060I77350J73110D01*
G01*
Y2528640D01*
X659640D01*
Y2751840D01*
X880840D01*
Y2705420D01*
G75*
G02*
X966790Y2750830I89440J-65250D01*
G01*
X1062220Y2846260D01*
G75*
G02*
X1108230Y2869120I57040J-57080D01*
G01*
X561360D01*
G37*
X1050840Y2564450D02*
G36*
X1050840Y2564450D02*
Y2233860D01*
G75*
G02*
X1086070Y2150240I-81620J-83620D01*
G01*
X1106400D01*
G75*
G02*
X1169940Y2254210I116830J0D01*
G01*
Y2340100D01*
X1132520Y2377520D01*
G75*
G02*
X1116900Y2415180I37590J37660D01*
G01*
G75*
G02*
Y2415240I56360J30D01*
G01*
G75*
G02*
Y2415780I29610J270D01*
G01*
G75*
G02*
X1116940Y2417410I29600J90D01*
G01*
Y2543280D01*
G75*
G02*
X1070240Y2592900I53200J96850D01*
G01*
G75*
G02*
X1050840Y2564450I-99990J47340D01*
G01*
G37*
X1423540Y2543280D02*
G36*
X1423540Y2543280D02*
Y2150240D01*
X1664640D01*
Y2450650D01*
G75*
G02*
X1628400Y2535220I80560J84570D01*
G01*
G75*
G02*
Y2535240I127320J10D01*
G01*
G75*
G02*
X1862080I116840J0D01*
G01*
G75*
G02*
X1825840Y2450650I-116900J30D01*
G01*
Y2150240D01*
X2371620D01*
G75*
G02*
X2590240Y2243380I218610J-209990D01*
G01*
G75*
G02*
X2808850Y2150240I-10J-303150D01*
G01*
X2919120D01*
Y2869120D01*
X1830500D01*
G75*
G02*
X1862080Y2789240I-85310J-79910D01*
G01*
G75*
G02*
X1660650Y2708640I-116840J0D01*
G01*
X1457200D01*
G75*
G02*
X1480880Y2640240I-86970J-68410D01*
G01*
G75*
G02*
X1423540Y2543280I-110660J0D01*
G01*
G37*
D02*
D13*
X647740Y1265240D02*
X594400D01*
X651740Y1715240D02*
X598400D01*
X651740Y2150240D02*
X598400D01*
X711240Y1201740D02*
Y1148400D01*
Y1328740D02*
Y1382080D01*
X712940Y2640240D02*
X659640D01*
X715240Y1651740D02*
Y1598400D01*
Y1778740D02*
Y1832080D01*
Y2086740D02*
Y2033400D01*
Y2213740D02*
Y2267080D01*
X770240Y2581940D02*
Y2528640D01*
Y2698540D02*
Y2751840D01*
X774740Y1265240D02*
X828080D01*
X778740Y1715240D02*
X832080D01*
X778740Y2150240D02*
X832080D01*
X1170240Y2640240D02*
Y2415240D01*
X1223240Y2362240D01*
Y2150240D01*
X1322740Y640240D02*
X1269400D01*
X1370240Y2640240D02*
Y1862240D01*
X1223240Y1715240D01*
X1386240Y576740D02*
Y523400D01*
Y703740D02*
Y757080D01*
X1449740Y640240D02*
X1503080D01*
X1871740Y875240D02*
X1818400D01*
X1935240Y811740D02*
Y758400D01*
Y938740D02*
Y992080D01*
X1998740Y875240D02*
X2052080D01*
X2176740Y1650240D02*
X2123400D01*
X2240240Y1586740D02*
Y1533400D01*
Y1713740D02*
Y1767080D01*
X2303740Y1650240D02*
X2357080D01*
X2340440Y1940240D02*
X2287100D01*
X2365240Y1202940D02*
Y1149600D01*
Y1317540D02*
Y1370880D01*
X2590240Y1690440D02*
Y1637100D01*
Y2190040D02*
Y2243380D01*
X2765240Y1201940D02*
Y1148640D01*
Y1318540D02*
Y1371840D01*
X2822540Y1260240D02*
X2875840D01*
X2840040Y1940240D02*
X2893380D01*
D02*
D14*
X711240Y1265240D02*
Y1024240D01*
X735240Y1000240D01*
X1026240D01*
X1386240Y640240D01*
X715240Y1715240D02*
Y1269240D01*
X711240Y1265240D01*
X715240Y2150240D02*
Y1715240D01*
X770240Y2640240D02*
Y2535240D01*
X715240Y2480240D01*
Y2150240D01*
X969240Y1715240D02*
Y1269240D01*
X965240Y1265240D01*
X969240Y2150240D02*
Y1715240D01*
X970240Y2640240D02*
Y2151240D01*
X969240Y2150240D01*
X1740240Y1740240D02*
Y2085240D01*
X1745240Y2090240D01*
Y2535240D01*
X1740240Y1740240D02*
Y1490240D01*
X1745240Y2789240D02*
X1119240D01*
X970240Y2640240D01*
X1935240Y875240D02*
X2170240D01*
X2365240Y680240D01*
X2165240Y1260240D02*
Y1471240D01*
X1986240Y1650240D01*
X2240240D02*
Y1645240D01*
X2480240D01*
X2590240Y1755240D01*
Y1940240D01*
X2365240Y680240D02*
Y560240D01*
X2260240Y455240D01*
X1571240D01*
X1386240Y640240D01*
X2365240Y1260240D02*
Y1525240D01*
X2240240Y1650240D01*
X2365240Y1260240D02*
Y680240D01*
X2765240Y1260240D02*
Y1080240D01*
X2365240Y680240D01*
D02*
D15*
X1740240Y1240240D03*
Y1490240D03*
Y1740240D03*
D02*
D16*
X840240Y590240D03*
X2590240Y1940240D03*
D02*
D17*
X711240Y1265240D03*
X715240Y1715240D03*
Y2150240D03*
X965240Y1265240D03*
X969240Y1715240D03*
Y2150240D03*
X1223240Y1715240D03*
Y2150240D03*
X1386240Y640240D03*
X1640240D03*
X1745240Y2535240D03*
Y2789240D03*
X1935240Y621240D03*
Y875240D03*
X1986240Y1650240D03*
X2240240D03*
D02*
D18*
X770240Y2640240D03*
X2765240Y1260240D03*
D02*
D19*
X970240Y2640240D03*
X1170240D03*
X1370240D03*
X2165240Y1260240D03*
X2365240D03*
X2565240D03*
X0Y0D02*
M02*
