G04 DesignSpark PCB Gerber Version 13.0 Build *
%FSLAX35Y35*%
%MOMM*%
%ADD17R,1.40000X1.42000*%
%ADD12C,0.25400*%
%ADD11C,0.30480*%
%ADD22C,0.60000*%
%ADD13C,0.80000*%
%ADD18C,1.40000*%
%ADD16C,1.52400*%
%ADD14C,2.00000*%
%ADD15C,5.25000*%
%AMT24*0 Bullet Pad at angle 90*4,1,26,0.30000,-0.40000,0.30000,0.40000,0.10000,0.40000,0.04550,0.39620,-0.00790,0.38500,-0.05930,0.36670,-0.10770,0.34150,-0.15220,0.31000,-0.19200,0.27270,-0.22640,0.23030,-0.25470,0.18370,-0.27640,0.13360,-0.29100,0.08110,-0.29840,0.02710,-0.29830,-0.02740,-0.29080,-0.08130,-0.27600,-0.13370,-0.25420,-0.18360,-0.22590,-0.23010,-0.19150,-0.27230,-0.15170,-0.30940,-0.10720,-0.34070,-0.05880,-0.36570,-0.00750,-0.38390,0.04570,-0.39490,0.10000,-0.40000,0.30000,-0.40000,0*%
%ADD24T24*%
%AMT23*0 Bullet Pad at angle 270*4,1,26,-0.30000,0.40000,-0.30000,-0.40000,-0.10000,-0.40000,-0.04550,-0.39620,0.00790,-0.38500,0.05930,-0.36670,0.10770,-0.34150,0.15220,-0.31000,0.19200,-0.27270,0.22640,-0.23030,0.25470,-0.18370,0.27640,-0.13360,0.29100,-0.08110,0.29840,-0.02710,0.29830,0.02740,0.29080,0.08130,0.27600,0.13370,0.25420,0.18360,0.22590,0.23010,0.19150,0.27230,0.15170,0.30940,0.10720,0.34070,0.05880,0.36570,0.00750,0.38390,-0.04570,0.39490,-0.10000,0.40000,-0.30000,0.40000,0*%
%ADD23T23*%
X0Y0D02*
D02*
D11*
X546120Y2884360D02*
Y663640D01*
G75*
G02*
X1143380Y590240I294120J-73400D01*
G01*
G75*
G02*
X913640Y296120I-303140J0D01*
G01*
X2934360D01*
Y2884360D01*
X1813090D01*
G75*
G02*
X1830270Y2869370I-67860J-95110D01*
G01*
G75*
G02*
X1878260Y2846260I-9030J-80140D01*
G01*
X1957260Y2767260D01*
G75*
G02*
X1980880Y2710240I-57020J-57020D01*
G01*
G75*
G02*
X1980840Y2707750I-80660J50D01*
G01*
Y2307730D01*
G75*
G02*
X1980880Y2305240I-80620J-2540D01*
G01*
G75*
G02*
X1957260Y2248220I-80640J0D01*
G01*
X1912260Y2203220D01*
G75*
G02*
X1830180Y2183600I-57010J57020D01*
G01*
G75*
G02*
X1810840Y2179830I-24980J76650D01*
G01*
Y2179640D01*
X1744640D01*
Y2179830D01*
G75*
G02*
X1730240Y2182160I5620J80410D01*
G01*
G75*
G02*
X1710240Y2179640I-20000J78080D01*
G01*
X1667730D01*
G75*
G02*
X1608220Y2317260I-2490J80600D01*
G01*
X1664640Y2373680D01*
Y2450650D01*
G75*
G02*
X1819640Y2625330I80600J84590D01*
G01*
Y2676800D01*
X1806620Y2689820D01*
G75*
G02*
X1677390Y2884360I-61380J99420D01*
G01*
X546120D01*
X2240240Y1767080D02*
G75*
G02*
X2357080Y1650240I0J-116840D01*
G01*
G75*
G02*
X2240240Y1533400I-116840J0D01*
G01*
G75*
G02*
X2123400Y1650240I0J116840D01*
G01*
G75*
G02*
X2240240Y1767080I116840J0D01*
G01*
X2590240Y2243380D02*
G75*
G02*
X2893380Y1940240I0J-303140D01*
G01*
G75*
G02*
X2590240Y1637100I-303140J0D01*
G01*
G75*
G02*
X2287100Y1940240I0J303140D01*
G01*
G75*
G02*
X2590240Y2243380I303140J0D01*
G01*
X1599600Y1240240D02*
G75*
G02*
X1675780Y1365240I140640J0D01*
G01*
G75*
G02*
Y1615240I64460J125000D01*
G01*
G75*
G02*
X1599600Y1740240I64460J125000D01*
G01*
G75*
G02*
X1880880I140640J0D01*
G01*
G75*
G02*
X1804700Y1615240I-140640J0D01*
G01*
G75*
G02*
Y1365240I-64460J-125000D01*
G01*
G75*
G02*
X1840170Y1339210I-64440J-125000D01*
G01*
X1988220Y1487260D01*
G75*
G02*
X2047730Y1510840I57020J-57020D01*
G01*
X2492750D01*
G75*
G02*
X2552260Y1487260I2490J-80600D01*
G01*
X2622260Y1417260D01*
G75*
G02*
X2645880Y1360240I-57020J-57020D01*
G01*
G75*
G02*
X2645840Y1357750I-80660J50D01*
G01*
Y1336030D01*
G75*
G02*
X2654640Y1325420I-80580J-75790D01*
G01*
Y1371840D01*
X2875840D01*
Y1148640D01*
X2654640D01*
Y1195060D01*
G75*
G02*
X2465240Y1212900I-89400J65180D01*
G01*
G75*
G02*
X2265240I-100000J47340D01*
G01*
G75*
G02*
X2054600Y1260240I-100000J47340D01*
G01*
G75*
G02*
X2100060Y1349640I110640J0D01*
G01*
X2078680D01*
X1912260Y1183220D01*
G75*
G02*
X1855470Y1159600I-57020J57010D01*
G01*
G75*
G02*
X1599600Y1240240I-115230J80640D01*
G01*
X1986240Y1767080D02*
G75*
G02*
X2103080Y1650240I0J-116840D01*
G01*
G75*
G02*
X1986240Y1533400I-116840J0D01*
G01*
G75*
G02*
X1869400Y1650240I0J116840D01*
G01*
G75*
G02*
X1986240Y1767080I116840J0D01*
G01*
X711240Y1382080D02*
G75*
G02*
X828080Y1265240I0J-116840D01*
G01*
G75*
G02*
X711240Y1148400I-116840J0D01*
G01*
G75*
G02*
X594400Y1265240I0J116840D01*
G01*
G75*
G02*
X711240Y1382080I116840J0D01*
G01*
X715240Y1832080D02*
G75*
G02*
X832080Y1715240I0J-116840D01*
G01*
G75*
G02*
X715240Y1598400I-116840J0D01*
G01*
G75*
G02*
X598400Y1715240I0J116840D01*
G01*
G75*
G02*
X715240Y1832080I116840J0D01*
G01*
Y2267080D02*
G75*
G02*
X832080Y2150240I0J-116840D01*
G01*
G75*
G02*
X715240Y2033400I-116840J0D01*
G01*
G75*
G02*
X598400Y2150240I0J116840D01*
G01*
G75*
G02*
X715240Y2267080I116840J0D01*
G01*
X659640Y2751840D02*
X880840D01*
Y2705420D01*
G75*
G02*
X1070240Y2687580I89400J-65180D01*
G01*
G75*
G02*
X1270240I100000J-47340D01*
G01*
G75*
G02*
X1480880Y2640240I100000J-47340D01*
G01*
G75*
G02*
X1270240Y2592900I-110640J0D01*
G01*
G75*
G02*
X1070240I-100000J47340D01*
G01*
G75*
G02*
X880840Y2575060I-100000J47340D01*
G01*
Y2528640D01*
X659640D01*
Y2751840D01*
X1223240Y2267080D02*
G75*
G02*
X1340080Y2150240I0J-116840D01*
G01*
G75*
G02*
X1197180Y2036340I-116850J0D01*
G01*
X1222680Y2010840D01*
X1332750D01*
G75*
G02*
X1392260Y1987260I2490J-80600D01*
G01*
X1477260Y1902260D01*
G75*
G02*
X1500880Y1845240I-57020J-57020D01*
G01*
G75*
G02*
X1500840Y1842750I-80660J50D01*
G01*
Y1672730D01*
G75*
G02*
X1500880Y1670240I-80620J-2540D01*
G01*
G75*
G02*
X1477260Y1613220I-80640J0D01*
G01*
X1380840Y1516800D01*
Y1013680D01*
X1637470Y757050D01*
G75*
G02*
X1640240Y757080I2650J-116940D01*
G01*
G75*
G02*
X1757080Y640240I0J-116840D01*
G01*
G75*
G02*
X1640240Y523400I-116840J0D01*
G01*
G75*
G02*
X1523400Y640240I0J116840D01*
G01*
G75*
G02*
X1523430Y643010I116880J120D01*
G01*
X1500140Y666300D01*
G75*
G02*
X1386240Y523400I-113900J-26060D01*
G01*
G75*
G02*
X1269400Y640240I0J116840D01*
G01*
G75*
G02*
X1412300Y754140I116840J0D01*
G01*
X1243220Y923220D01*
G75*
G02*
X1219600Y980240I57020J57020D01*
G01*
G75*
G02*
X1219640Y982730I80620J-50D01*
G01*
Y1547750D01*
G75*
G02*
X1219600Y1550240I80580J2540D01*
G01*
G75*
G02*
X1236100Y1599110I80640J-10D01*
G01*
G75*
G02*
X1106400Y1715240I-12860J116130D01*
G01*
G75*
G02*
X1339640Y1725370I116840J0D01*
G01*
Y1811800D01*
X1301800Y1849640D01*
X1191730D01*
G75*
G02*
X1132220Y1873220I-2490J80600D01*
G01*
X972010Y2033430D01*
G75*
G02*
X969240Y2033400I-2650J116850D01*
G01*
G75*
G02*
X852400Y2150240I0J116840D01*
G01*
G75*
G02*
X969240Y2267080I116840J0D01*
G01*
G75*
G02*
X1086080Y2150240I0J-116840D01*
G01*
G75*
G02*
X1086050Y2147470I-116970J-120D01*
G01*
X1109340Y2124180D01*
G75*
G02*
X1223240Y2267080I113900J26060D01*
G01*
X965240Y1382080D02*
G75*
G02*
X1082080Y1265240I0J-116840D01*
G01*
G75*
G02*
X965240Y1148400I-116840J0D01*
G01*
G75*
G02*
X848400Y1265240I0J116840D01*
G01*
G75*
G02*
X965240Y1382080I116840J0D01*
G01*
X969240Y1832080D02*
G75*
G02*
X1086080Y1715240I0J-116840D01*
G01*
G75*
G02*
X969240Y1598400I-116840J0D01*
G01*
G75*
G02*
X852400Y1715240I0J116840D01*
G01*
G75*
G02*
X969240Y1832080I116840J0D01*
G01*
X561360Y1265240D02*
G36*
X561360Y1265240D02*
Y709060D01*
G75*
G02*
X1143380Y590240I278880J-118830D01*
G01*
G75*
G02*
X959060Y311360I-303160J20D01*
G01*
X2919120D01*
Y1265240D01*
X2875840D01*
Y1148640D01*
X2654640D01*
Y1195060D01*
G75*
G02*
X2465240Y1212900I-89400J65160D01*
G01*
G75*
G02*
X2265240I-100000J47340D01*
G01*
G75*
G02*
X2054600Y1260240I-100000J47340D01*
G01*
G75*
G02*
Y1260260I163700J10D01*
G01*
G75*
G02*
X2054710Y1265240I110500J50D01*
G01*
X1994280D01*
X1912260Y1183220D01*
G75*
G02*
X1855470Y1159600I-57020J57010D01*
G01*
G75*
G02*
X1599600Y1240230I-115230J80630D01*
G01*
G75*
G02*
Y1240240I286480J10D01*
G01*
G75*
G02*
Y1240250I114590J10D01*
G01*
G75*
G02*
X1601840Y1265240I140640J-10D01*
G01*
X1380840D01*
Y1013680D01*
X1637470Y757050D01*
G75*
G02*
X1640240Y757080I3440J-189830D01*
G01*
G75*
G02*
X1757080Y640240I-30J-116870D01*
G01*
G75*
G02*
X1640240Y523400I-116840J0D01*
G01*
G75*
G02*
X1523400Y640230I0J116830D01*
G01*
G75*
G02*
Y640240I286480J10D01*
G01*
G75*
G02*
Y640930I64280J350D01*
G01*
G75*
G02*
X1523430Y643010I64220J110D01*
G01*
X1500140Y666300D01*
G75*
G02*
X1503080Y640240I-113890J-26040D01*
G01*
G75*
G02*
X1386240Y523400I-116840J0D01*
G01*
G75*
G02*
X1269400Y640230I0J116830D01*
G01*
G75*
G02*
Y640240I286480J10D01*
G01*
G75*
G02*
Y640250I190990J10D01*
G01*
G75*
G02*
X1412300Y754140I116840J0D01*
G01*
X1243220Y923220D01*
G75*
G02*
X1219600Y980200I56920J56980D01*
G01*
G75*
G02*
Y980240I79030J20D01*
G01*
G75*
G02*
X1219640Y982730I78190J-10D01*
G01*
Y1265240D01*
X1082080D01*
G75*
G02*
X965240Y1148400I-116840J0D01*
G01*
G75*
G02*
X848400Y1265230I0J116830D01*
G01*
G75*
G02*
Y1265240I286480J10D01*
G01*
X828080D01*
G75*
G02*
X711240Y1148400I-116840J0D01*
G01*
G75*
G02*
X594400Y1265230I0J116830D01*
G01*
G75*
G02*
Y1265240I286480J10D01*
G01*
X561360D01*
G37*
Y1650240D02*
G36*
X561360Y1650240D02*
Y1265240D01*
X594400D01*
G75*
G02*
X711240Y1382080I116840J0D01*
G01*
G75*
G02*
X828080Y1265240I-30J-116870D01*
G01*
X848400D01*
G75*
G02*
X965240Y1382080I116840J0D01*
G01*
G75*
G02*
X1082080Y1265240I-30J-116870D01*
G01*
X1219640D01*
Y1547750D01*
G75*
G02*
X1219600Y1550230I76910J2480D01*
G01*
G75*
G02*
Y1550240I81850J10D01*
G01*
G75*
G02*
Y1550260I104170J10D01*
G01*
G75*
G02*
X1236100Y1599110I80570J0D01*
G01*
G75*
G02*
X1126150Y1650240I-12860J116120D01*
G01*
X1066330D01*
G75*
G02*
X969240Y1598400I-97100J65020D01*
G01*
G75*
G02*
X872150Y1650240I0J116830D01*
G01*
X812330D01*
G75*
G02*
X715240Y1598400I-97100J65020D01*
G01*
G75*
G02*
X618150Y1650240I0J116830D01*
G01*
X561360D01*
G37*
X1380840Y1516800D02*
G36*
X1380840Y1516800D02*
Y1265240D01*
X1601840D01*
G75*
G02*
X1675780Y1365240I138380J-24990D01*
G01*
G75*
G02*
X1599590Y1490240I64450J125000D01*
G01*
G75*
G02*
X1675780Y1615240I140640J0D01*
G01*
G75*
G02*
X1632160Y1650240I64410J124960D01*
G01*
X1498360D01*
G75*
G02*
X1477260Y1613220I-78130J20010D01*
G01*
X1380840Y1516800D01*
G37*
X1804700Y1365240D02*
G36*
X1804700Y1365240D02*
G75*
G02*
X1840170Y1339210I-64740J-125400D01*
G01*
X1988220Y1487260D01*
G75*
G02*
X2047730Y1510840I57040J-57080D01*
G01*
X2492750D01*
G75*
G02*
X2552260Y1487260I2450J-80700D01*
G01*
X2622260Y1417260D01*
G75*
G02*
X2645880Y1360240I-57070J-57040D01*
G01*
G75*
G02*
X2645840Y1357750I-10190480J162460D01*
G01*
Y1336030D01*
G75*
G02*
X2654640Y1325420I-82860J-77680D01*
G01*
Y1371840D01*
X2875840D01*
Y1265240D01*
X2919120D01*
Y1650240D01*
X2678530D01*
G75*
G02*
X2590240Y1637100I-88280J290000D01*
G01*
G75*
G02*
X2501930Y1650240I-30J303130D01*
G01*
X2357080D01*
G75*
G02*
X2240240Y1533400I-116840J0D01*
G01*
G75*
G02*
X2123400Y1650230I0J116830D01*
G01*
G75*
G02*
Y1650240I286480J10D01*
G01*
X2103080D01*
G75*
G02*
X1986240Y1533400I-116840J0D01*
G01*
G75*
G02*
X1869400Y1650230I0J116830D01*
G01*
G75*
G02*
Y1650240I286480J10D01*
G01*
X1848310D01*
G75*
G02*
X1804700Y1615240I-108070J89990D01*
G01*
G75*
G02*
X1880880Y1490240I-64460J-125000D01*
G01*
G75*
G02*
X1804700Y1365240I-140640J0D01*
G01*
G37*
X1994280Y1265240D02*
G36*
X1994280Y1265240D02*
X2054710D01*
G75*
G02*
X2100060Y1349640I110500J-4990D01*
G01*
X2078680D01*
X1994280Y1265240D01*
G37*
X561360Y1940240D02*
G36*
X561360Y1940240D02*
Y1650240D01*
X618150D01*
G75*
G02*
X598400Y1715230I97080J65000D01*
G01*
G75*
G02*
Y1715240I286480J10D01*
G01*
G75*
G02*
X715240Y1832080I116840J0D01*
G01*
G75*
G02*
X832080Y1715240I-30J-116870D01*
G01*
G75*
G02*
X812330Y1650240I-116850J0D01*
G01*
X872150D01*
G75*
G02*
X852400Y1715230I97080J65000D01*
G01*
G75*
G02*
Y1715240I286480J10D01*
G01*
G75*
G02*
X969240Y1832080I116840J0D01*
G01*
G75*
G02*
X1086080Y1715240I-30J-116870D01*
G01*
G75*
G02*
X1066330Y1650240I-116850J0D01*
G01*
X1126150D01*
G75*
G02*
X1106400Y1715230I97080J65000D01*
G01*
G75*
G02*
Y1715240I190990J10D01*
G01*
G75*
G02*
X1339640Y1725370I116840J0D01*
G01*
Y1811800D01*
X1301800Y1849640D01*
X1191730D01*
G75*
G02*
X1132220Y1873220I-2510J80560D01*
G01*
X1065200Y1940240D01*
X561360D01*
G37*
X1439280D02*
G36*
X1439280Y1940240D02*
X1477260Y1902260D01*
G75*
G02*
X1500880Y1845240I-57070J-57040D01*
G01*
G75*
G02*
X1500840Y1842750I-10190480J162460D01*
G01*
Y1672730D01*
G75*
G03*
X1500880Y1670240I10190480J162460D01*
G01*
G75*
G02*
X1498360Y1650240I-80650J0D01*
G01*
X1632160D01*
G75*
G02*
X1599600Y1740210I108040J89980D01*
G01*
G75*
G02*
Y1740240I143240J20D01*
G01*
G75*
G02*
X1880880I140640J0D01*
G01*
G75*
G02*
X1848310Y1650240I-140650J10D01*
G01*
X1869400D01*
G75*
G02*
X1986240Y1767080I116840J0D01*
G01*
G75*
G02*
X2103080Y1650240I-30J-116870D01*
G01*
X2123400D01*
G75*
G02*
X2240240Y1767080I116840J0D01*
G01*
G75*
G02*
X2357080Y1650240I-30J-116870D01*
G01*
X2501930D01*
G75*
G02*
X2287100Y1940210I88280J289970D01*
G01*
G75*
G02*
Y1940240I429720J20D01*
G01*
X1439280D01*
G37*
X2893380Y1940230D02*
G36*
X2893380Y1940230D02*
G75*
G02*
X2678530Y1650240I-303130J0D01*
G01*
X2919120D01*
Y1940240D01*
X2893380D01*
G75*
G02*
Y1940230I-572960J0D01*
G01*
G37*
X561360Y2150240D02*
G36*
X561360Y2150240D02*
Y1940240D01*
X1065200D01*
X972010Y2033430D01*
G75*
G02*
X969240Y2033400I-2080J64180D01*
G01*
G75*
G02*
X852400Y2150230I0J116830D01*
G01*
G75*
G02*
Y2150240I286480J10D01*
G01*
X832080D01*
G75*
G02*
X715240Y2033400I-116840J0D01*
G01*
G75*
G02*
X598400Y2150230I0J116830D01*
G01*
G75*
G02*
Y2150240I286480J10D01*
G01*
X561360D01*
G37*
X1086080D02*
G36*
X1086080Y2150240D02*
G75*
G02*
X1086050Y2147470I-189860J670D01*
G01*
X1109340Y2124180D01*
G75*
G02*
X1106400Y2150240I113900J26050D01*
G01*
X1086080D01*
G37*
X1197180Y2036340D02*
G36*
X1197180Y2036340D02*
X1222680Y2010840D01*
X1332750D01*
G75*
G02*
X1392260Y1987260I2450J-80700D01*
G01*
X1439280Y1940240D01*
X2287100D01*
G75*
G02*
Y1940250I572960J10D01*
G01*
G75*
G02*
X2371620Y2150240I303130J-10D01*
G01*
X1340080D01*
G75*
G02*
X1197180Y2036340I-116850J10D01*
G01*
G37*
X2808850Y2150240D02*
G36*
X2808850Y2150240D02*
G75*
G02*
X2893380Y1940240I-218620J-210010D01*
G01*
X2919120D01*
Y2150240D01*
X2808850D01*
G37*
X561360Y2640240D02*
G36*
X561360Y2640240D02*
Y2150240D01*
X598400D01*
G75*
G02*
X715240Y2267080I116840J0D01*
G01*
G75*
G02*
X832080Y2150240I-30J-116870D01*
G01*
X852400D01*
G75*
G02*
X969240Y2267080I116840J0D01*
G01*
G75*
G02*
X1086080Y2150240I-30J-116870D01*
G01*
X1106400D01*
G75*
G02*
Y2150250I190990J10D01*
G01*
G75*
G02*
X1223240Y2267080I116840J0D01*
G01*
G75*
G02*
X1340080Y2150240I-30J-116870D01*
G01*
X2371620D01*
G75*
G02*
X2590240Y2243380I218610J-209990D01*
G01*
G75*
G02*
X2808850Y2150240I-10J-303150D01*
G01*
X2919120D01*
Y2640240D01*
X1980840D01*
Y2307730D01*
G75*
G03*
X1980880Y2305240I10190480J162460D01*
G01*
G75*
G02*
X1957260Y2248220I-80650J10D01*
G01*
X1912260Y2203220D01*
G75*
G02*
X1830180Y2183600I-57010J56990D01*
G01*
G75*
G02*
X1810840Y2179830I-24960J76550D01*
G01*
Y2179640D01*
X1744640D01*
Y2179830D01*
G75*
G02*
X1730240Y2182160I5260J78160D01*
G01*
G75*
G02*
X1710240Y2179640I-19980J77940D01*
G01*
X1667730D01*
G75*
G02*
X1584600Y2260240I-2500J80600D01*
G01*
G75*
G02*
X1608220Y2317260I80630J0D01*
G01*
X1664640Y2373680D01*
Y2450650D01*
G75*
G02*
X1628400Y2535240I80600J84590D01*
G01*
G75*
G02*
X1693990Y2640240I116840J0D01*
G01*
X1480880D01*
G75*
G02*
X1270240Y2592900I-110640J0D01*
G01*
G75*
G02*
X1070240I-100000J47340D01*
G01*
G75*
G02*
X880840Y2575060I-100000J47320D01*
G01*
Y2528640D01*
X659640D01*
Y2640240D01*
X561360D01*
G37*
X1796490D02*
G36*
X1796490Y2640240D02*
G75*
G02*
X1819640Y2625330I-51250J-105000D01*
G01*
Y2640240D01*
X1796490D01*
G37*
X561360Y2869120D02*
G36*
X561360Y2869120D02*
Y2640240D01*
X659640D01*
Y2751840D01*
X880840D01*
Y2705420D01*
G75*
G02*
X1070240Y2687580I89400J-65180D01*
G01*
G75*
G02*
X1270240I100000J-47360D01*
G01*
G75*
G02*
X1480880Y2640240I100000J-47350D01*
G01*
X1693990D01*
G75*
G02*
X1796490I51250J-105010D01*
G01*
X1819640D01*
Y2676800D01*
X1806620Y2689820D01*
G75*
G02*
X1628390Y2789230I-61390J99410D01*
G01*
G75*
G02*
X1659970Y2869120I116850J0D01*
G01*
X561360D01*
G37*
X1832260D02*
G36*
X1832260Y2869120D02*
G75*
G02*
X1878260Y2846260I-11060J-79960D01*
G01*
X1957260Y2767260D01*
G75*
G02*
X1980880Y2710240I-57070J-57040D01*
G01*
G75*
G02*
X1980840Y2707750I-10190480J162460D01*
G01*
Y2640240D01*
X2919120D01*
Y2869120D01*
X1832260D01*
G37*
D02*
D12*
X647740Y1265240D02*
X594400D01*
X651740Y1715240D02*
X598400D01*
X651740Y2150240D02*
X598400D01*
X711240Y1201740D02*
Y1148400D01*
Y1328740D02*
Y1382080D01*
X712940Y2640240D02*
X659640D01*
X715240Y1651740D02*
Y1598400D01*
Y1778740D02*
Y1832080D01*
Y2086740D02*
Y2033400D01*
Y2213740D02*
Y2267080D01*
X770240Y2581940D02*
Y2528640D01*
Y2698540D02*
Y2751840D01*
X774740Y1265240D02*
X828080D01*
X778740Y1715240D02*
X832080D01*
X778740Y2150240D02*
X832080D01*
X1322740Y640240D02*
X1269400D01*
X1386240Y576740D02*
Y523400D01*
Y703740D02*
Y757080D01*
X1449740Y640240D02*
X1503080D01*
X2176740Y1650240D02*
X2123400D01*
X2240240Y1586740D02*
Y1533400D01*
Y1713740D02*
Y1767080D01*
X2303740Y1650240D02*
X2357080D01*
X2340440Y1940240D02*
X2287100D01*
X2365240Y1202940D02*
Y1149600D01*
X2590240Y1690440D02*
Y1637100D01*
Y2190040D02*
Y2243380D01*
X2765240Y1201940D02*
Y1148640D01*
Y1318540D02*
Y1371840D01*
X2822540Y1260240D02*
X2875840D01*
X2840040Y1940240D02*
X2893380D01*
D02*
D13*
X1640240Y640240D02*
X1300240Y980240D01*
Y1550240D01*
X1420240Y1670240D01*
Y1845240D01*
X1335240Y1930240D01*
X1189240D01*
X969240Y2150240D01*
X1740240Y1240240D02*
X1855240D01*
X2045240Y1430240D01*
X2495240D01*
X2565240Y1360240D01*
Y1260240D01*
X1745240Y2535240D02*
Y2340240D01*
X1665240Y2260240D01*
X1710240D01*
X1745240Y2789240D02*
X1821240D01*
X1900240Y2710240D01*
Y2305240D01*
X1855240Y2260240D01*
D02*
D14*
X1740240Y1240240D03*
Y1490240D03*
Y1740240D03*
D02*
D15*
X840240Y590240D03*
X2590240Y1940240D03*
D02*
D16*
X711240Y1265240D03*
X715240Y1715240D03*
Y2150240D03*
X965240Y1265240D03*
X969240Y1715240D03*
Y2150240D03*
X1223240Y1715240D03*
Y2150240D03*
X1386240Y640240D03*
X1640240D03*
X1745240Y2535240D03*
Y2789240D03*
X1986240Y1650240D03*
X2240240D03*
D02*
D17*
X770240Y2640240D03*
X2765240Y1260240D03*
D02*
D18*
X970240Y2640240D03*
X1170240D03*
X1370240D03*
X2165240Y1260240D03*
X2365240D03*
X2565240D03*
D02*
D22*
X1710240Y2260240D02*
X1740240D01*
X1855240D02*
X1815240D01*
D02*
D23*
D03*
D02*
D24*
X1740240D03*
X0Y0D02*
M02*
