G04 DesignSpark PCB Gerber Version 13.0 Build *
%FSLAX35Y35*%
%MOMM*%
%ADD10C,0.12700*%
%ADD74C,2.54000*%
X0Y0D02*
D02*
D10*
X965240Y1416050D02*
Y1511300D01*
X1012870D01*
X1028740Y1503370D01*
X1036680Y1495430D01*
X1044620Y1479550D01*
Y1447800D01*
X1036680Y1431930D01*
X1028740Y1423990D01*
X1012870Y1416050D01*
X965240D01*
X1048620Y1881930D02*
X1040680Y1873990D01*
X1024800Y1866050D01*
X1000990D01*
X985120Y1873990D01*
X977180Y1881930D01*
X969240Y1897800D01*
Y1929550D01*
X977180Y1945430D01*
X985120Y1953370D01*
X1000990Y1961300D01*
X1024800D01*
X1040680Y1953370D01*
X1048620Y1945430D01*
Y2316930D02*
X1040680Y2308990D01*
X1024800Y2301050D01*
X1000990D01*
X985120Y2308990D01*
X977180Y2316930D01*
X969240Y2332800D01*
Y2364550D01*
X977180Y2380430D01*
X985120Y2388370D01*
X1000990Y2396300D01*
X1024800D01*
X1040680Y2388370D01*
X1048620Y2380430D01*
X1103620Y2806930D02*
X1095680Y2798990D01*
X1079800Y2791050D01*
X1055990D01*
X1040120Y2798990D01*
X1032180Y2806930D01*
X1024240Y2822800D01*
Y2854550D01*
X1032180Y2870430D01*
X1040120Y2878370D01*
X1055990Y2886300D01*
X1079800D01*
X1095680Y2878370D01*
X1103620Y2870430D01*
X1149800Y788680D02*
X1165680Y780740D01*
X1173620Y764870D01*
X1165680Y748990D01*
X1149800Y741050D01*
X1094240D01*
Y836300D01*
X1149800D01*
X1165680Y828370D01*
X1173620Y812490D01*
X1165680Y796620D01*
X1149800Y788680D01*
X1094240D01*
X1219240Y1416050D02*
Y1511300D01*
X1266870D01*
X1282740Y1503370D01*
X1290680Y1495430D01*
X1298620Y1479550D01*
Y1447800D01*
X1290680Y1431930D01*
X1282740Y1423990D01*
X1266870Y1416050D01*
X1219240D01*
X1302620Y1881930D02*
X1294680Y1873990D01*
X1278800Y1866050D01*
X1254990D01*
X1239120Y1873990D01*
X1231180Y1881930D01*
X1223240Y1897800D01*
Y1929550D01*
X1231180Y1945430D01*
X1239120Y1953370D01*
X1254990Y1961300D01*
X1278800D01*
X1294680Y1953370D01*
X1302620Y1945430D01*
Y2316930D02*
X1294680Y2308990D01*
X1278800Y2301050D01*
X1254990D01*
X1239120Y2308990D01*
X1231180Y2316930D01*
X1223240Y2332800D01*
Y2364550D01*
X1231180Y2380430D01*
X1239120Y2388370D01*
X1254990Y2396300D01*
X1278800D01*
X1294680Y2388370D01*
X1302620Y2380430D01*
X1303620Y2806930D02*
X1295680Y2798990D01*
X1279800Y2791050D01*
X1255990D01*
X1240120Y2798990D01*
X1232180Y2806930D01*
X1224240Y2822800D01*
Y2854550D01*
X1232180Y2870430D01*
X1240120Y2878370D01*
X1255990Y2886300D01*
X1279800D01*
X1295680Y2878370D01*
X1303620Y2870430D01*
X1503620Y2806930D02*
X1495680Y2798990D01*
X1479800Y2791050D01*
X1455990D01*
X1440120Y2798990D01*
X1432180Y2806930D01*
X1424240Y2822800D01*
Y2854550D01*
X1432180Y2870430D01*
X1440120Y2878370D01*
X1455990Y2886300D01*
X1479800D01*
X1495680Y2878370D01*
X1503620Y2870430D01*
X1556620Y1881930D02*
X1548680Y1873990D01*
X1532800Y1866050D01*
X1508990D01*
X1493120Y1873990D01*
X1485180Y1881930D01*
X1477240Y1897800D01*
Y1929550D01*
X1485180Y1945430D01*
X1493120Y1953370D01*
X1508990Y1961300D01*
X1532800D01*
X1548680Y1953370D01*
X1556620Y1945430D01*
Y2316930D02*
X1548680Y2308990D01*
X1532800Y2301050D01*
X1508990D01*
X1493120Y2308990D01*
X1485180Y2316930D01*
X1477240Y2332800D01*
Y2364550D01*
X1485180Y2380430D01*
X1493120Y2388370D01*
X1508990Y2396300D01*
X1532800D01*
X1548680Y2388370D01*
X1556620Y2380430D01*
X1703620Y2806930D02*
X1695680Y2798990D01*
X1679800Y2791050D01*
X1655990D01*
X1640120Y2798990D01*
X1632180Y2806930D01*
X1624240Y2822800D01*
Y2854550D01*
X1632180Y2870430D01*
X1640120Y2878370D01*
X1655990Y2886300D01*
X1679800D01*
X1695680Y2878370D01*
X1703620Y2870430D01*
X1640240Y791050D02*
Y886300D01*
X1687870D01*
X1703740Y878370D01*
X1711680Y870430D01*
X1719620Y854550D01*
Y822800D01*
X1711680Y806930D01*
X1703740Y798990D01*
X1687870Y791050D01*
X1640240D01*
X1894240D02*
Y886300D01*
X1941870D01*
X1957740Y878370D01*
X1965680Y870430D01*
X1973620Y854550D01*
Y822800D01*
X1965680Y806930D01*
X1957740Y798990D01*
X1941870Y791050D01*
X1894240D01*
X1994240Y1391050D02*
X2033930Y1486300D01*
X2073620Y1391050D01*
X2010120Y1430740D02*
X2057740D01*
X1994240Y1641050D02*
X2033930Y1736300D01*
X2073620Y1641050D01*
X2010120Y1680740D02*
X2057740D01*
X1994240Y1891050D02*
X2033930Y1986300D01*
X2073620Y1891050D01*
X2010120Y1930740D02*
X2057740D01*
X2078620Y2701930D02*
X2070680Y2693990D01*
X2054800Y2686050D01*
X2030990D01*
X2015120Y2693990D01*
X2007180Y2701930D01*
X1999240Y2717800D01*
Y2749550D01*
X2007180Y2765430D01*
X2015120Y2773370D01*
X2030990Y2781300D01*
X2054800D01*
X2070680Y2773370D01*
X2078620Y2765430D01*
Y2955930D02*
X2070680Y2947990D01*
X2054800Y2940050D01*
X2030990D01*
X2015120Y2947990D01*
X2007180Y2955930D01*
X1999240Y2971800D01*
Y3003550D01*
X2007180Y3019430D01*
X2015120Y3027370D01*
X2030990Y3035300D01*
X2054800D01*
X2070680Y3027370D01*
X2078620Y3019430D01*
X2319620Y1816930D02*
X2311680Y1808990D01*
X2295800Y1801050D01*
X2271990D01*
X2256120Y1808990D01*
X2248180Y1816930D01*
X2240240Y1832800D01*
Y1864550D01*
X2248180Y1880430D01*
X2256120Y1888370D01*
X2271990Y1896300D01*
X2295800D01*
X2311680Y1888370D01*
X2319620Y1880430D01*
X2498620Y1426930D02*
X2490680Y1418990D01*
X2474800Y1411050D01*
X2450990D01*
X2435120Y1418990D01*
X2427180Y1426930D01*
X2419240Y1442800D01*
Y1474550D01*
X2427180Y1490430D01*
X2435120Y1498370D01*
X2450990Y1506300D01*
X2474800D01*
X2490680Y1498370D01*
X2498620Y1490430D01*
X2573620Y1816930D02*
X2565680Y1808990D01*
X2549800Y1801050D01*
X2525990D01*
X2510120Y1808990D01*
X2502180Y1816930D01*
X2494240Y1832800D01*
Y1864550D01*
X2502180Y1880430D01*
X2510120Y1888370D01*
X2525990Y1896300D01*
X2549800D01*
X2565680Y1888370D01*
X2573620Y1880430D01*
X2698620Y1426930D02*
X2690680Y1418990D01*
X2674800Y1411050D01*
X2650990D01*
X2635120Y1418990D01*
X2627180Y1426930D01*
X2619240Y1442800D01*
Y1474550D01*
X2627180Y1490430D01*
X2635120Y1498370D01*
X2650990Y1506300D01*
X2674800D01*
X2690680Y1498370D01*
X2698620Y1490430D01*
X2898620Y1426930D02*
X2890680Y1418990D01*
X2874800Y1411050D01*
X2850990D01*
X2835120Y1418990D01*
X2827180Y1426930D01*
X2819240Y1442800D01*
Y1474550D01*
X2827180Y1490430D01*
X2835120Y1498370D01*
X2850990Y1506300D01*
X2874800D01*
X2890680Y1498370D01*
X2898620Y1490430D01*
X2899800Y2138680D02*
X2915680Y2130740D01*
X2923620Y2114870D01*
X2915680Y2098990D01*
X2899800Y2091050D01*
X2844240D01*
Y2186300D01*
X2899800D01*
X2915680Y2178370D01*
X2923620Y2162490D01*
X2915680Y2146620D01*
X2899800Y2138680D01*
X2844240D01*
X3098620Y1426930D02*
X3090680Y1418990D01*
X3074800Y1411050D01*
X3050990D01*
X3035120Y1418990D01*
X3027180Y1426930D01*
X3019240Y1442800D01*
Y1474550D01*
X3027180Y1490430D01*
X3035120Y1498370D01*
X3050990Y1506300D01*
X3074800D01*
X3090680Y1498370D01*
X3098620Y1490430D01*
D02*
D74*
X711240Y1265240D03*
X715240Y1715240D03*
Y2150240D03*
X770240Y2640240D03*
X840240Y590240D03*
X965240Y1265240D03*
X969240Y1715240D03*
Y2150240D03*
X970240Y2640240D03*
X1170240D03*
X1223240Y1715240D03*
Y2150240D03*
X1370240Y2640240D03*
X1386240Y640240D03*
X1640240D03*
X1740240Y1240240D03*
Y1490240D03*
Y1740240D03*
X1745240Y2535240D03*
Y2789240D03*
X1986240Y1650240D03*
X2165240Y1260240D03*
X2240240Y1650240D03*
X2365240Y1260240D03*
X2565240D03*
X2590240Y1940240D03*
X2765240Y1260240D03*
X0Y0D02*
M02*
