G04 DesignSpark PCB Gerber Version 13.0 Build *
%FSLAX35Y35*%
%MOMM*%
%ADD10C,0.12700*%
X0Y0D02*
D02*
D10*
X540240Y2810240D02*
Y2450240D01*
X1600240D01*
Y2910240D01*
X640240D01*
X540240Y2810240D01*
X590240Y1907870D02*
X598180Y1891990D01*
X614050Y1884050D01*
X645800D01*
X661680Y1891990D01*
X669620Y1907870D01*
X661680Y1923740D01*
X645800Y1931680D01*
X614050D01*
X598180Y1939620D01*
X590240Y1955490D01*
X598180Y1971370D01*
X614050Y1979300D01*
X645800D01*
X661680Y1971370D01*
X669620Y1955490D01*
X780740Y1891990D02*
X772800Y1884050D01*
X756930D01*
X741050D01*
X725180Y1891990D01*
X717240Y1907870D01*
Y1931680D01*
X725180Y1939620D01*
X741050Y1947550D01*
X756930D01*
X772800Y1939620D01*
X780740Y1931680D01*
Y1923740D01*
X772800Y1915800D01*
X756930Y1907870D01*
X741050D01*
X725180Y1915800D01*
X717240Y1923740D01*
X844240Y1884050D02*
Y1947550D01*
Y1923740D02*
X852180Y1939620D01*
X868050Y1947550D01*
X883930D01*
X899800Y1939620D01*
X971240Y1947550D02*
X1002990Y1884050D01*
X1034740Y1947550D01*
X1098240Y1907870D02*
X1106180Y1891990D01*
X1122050Y1884050D01*
X1137930D01*
X1153800Y1891990D01*
X1161740Y1907870D01*
Y1923740D01*
X1153800Y1939620D01*
X1137930Y1947550D01*
X1122050D01*
X1106180Y1939620D01*
X1098240Y1923740D01*
Y1907870D01*
X1352240Y1884050D02*
X1431620Y1979300D01*
X1352240D02*
X1431620Y1884050D01*
X595240Y2327870D02*
X603180Y2311990D01*
X619050Y2304050D01*
X650800D01*
X666680Y2311990D01*
X674620Y2327870D01*
X666680Y2343740D01*
X650800Y2351680D01*
X619050D01*
X603180Y2359620D01*
X595240Y2375490D01*
X603180Y2391370D01*
X619050Y2399300D01*
X650800D01*
X666680Y2391370D01*
X674620Y2375490D01*
X785740Y2311990D02*
X777800Y2304050D01*
X761930D01*
X746050D01*
X730180Y2311990D01*
X722240Y2327870D01*
Y2351680D01*
X730180Y2359620D01*
X746050Y2367550D01*
X761930D01*
X777800Y2359620D01*
X785740Y2351680D01*
Y2343740D01*
X777800Y2335800D01*
X761930Y2327870D01*
X746050D01*
X730180Y2335800D01*
X722240Y2343740D01*
X849240Y2304050D02*
Y2367550D01*
Y2343740D02*
X857180Y2359620D01*
X873050Y2367550D01*
X888930D01*
X904800Y2359620D01*
X976240Y2367550D02*
X1007990Y2304050D01*
X1039740Y2367550D01*
X1103240Y2327870D02*
X1111180Y2311990D01*
X1127050Y2304050D01*
X1142930D01*
X1158800Y2311990D01*
X1166740Y2327870D01*
Y2343740D01*
X1158800Y2359620D01*
X1142930Y2367550D01*
X1127050D01*
X1111180Y2359620D01*
X1103240Y2343740D01*
Y2327870D01*
X1396930Y2304050D02*
Y2351680D01*
X1357240Y2399300D01*
X1396930Y2351680D02*
X1436620Y2399300D01*
X683490Y1842240D02*
X1318490D01*
Y1588240D01*
X619990D01*
Y1778740D01*
X683490Y1842240D01*
Y2277240D02*
X1318490D01*
Y2023240D01*
X619990D01*
Y2213740D01*
X683490Y2277240D01*
X690240Y895240D02*
X535240Y740240D01*
Y440240D01*
X690240Y285240D01*
X990240D01*
X1145240Y440240D01*
Y740240D01*
X990240Y895240D01*
X690240D01*
X959680Y1090240D02*
Y1153740D01*
X991430Y1121990D02*
X927930D01*
X1092240Y1265240D02*
G75*
G02*
X838240Y1011240I-254000J0D01*
G01*
G75*
G02*
X584240Y1265240I0J254000D01*
G01*
G75*
G02*
X838240Y1519240I254000J0D01*
G01*
G75*
G02*
X1092240Y1265240I0J-254000D01*
G01*
X1155740Y1019180D02*
X1092240D01*
X1123990Y1050930D02*
Y987430D01*
X1604050Y2294050D02*
X1635800D01*
X1619930D02*
Y2389300D01*
X1604050D02*
X1635800D01*
X1707240Y2294050D02*
Y2389300D01*
X1762800D01*
X1778680Y2381370D01*
X1786620Y2365490D01*
X1778680Y2349620D01*
X1762800Y2341680D01*
X1707240D01*
X1834240Y2301990D02*
X1850120Y2294050D01*
X1873930D01*
X1889800Y2301990D01*
X1897740Y2317870D01*
Y2325800D01*
X1889800Y2341680D01*
X1873930Y2349620D01*
X1834240D01*
Y2389300D01*
X1897740D01*
X1969180Y2301990D02*
X1985050Y2294050D01*
X2000930D01*
X2016800Y2301990D01*
X2024740Y2317870D01*
X2016800Y2333740D01*
X2000930Y2341680D01*
X1985050D01*
X2000930D02*
X2016800Y2349620D01*
X2024740Y2365490D01*
X2016800Y2381370D01*
X2000930Y2389300D01*
X1985050D01*
X1969180Y2381370D01*
X2096180Y2301990D02*
X2112050Y2294050D01*
X2127930D01*
X2143800Y2301990D01*
X2151740Y2317870D01*
Y2365490D01*
X2143800Y2381370D01*
X2127930Y2389300D01*
X2112050D01*
X2096180Y2381370D01*
X2088240Y2365490D01*
Y2317870D01*
X2096180Y2301990D01*
X2143800Y2381370D01*
X2215240Y2317870D02*
X2223180Y2333740D01*
X2239050Y2341680D01*
X2254930D01*
X2270800Y2333740D01*
X2278740Y2317870D01*
X2270800Y2301990D01*
X2254930Y2294050D01*
X2239050D01*
X2223180Y2301990D01*
X2215240Y2317870D01*
Y2341680D01*
X2223180Y2365490D01*
X2239050Y2381370D01*
X2254930Y2389300D01*
X1618240Y2503490D02*
Y2884490D01*
X1872240D01*
Y2439990D01*
X1681740D01*
X1618240Y2503490D01*
X1634680Y465240D02*
Y528740D01*
X1666430Y496990D02*
X1602930D01*
X1767240Y640240D02*
G75*
G02*
X1513240Y386240I-254000J0D01*
G01*
G75*
G02*
X1259240Y640240I0J254000D01*
G01*
G75*
G02*
X1513240Y894240I254000J0D01*
G01*
G75*
G02*
X1767240Y640240I0J-254000D01*
G01*
X1830740Y394180D02*
X1767240D01*
X1798990Y425930D02*
Y362430D01*
X2271990Y1523240D02*
X1890990D01*
Y1777240D01*
X2335490D01*
Y1586740D01*
X2271990Y1523240D01*
X2440240Y2245240D02*
X2285240Y2090240D01*
Y1790240D01*
X2440240Y1635240D01*
X2740240D01*
X2895240Y1790240D01*
Y2090240D01*
X2740240Y2245240D01*
X2440240D01*
X0Y0D02*
M02*
