G04 DesignSpark PCB Gerber Version 13.0 Build *
%FSLAX35Y35*%
%MOMM*%
%ADD10C,0.12700*%
X0Y0D02*
D02*
D10*
X1445800Y1140240D02*
X1477550D01*
X1493430Y1148180D01*
X1501370Y1156120D01*
X1509300Y1171990D01*
Y1187870D01*
X1501370Y1203740D01*
X1493430Y1211680D01*
X1477550Y1219620D01*
X1445800D01*
X1429930Y1211680D01*
X1421990Y1203740D01*
X1414050Y1187870D01*
Y1171990D01*
X1421990Y1156120D01*
X1429930Y1148180D01*
X1445800Y1140240D01*
X1414050Y1267240D02*
X1509300D01*
X1414050Y1346620D01*
X1509300D01*
X1695240Y2320240D02*
X1860240D01*
Y2200240D01*
X1695240D01*
Y2320240D01*
X1885240Y2084930D02*
X1877300Y2076990D01*
X1861430Y2069050D01*
X1845550Y2076990D01*
X1837610Y2084930D01*
Y2164300D01*
X1821740D01*
X1837610D02*
X1869360D01*
X1742360Y2069050D02*
X1710610D01*
X1726490D02*
Y2164300D01*
X1742360Y2148430D01*
X1915240Y1915240D02*
X1565240D01*
Y1065240D01*
X1915240D01*
Y1915240D01*
X2349680Y1096680D02*
X2333800Y1088740D01*
X2325860Y1072870D01*
X2333800Y1056990D01*
X2349680Y1049050D01*
X2405240D01*
Y1144300D01*
X2349680D01*
X2333800Y1136370D01*
X2325860Y1120490D01*
X2333800Y1104620D01*
X2349680Y1096680D01*
X2405240D01*
X2278240Y1049050D02*
X2238550Y1144300D01*
X2198860Y1049050D01*
X2262360Y1088740D02*
X2214740D01*
X2111550Y1049050D02*
Y1144300D01*
X2151240D02*
X2071860D01*
X1984550Y1049050D02*
Y1144300D01*
X2024240D02*
X1944860D01*
X2845240Y784050D02*
Y879300D01*
Y831680D02*
X2821430D01*
X2765860Y879300D01*
X2821430Y831680D02*
X2765860Y784050D01*
X2686490D02*
Y847550D01*
Y871370D02*
X2591240Y784050D02*
Y847550D01*
Y823740D02*
X2583300Y839620D01*
X2567430Y847550D01*
X2551550D01*
X2535680Y839620D01*
X2527740Y823740D01*
Y784050D01*
X2464240Y807870D02*
X2456300Y791990D01*
X2440430Y784050D01*
X2424550D01*
X2408680Y791990D01*
X2400740Y807870D01*
Y823740D01*
X2408680Y839620D01*
X2424550Y847550D01*
X2440430D01*
X2456300Y839620D01*
X2464240Y823740D01*
Y807870D01*
X2337240Y784050D02*
Y879300D01*
Y815800D02*
X2313430D01*
X2273740Y847550D01*
X2313430Y815800D02*
X2273740Y784050D01*
X2210240Y847550D02*
Y807870D01*
X2202300Y791990D01*
X2186430Y784050D01*
X2170550D01*
X2154680Y791990D01*
X2146740Y807870D01*
Y847550D02*
Y784050D01*
X2083240D02*
Y847550D01*
Y823740D02*
X2075300Y839620D01*
X2059430Y847550D01*
X2043550D01*
X2027680Y839620D01*
X2019740Y823740D01*
Y784050D01*
X1924490D02*
Y847550D01*
Y871370D02*
X1805430Y784050D02*
X1773680D01*
X1789550D02*
Y879300D01*
X1805430D02*
X1773680D01*
X1622860Y799930D02*
X1630800Y791990D01*
X1646680Y784050D01*
X1670490D01*
X1686360Y791990D01*
X1694300Y799930D01*
X1702240Y815800D01*
Y847550D01*
X1694300Y863430D01*
X1686360Y871370D01*
X1670490Y879300D01*
X1646680D01*
X1630800Y871370D01*
X1622860Y863430D01*
X1535550Y784050D02*
Y879300D01*
X1575240D02*
X1495860D01*
X2806740Y309050D02*
X2870240D01*
X2814680Y364620D01*
X2806740Y380490D01*
X2814680Y396370D01*
X2830550Y404300D01*
X2854360D01*
X2870240Y396370D01*
X2735300Y316990D02*
X2719430Y309050D01*
X2703550D01*
X2687680Y316990D01*
X2679740Y332870D01*
Y380490D01*
X2687680Y396370D01*
X2703550Y404300D01*
X2719430D01*
X2735300Y396370D01*
X2743240Y380490D01*
Y332870D01*
X2735300Y316990D01*
X2687680Y396370D01*
X2552740Y309050D02*
X2616240D01*
X2560680Y364620D01*
X2552740Y380490D01*
X2560680Y396370D01*
X2576550Y404300D01*
X2600360D01*
X2616240Y396370D01*
X2489240Y332870D02*
X2481300Y348740D01*
X2465430Y356680D01*
X2449550D01*
X2433680Y348740D01*
X2425740Y332870D01*
X2433680Y316990D01*
X2449550Y309050D01*
X2465430D01*
X2481300Y316990D01*
X2489240Y332870D01*
Y356680D01*
X2481300Y380490D01*
X2465430Y396370D01*
X2449550Y404300D01*
X2362240Y309050D02*
X2282860Y404300D01*
X2227300Y316990D02*
X2211430Y309050D01*
X2195550D01*
X2179680Y316990D01*
X2171740Y332870D01*
Y380490D01*
X2179680Y396370D01*
X2195550Y404300D01*
X2211430D01*
X2227300Y396370D01*
X2235240Y380490D01*
Y332870D01*
X2227300Y316990D01*
X2179680Y396370D01*
X2100300Y316990D02*
X2084430Y309050D01*
X2068550D01*
X2052680Y316990D01*
X2044740Y332870D01*
X2052680Y348740D01*
X2068550Y356680D01*
X2084430D01*
X2068550D02*
X2052680Y364620D01*
X2044740Y380490D01*
X2052680Y396370D01*
X2068550Y404300D01*
X2084430D01*
X2100300Y396370D01*
X1981240Y309050D02*
X1901860Y404300D01*
X1846300Y316990D02*
X1830430Y309050D01*
X1814550D01*
X1798680Y316990D01*
X1790740Y332870D01*
Y380490D01*
X1798680Y396370D01*
X1814550Y404300D01*
X1830430D01*
X1846300Y396370D01*
X1854240Y380490D01*
Y332870D01*
X1846300Y316990D01*
X1798680Y396370D01*
X1663740Y309050D02*
X1727240D01*
X1671680Y364620D01*
X1663740Y380490D01*
X1671680Y396370D01*
X1687550Y404300D01*
X1711360D01*
X1727240Y396370D01*
X2885240Y497870D02*
X2877300Y481990D01*
X2861430Y474050D01*
X2829680D01*
X2813800Y481990D01*
X2805860Y497870D01*
X2813800Y513740D01*
X2829680Y521680D01*
X2861430D01*
X2877300Y529620D01*
X2885240Y545490D01*
X2877300Y561370D01*
X2861430Y569300D01*
X2829680D01*
X2813800Y561370D01*
X2805860Y545490D01*
X2745010Y537550D02*
X2707970D01*
X2726490Y553430D02*
Y481990D01*
X2718550Y474050D01*
X2710610D01*
X2702680Y481990D01*
X2631240Y529620D02*
X2615360Y537550D01*
X2591550D01*
X2575680Y529620D01*
X2567740Y513740D01*
Y489930D01*
X2575680Y481990D01*
X2591550Y474050D01*
X2607430D01*
X2623300Y481990D01*
X2631240Y489930D01*
Y497870D01*
X2623300Y505800D01*
X2607430Y513740D01*
X2591550D01*
X2575680Y505800D01*
X2567740Y497870D01*
Y489930D02*
Y474050D01*
X2440740Y529620D02*
X2456610Y537550D01*
X2480430D01*
X2496300Y529620D01*
X2504240Y513740D01*
Y497870D01*
X2496300Y481990D01*
X2480430Y474050D01*
X2456610D01*
X2440740Y481990D01*
X2377240Y474050D02*
Y569300D01*
Y505800D02*
X2353430D01*
X2313740Y537550D01*
X2353430Y505800D02*
X2313740Y474050D01*
X2250240Y505800D02*
X2186740D01*
X2059740Y529620D02*
X2075610Y537550D01*
X2099430D01*
X2115300Y529620D01*
X2123240Y513740D01*
Y497870D01*
X2115300Y481990D01*
X2099430Y474050D01*
X2075610D01*
X2059740Y481990D01*
X1996240Y474050D02*
Y569300D01*
Y513740D02*
X1988300Y529620D01*
X1972430Y537550D01*
X1956550D01*
X1940680Y529620D01*
X1932740Y513740D01*
Y474050D01*
X1869240Y529620D02*
X1853360Y537550D01*
X1829550D01*
X1813680Y529620D01*
X1805740Y513740D01*
Y489930D01*
X1813680Y481990D01*
X1829550Y474050D01*
X1845430D01*
X1861300Y481990D01*
X1869240Y489930D01*
Y497870D01*
X1861300Y505800D01*
X1845430Y513740D01*
X1829550D01*
X1813680Y505800D01*
X1805740Y497870D01*
Y489930D02*
Y474050D01*
X1742240D02*
Y537550D01*
Y513740D02*
X1734300Y529620D01*
X1718430Y537550D01*
X1702550D01*
X1686680Y529620D01*
X1678740Y513740D01*
Y474050D01*
X2995240Y1430240D02*
Y1070240D01*
X1935240D01*
Y1530240D01*
X2895240D01*
X2995240Y1430240D01*
X0Y0D02*
M02*
